STARTFONT 2.1
FONT -bited-ANAKRON3x-Regular-R-Normal--36-330-75-75-C-240-ISO10646-1
SIZE 33 75 75
FONTBOUNDINGBOX 24 36 0 -6
STARTPROPERTIES 24
FOUNDRY "bited"
FAMILY_NAME "ANAKRON3x"
WEIGHT_NAME "Regular"
SLANT "R"
SETWIDTH_NAME "Normal"
ADD_STYLE_NAME ""
PIXEL_SIZE 36
POINT_SIZE 330
RESOLUTION_X 75
RESOLUTION_Y 75
SPACING "C"
AVERAGE_WIDTH 240
CHARSET_REGISTRY "ISO10646"
CHARSET_ENCODING "1"
FONT_ASCENT 30
FONT_DESCENT 6
CAP_HEIGHT 21
X_HEIGHT 15
COPYRIGHT "Copyright 2024 The ANAKRON Project Authors (https://github.com/molarmanful/ANAKRON)"
BITED_DWIDTH 24
BITED_TABLE_WIDTH -16
BITED_TABLE_CELL_SCALE 2
BITED_EDITOR_GRID_SIZE 96
BITED_EDITOR_CELL_SIZE 12
ENDPROPERTIES
CHARS 2007
STARTCHAR .notdef
ENCODING -1
SWIDTH 2880 0
DWIDTH 24 0
BBX 24 30 0 -3
BITMAP
FFFFFF
FFFFFF
FFFFFF
FC003F
FC003F
FC003F
E07E07
E07E07
E07E07
FFFE07
FFFE07
FFFE07
FFF03F
FFF03F
FFF03F
FF81FF
FF81FF
FF81FF
FFFFFF
FFFFFF
FFFFFF
FF81FF
FF81FF
FF81FF
FF81FF
FF81FF
FF81FF
FFFFFF
FFFFFF
FFFFFF
ENDCHAR
STARTCHAR U+0020
ENCODING 32
SWIDTH 2880 0
DWIDTH 24 0
BBX 0 0 0 0
BITMAP
ENDCHAR
STARTCHAR U+0021
ENCODING 33
SWIDTH 2880 0
DWIDTH 24 0
BBX 12 24 6 0
BITMAP
1F8000
1F8000
1F8000
FFF000
FFF000
FFF000
FFF000
FFF000
FFF000
1F8000
1F8000
1F8000
1F8000
1F8000
1F8000
000000
000000
000000
1F8000
1F8000
1F8000
1F8000
1F8000
1F8000
ENDCHAR
STARTCHAR U+0022
ENCODING 34
SWIDTH 2880 0
DWIDTH 24 0
BBX 15 9 6 15
BITMAP
FC7E00
FC7E00
FC7E00
FC7E00
FC7E00
FC7E00
FC7E00
FC7E00
FC7E00
ENDCHAR
STARTCHAR U+0023
ENCODING 35
SWIDTH 2880 0
DWIDTH 24 0
BBX 21 21 3 0
BITMAP
1F8FC0
1F8FC0
1F8FC0
1F8FC0
1F8FC0
1F8FC0
FFFFF8
FFFFF8
FFFFF8
1F8FC0
1F8FC0
1F8FC0
FFFFF8
FFFFF8
FFFFF8
1F8FC0
1F8FC0
1F8FC0
1F8FC0
1F8FC0
1F8FC0
ENDCHAR
STARTCHAR U+0024
ENCODING 36
SWIDTH 2880 0
DWIDTH 24 0
BBX 21 21 3 0
BITMAP
007000
007000
007000
1FFFC0
1FFFC0
1FFFC0
FC7000
FC7000
FC7000
1FFFC0
1FFFC0
1FFFC0
0071F8
0071F8
0071F8
1FFFC0
1FFFC0
1FFFC0
007000
007000
007000
ENDCHAR
STARTCHAR U+0025
ENCODING 37
SWIDTH 2880 0
DWIDTH 24 0
BBX 18 21 3 0
BITMAP
FC01C0
FC01C0
FC01C0
FC0FC0
FC0FC0
FC0FC0
007E00
007E00
007E00
03F000
03F000
03F000
1F8000
1F8000
1F8000
FC0FC0
FC0FC0
FC0FC0
E00FC0
E00FC0
E00FC0
ENDCHAR
STARTCHAR U+0026
ENCODING 38
SWIDTH 2880 0
DWIDTH 24 0
BBX 18 21 3 0
BITMAP
03FE00
03FE00
03FE00
1F8E00
1F8E00
1F8E00
1F8000
1F8000
1F8000
1F8FC0
1F8FC0
1F8FC0
FC7E00
FC7E00
FC7E00
FC7E00
FC7E00
FC7E00
1F8FC0
1F8FC0
1F8FC0
ENDCHAR
STARTCHAR U+0027
ENCODING 39
SWIDTH 2880 0
DWIDTH 24 0
BBX 6 9 9 15
BITMAP
FC0000
FC0000
FC0000
FC0000
FC0000
FC0000
FC0000
FC0000
FC0000
ENDCHAR
STARTCHAR U+0028
ENCODING 40
SWIDTH 2880 0
DWIDTH 24 0
BBX 12 27 6 -3
BITMAP
03F000
03F000
03F000
1F8000
1F8000
1F8000
1F8000
1F8000
1F8000
FC0000
FC0000
FC0000
FC0000
FC0000
FC0000
FC0000
FC0000
FC0000
1F8000
1F8000
1F8000
1F8000
1F8000
1F8000
03F000
03F000
03F000
ENDCHAR
STARTCHAR U+0029
ENCODING 41
SWIDTH 2880 0
DWIDTH 24 0
BBX 12 27 6 -3
BITMAP
FC0000
FC0000
FC0000
1F8000
1F8000
1F8000
1F8000
1F8000
1F8000
03F000
03F000
03F000
03F000
03F000
03F000
03F000
03F000
03F000
1F8000
1F8000
1F8000
1F8000
1F8000
1F8000
FC0000
FC0000
FC0000
ENDCHAR
STARTCHAR U+002A
ENCODING 42
SWIDTH 2880 0
DWIDTH 24 0
BBX 18 15 3 3
BITMAP
1C0E00
1C0E00
1C0E00
03F000
03F000
03F000
FFFFC0
FFFFC0
FFFFC0
03F000
03F000
03F000
1C0E00
1C0E00
1C0E00
ENDCHAR
STARTCHAR U+002B
ENCODING 43
SWIDTH 2880 0
DWIDTH 24 0
BBX 18 15 3 3
BITMAP
03F000
03F000
03F000
03F000
03F000
03F000
FFFFC0
FFFFC0
FFFFC0
03F000
03F000
03F000
03F000
03F000
03F000
ENDCHAR
STARTCHAR U+002C
ENCODING 44
SWIDTH 2880 0
DWIDTH 24 0
BBX 6 12 9 -6
BITMAP
FC0000
FC0000
FC0000
FC0000
FC0000
FC0000
1C0000
1C0000
1C0000
E00000
E00000
E00000
ENDCHAR
STARTCHAR U+002D
ENCODING 45
SWIDTH 2880 0
DWIDTH 24 0
BBX 12 3 6 9
BITMAP
FFF000
FFF000
FFF000
ENDCHAR
STARTCHAR U+002E
ENCODING 46
SWIDTH 2880 0
DWIDTH 24 0
BBX 6 6 9 0
BITMAP
FC0000
FC0000
FC0000
FC0000
FC0000
FC0000
ENDCHAR
STARTCHAR U+002F
ENCODING 47
SWIDTH 2880 0
DWIDTH 24 0
BBX 18 21 3 0
BITMAP
0001C0
0001C0
0001C0
000FC0
000FC0
000FC0
007E00
007E00
007E00
03F000
03F000
03F000
1F8000
1F8000
1F8000
FC0000
FC0000
FC0000
E00000
E00000
E00000
ENDCHAR
STARTCHAR U+0030
ENCODING 48
SWIDTH 2880 0
DWIDTH 24 0
BBX 18 21 3 0
BITMAP
1FFE00
1FFE00
1FFE00
FC0FC0
FC0FC0
FC0FC0
FC7FC0
FC7FC0
FC7FC0
FFFFC0
FFFFC0
FFFFC0
FF8FC0
FF8FC0
FF8FC0
FC0FC0
FC0FC0
FC0FC0
1FFE00
1FFE00
1FFE00
ENDCHAR
STARTCHAR U+0031
ENCODING 49
SWIDTH 2880 0
DWIDTH 24 0
BBX 18 21 3 0
BITMAP
007000
007000
007000
FFF000
FFF000
FFF000
03F000
03F000
03F000
03F000
03F000
03F000
03F000
03F000
03F000
03F000
03F000
03F000
FFFFC0
FFFFC0
FFFFC0
ENDCHAR
STARTCHAR U+0032
ENCODING 50
SWIDTH 2880 0
DWIDTH 24 0
BBX 18 21 3 0
BITMAP
1FFE00
1FFE00
1FFE00
FC0FC0
FC0FC0
FC0FC0
000FC0
000FC0
000FC0
007E00
007E00
007E00
03F000
03F000
03F000
1F81C0
1F81C0
1F81C0
FFFFC0
FFFFC0
FFFFC0
ENDCHAR
STARTCHAR U+0033
ENCODING 51
SWIDTH 2880 0
DWIDTH 24 0
BBX 18 21 3 0
BITMAP
1FFE00
1FFE00
1FFE00
FC0FC0
FC0FC0
FC0FC0
000FC0
000FC0
000FC0
03FE00
03FE00
03FE00
000FC0
000FC0
000FC0
FC0FC0
FC0FC0
FC0FC0
1FFE00
1FFE00
1FFE00
ENDCHAR
STARTCHAR U+0034
ENCODING 52
SWIDTH 2880 0
DWIDTH 24 0
BBX 18 21 3 0
BITMAP
000E00
000E00
000E00
007E00
007E00
007E00
03FE00
03FE00
03FE00
1C7E00
1C7E00
1C7E00
FFFFC0
FFFFC0
FFFFC0
007E00
007E00
007E00
007E00
007E00
007E00
ENDCHAR
STARTCHAR U+0035
ENCODING 53
SWIDTH 2880 0
DWIDTH 24 0
BBX 18 21 3 0
BITMAP
FFFFC0
FFFFC0
FFFFC0
FC0000
FC0000
FC0000
FFFE00
FFFE00
FFFE00
000FC0
000FC0
000FC0
000FC0
000FC0
000FC0
FC0FC0
FC0FC0
FC0FC0
1FFE00
1FFE00
1FFE00
ENDCHAR
STARTCHAR U+0036
ENCODING 54
SWIDTH 2880 0
DWIDTH 24 0
BBX 18 21 3 0
BITMAP
03FE00
03FE00
03FE00
1F8000
1F8000
1F8000
FC0000
FC0000
FC0000
FC7E00
FC7E00
FC7E00
FC0FC0
FC0FC0
FC0FC0
FC0FC0
FC0FC0
FC0FC0
1FFE00
1FFE00
1FFE00
ENDCHAR
STARTCHAR U+0037
ENCODING 55
SWIDTH 2880 0
DWIDTH 24 0
BBX 18 21 3 0
BITMAP
FFFFC0
FFFFC0
FFFFC0
E00FC0
E00FC0
E00FC0
007E00
007E00
007E00
007E00
007E00
007E00
03F000
03F000
03F000
03F000
03F000
03F000
03F000
03F000
03F000
ENDCHAR
STARTCHAR U+0038
ENCODING 56
SWIDTH 2880 0
DWIDTH 24 0
BBX 18 21 3 0
BITMAP
1FFE00
1FFE00
1FFE00
FC0FC0
FC0FC0
FC0FC0
FC0FC0
FC0FC0
FC0FC0
1FFE00
1FFE00
1FFE00
FC0FC0
FC0FC0
FC0FC0
FC0FC0
FC0FC0
FC0FC0
1FFE00
1FFE00
1FFE00
ENDCHAR
STARTCHAR U+0039
ENCODING 57
SWIDTH 2880 0
DWIDTH 24 0
BBX 18 21 3 0
BITMAP
1FFE00
1FFE00
1FFE00
FC0FC0
FC0FC0
FC0FC0
FC0FC0
FC0FC0
FC0FC0
1F8FC0
1F8FC0
1F8FC0
000FC0
000FC0
000FC0
007E00
007E00
007E00
1FF000
1FF000
1FF000
ENDCHAR
STARTCHAR U+003A
ENCODING 58
SWIDTH 2880 0
DWIDTH 24 0
BBX 6 18 9 0
BITMAP
FC0000
FC0000
FC0000
FC0000
FC0000
FC0000
000000
000000
000000
000000
000000
000000
FC0000
FC0000
FC0000
FC0000
FC0000
FC0000
ENDCHAR
STARTCHAR U+003B
ENCODING 59
SWIDTH 2880 0
DWIDTH 24 0
BBX 6 24 9 -6
BITMAP
FC0000
FC0000
FC0000
FC0000
FC0000
FC0000
000000
000000
000000
000000
000000
000000
FC0000
FC0000
FC0000
FC0000
FC0000
FC0000
1C0000
1C0000
1C0000
E00000
E00000
E00000
ENDCHAR
STARTCHAR U+003C
ENCODING 60
SWIDTH 2880 0
DWIDTH 24 0
BBX 15 21 3 0
BITMAP
007E00
007E00
007E00
03F000
03F000
03F000
1F8000
1F8000
1F8000
FC0000
FC0000
FC0000
1F8000
1F8000
1F8000
03F000
03F000
03F000
007E00
007E00
007E00
ENDCHAR
STARTCHAR U+003D
ENCODING 61
SWIDTH 2880 0
DWIDTH 24 0
BBX 18 12 3 3
BITMAP
FFFFC0
FFFFC0
FFFFC0
000000
000000
000000
000000
000000
000000
FFFFC0
FFFFC0
FFFFC0
ENDCHAR
STARTCHAR U+003E
ENCODING 62
SWIDTH 2880 0
DWIDTH 24 0
BBX 15 21 6 0
BITMAP
FC0000
FC0000
FC0000
1F8000
1F8000
1F8000
03F000
03F000
03F000
007E00
007E00
007E00
03F000
03F000
03F000
1F8000
1F8000
1F8000
FC0000
FC0000
FC0000
ENDCHAR
STARTCHAR U+003F
ENCODING 63
SWIDTH 2880 0
DWIDTH 24 0
BBX 18 24 3 0
BITMAP
1FFE00
1FFE00
1FFE00
FC0FC0
FC0FC0
FC0FC0
000FC0
000FC0
000FC0
007E00
007E00
007E00
03F000
03F000
03F000
000000
000000
000000
03F000
03F000
03F000
03F000
03F000
03F000
ENDCHAR
STARTCHAR U+0040
ENCODING 64
SWIDTH 2880 0
DWIDTH 24 0
BBX 18 21 3 0
BITMAP
1FFE00
1FFE00
1FFE00
FC0FC0
FC0FC0
FC0FC0
FC7FC0
FC7FC0
FC7FC0
FC7FC0
FC7FC0
FC7FC0
FC7FC0
FC7FC0
FC7FC0
FC0000
FC0000
FC0000
1FFE00
1FFE00
1FFE00
ENDCHAR
STARTCHAR U+0041
ENCODING 65
SWIDTH 2880 0
DWIDTH 24 0
BBX 18 21 3 0
BITMAP
007000
007000
007000
038E00
038E00
038E00
1C0FC0
1C0FC0
1C0FC0
FFFFC0
FFFFC0
FFFFC0
FC0FC0
FC0FC0
FC0FC0
FC0FC0
FC0FC0
FC0FC0
FC0FC0
FC0FC0
FC0FC0
ENDCHAR
STARTCHAR U+0042
ENCODING 66
SWIDTH 2880 0
DWIDTH 24 0
BBX 18 21 3 0
BITMAP
FFFE00
FFFE00
FFFE00
FC0FC0
FC0FC0
FC0FC0
FC0FC0
FC0FC0
FC0FC0
FC7E00
FC7E00
FC7E00
FC0FC0
FC0FC0
FC0FC0
FC0FC0
FC0FC0
FC0FC0
FC7E00
FC7E00
FC7E00
ENDCHAR
STARTCHAR U+0043
ENCODING 67
SWIDTH 2880 0
DWIDTH 24 0
BBX 18 21 3 0
BITMAP
1FFE00
1FFE00
1FFE00
FC0FC0
FC0FC0
FC0FC0
FC0000
FC0000
FC0000
FC0000
FC0000
FC0000
FC0000
FC0000
FC0000
FC0FC0
FC0FC0
FC0FC0
1FFE00
1FFE00
1FFE00
ENDCHAR
STARTCHAR U+0044
ENCODING 68
SWIDTH 2880 0
DWIDTH 24 0
BBX 18 21 3 0
BITMAP
FFF000
FFF000
FFF000
FC0E00
FC0E00
FC0E00
FC0FC0
FC0FC0
FC0FC0
FC0FC0
FC0FC0
FC0FC0
FC0FC0
FC0FC0
FC0FC0
FC0E00
FC0E00
FC0E00
FFF000
FFF000
FFF000
ENDCHAR
STARTCHAR U+0045
ENCODING 69
SWIDTH 2880 0
DWIDTH 24 0
BBX 18 21 3 0
BITMAP
FFFFC0
FFFFC0
FFFFC0
FC01C0
FC01C0
FC01C0
FC0000
FC0000
FC0000
FFF000
FFF000
FFF000
FC0000
FC0000
FC0000
FC01C0
FC01C0
FC01C0
FFFFC0
FFFFC0
FFFFC0
ENDCHAR
STARTCHAR U+0046
ENCODING 70
SWIDTH 2880 0
DWIDTH 24 0
BBX 18 21 3 0
BITMAP
FFFFC0
FFFFC0
FFFFC0
FC01C0
FC01C0
FC01C0
FC0000
FC0000
FC0000
FFF000
FFF000
FFF000
FC0000
FC0000
FC0000
FC0000
FC0000
FC0000
FC0000
FC0000
FC0000
ENDCHAR
STARTCHAR U+0047
ENCODING 71
SWIDTH 2880 0
DWIDTH 24 0
BBX 18 21 3 0
BITMAP
1FFE00
1FFE00
1FFE00
FC0FC0
FC0FC0
FC0FC0
FC0000
FC0000
FC0000
FC7FC0
FC7FC0
FC7FC0
FC0FC0
FC0FC0
FC0FC0
FC0FC0
FC0FC0
FC0FC0
1F8FC0
1F8FC0
1F8FC0
ENDCHAR
STARTCHAR U+0048
ENCODING 72
SWIDTH 2880 0
DWIDTH 24 0
BBX 18 21 3 0
BITMAP
FC0FC0
FC0FC0
FC0FC0
FC0FC0
FC0FC0
FC0FC0
FC0FC0
FC0FC0
FC0FC0
FFFFC0
FFFFC0
FFFFC0
FC0FC0
FC0FC0
FC0FC0
FC0FC0
FC0FC0
FC0FC0
FC0FC0
FC0FC0
FC0FC0
ENDCHAR
STARTCHAR U+0049
ENCODING 73
SWIDTH 2880 0
DWIDTH 24 0
BBX 18 21 3 0
BITMAP
FFFFC0
FFFFC0
FFFFC0
03F000
03F000
03F000
03F000
03F000
03F000
03F000
03F000
03F000
03F000
03F000
03F000
03F000
03F000
03F000
FFFFC0
FFFFC0
FFFFC0
ENDCHAR
STARTCHAR U+004A
ENCODING 74
SWIDTH 2880 0
DWIDTH 24 0
BBX 18 24 3 -3
BITMAP
1FFFC0
1FFFC0
1FFFC0
007E00
007E00
007E00
007E00
007E00
007E00
007E00
007E00
007E00
007E00
007E00
007E00
007E00
007E00
007E00
FC7E00
FC7E00
FC7E00
1FF000
1FF000
1FF000
ENDCHAR
STARTCHAR U+004B
ENCODING 75
SWIDTH 2880 0
DWIDTH 24 0
BBX 18 21 3 0
BITMAP
FC0FC0
FC0FC0
FC0FC0
FC0FC0
FC0FC0
FC0FC0
FC0E00
FC0E00
FC0E00
FC7000
FC7000
FC7000
FF8E00
FF8E00
FF8E00
FC0FC0
FC0FC0
FC0FC0
FC0FC0
FC0FC0
FC0FC0
ENDCHAR
STARTCHAR U+004C
ENCODING 76
SWIDTH 2880 0
DWIDTH 24 0
BBX 18 21 3 0
BITMAP
FC0000
FC0000
FC0000
FC0000
FC0000
FC0000
FC0000
FC0000
FC0000
FC0000
FC0000
FC0000
FC0000
FC0000
FC0000
FC01C0
FC01C0
FC01C0
FFFFC0
FFFFC0
FFFFC0
ENDCHAR
STARTCHAR U+004D
ENCODING 77
SWIDTH 2880 0
DWIDTH 24 0
BBX 21 21 3 0
BITMAP
E00038
E00038
E00038
FC01F8
FC01F8
FC01F8
FF8FF8
FF8FF8
FF8FF8
FC71F8
FC71F8
FC71F8
FC01F8
FC01F8
FC01F8
FC01F8
FC01F8
FC01F8
FC01F8
FC01F8
FC01F8
ENDCHAR
STARTCHAR U+004E
ENCODING 78
SWIDTH 2880 0
DWIDTH 24 0
BBX 18 21 3 0
BITMAP
E00FC0
E00FC0
E00FC0
FC0FC0
FC0FC0
FC0FC0
FF8FC0
FF8FC0
FF8FC0
FC7FC0
FC7FC0
FC7FC0
FC0FC0
FC0FC0
FC0FC0
FC0FC0
FC0FC0
FC0FC0
FC0FC0
FC0FC0
FC0FC0
ENDCHAR
STARTCHAR U+004F
ENCODING 79
SWIDTH 2880 0
DWIDTH 24 0
BBX 18 21 3 0
BITMAP
1FFE00
1FFE00
1FFE00
FC0FC0
FC0FC0
FC0FC0
FC0FC0
FC0FC0
FC0FC0
FC0FC0
FC0FC0
FC0FC0
FC0FC0
FC0FC0
FC0FC0
FC0FC0
FC0FC0
FC0FC0
1FFE00
1FFE00
1FFE00
ENDCHAR
STARTCHAR U+0050
ENCODING 80
SWIDTH 2880 0
DWIDTH 24 0
BBX 18 21 3 0
BITMAP
FFFE00
FFFE00
FFFE00
FC0FC0
FC0FC0
FC0FC0
FC0FC0
FC0FC0
FC0FC0
FC7E00
FC7E00
FC7E00
FC0000
FC0000
FC0000
FC0000
FC0000
FC0000
FC0000
FC0000
FC0000
ENDCHAR
STARTCHAR U+0051
ENCODING 81
SWIDTH 2880 0
DWIDTH 24 0
BBX 18 24 3 -3
BITMAP
1FFE00
1FFE00
1FFE00
FC0FC0
FC0FC0
FC0FC0
FC0FC0
FC0FC0
FC0FC0
FC0FC0
FC0FC0
FC0FC0
FC0FC0
FC0FC0
FC0FC0
FC0E00
FC0E00
FC0E00
1FF000
1FF000
1FF000
000FC0
000FC0
000FC0
ENDCHAR
STARTCHAR U+0052
ENCODING 82
SWIDTH 2880 0
DWIDTH 24 0
BBX 18 21 3 0
BITMAP
FFFE00
FFFE00
FFFE00
FC0FC0
FC0FC0
FC0FC0
FC0FC0
FC0FC0
FC0FC0
FC7E00
FC7E00
FC7E00
FC0E00
FC0E00
FC0E00
FC0FC0
FC0FC0
FC0FC0
FC0FC0
FC0FC0
FC0FC0
ENDCHAR
STARTCHAR U+0053
ENCODING 83
SWIDTH 2880 0
DWIDTH 24 0
BBX 18 21 3 0
BITMAP
1FFE00
1FFE00
1FFE00
FC0FC0
FC0FC0
FC0FC0
FC0000
FC0000
FC0000
1FFE00
1FFE00
1FFE00
000FC0
000FC0
000FC0
FC0FC0
FC0FC0
FC0FC0
1FFE00
1FFE00
1FFE00
ENDCHAR
STARTCHAR U+0054
ENCODING 84
SWIDTH 2880 0
DWIDTH 24 0
BBX 18 21 3 0
BITMAP
FFFFC0
FFFFC0
FFFFC0
03F000
03F000
03F000
03F000
03F000
03F000
03F000
03F000
03F000
03F000
03F000
03F000
03F000
03F000
03F000
03F000
03F000
03F000
ENDCHAR
STARTCHAR U+0055
ENCODING 85
SWIDTH 2880 0
DWIDTH 24 0
BBX 18 21 3 0
BITMAP
FC0FC0
FC0FC0
FC0FC0
FC0FC0
FC0FC0
FC0FC0
FC0FC0
FC0FC0
FC0FC0
FC0FC0
FC0FC0
FC0FC0
FC0FC0
FC0FC0
FC0FC0
FC0FC0
FC0FC0
FC0FC0
1FFE00
1FFE00
1FFE00
ENDCHAR
STARTCHAR U+0056
ENCODING 86
SWIDTH 2880 0
DWIDTH 24 0
BBX 18 21 3 0
BITMAP
FC0FC0
FC0FC0
FC0FC0
FC0FC0
FC0FC0
FC0FC0
FC0FC0
FC0FC0
FC0FC0
FC0FC0
FC0FC0
FC0FC0
FC0E00
FC0E00
FC0E00
1C7000
1C7000
1C7000
038000
038000
038000
ENDCHAR
STARTCHAR U+0057
ENCODING 87
SWIDTH 2880 0
DWIDTH 24 0
BBX 21 21 3 0
BITMAP
FC01F8
FC01F8
FC01F8
FC01F8
FC01F8
FC01F8
FC71F8
FC71F8
FC71F8
FC71F8
FC71F8
FC71F8
FC71F8
FC71F8
FC71F8
FC71F8
FC71F8
FC71F8
1F8FC0
1F8FC0
1F8FC0
ENDCHAR
STARTCHAR U+0058
ENCODING 88
SWIDTH 2880 0
DWIDTH 24 0
BBX 18 21 3 0
BITMAP
FC0FC0
FC0FC0
FC0FC0
FC0FC0
FC0FC0
FC0FC0
1C0E00
1C0E00
1C0E00
03F000
03F000
03F000
1C0E00
1C0E00
1C0E00
FC0FC0
FC0FC0
FC0FC0
FC0FC0
FC0FC0
FC0FC0
ENDCHAR
STARTCHAR U+0059
ENCODING 89
SWIDTH 2880 0
DWIDTH 24 0
BBX 18 21 3 0
BITMAP
FC0FC0
FC0FC0
FC0FC0
FC0FC0
FC0FC0
FC0FC0
1C0E00
1C0E00
1C0E00
03F000
03F000
03F000
03F000
03F000
03F000
03F000
03F000
03F000
03F000
03F000
03F000
ENDCHAR
STARTCHAR U+005A
ENCODING 90
SWIDTH 2880 0
DWIDTH 24 0
BBX 18 21 3 0
BITMAP
FFFFC0
FFFFC0
FFFFC0
E00FC0
E00FC0
E00FC0
007E00
007E00
007E00
03F000
03F000
03F000
1F8000
1F8000
1F8000
FC01C0
FC01C0
FC01C0
FFFFC0
FFFFC0
FFFFC0
ENDCHAR
STARTCHAR U+005B
ENCODING 91
SWIDTH 2880 0
DWIDTH 24 0
BBX 12 27 6 -3
BITMAP
FFF000
FFF000
FFF000
FC0000
FC0000
FC0000
FC0000
FC0000
FC0000
FC0000
FC0000
FC0000
FC0000
FC0000
FC0000
FC0000
FC0000
FC0000
FC0000
FC0000
FC0000
FC0000
FC0000
FC0000
FFF000
FFF000
FFF000
ENDCHAR
STARTCHAR U+005C
ENCODING 92
SWIDTH 2880 0
DWIDTH 24 0
BBX 18 21 3 0
BITMAP
E00000
E00000
E00000
FC0000
FC0000
FC0000
1F8000
1F8000
1F8000
03F000
03F000
03F000
007E00
007E00
007E00
000FC0
000FC0
000FC0
0001C0
0001C0
0001C0
ENDCHAR
STARTCHAR U+005D
ENCODING 93
SWIDTH 2880 0
DWIDTH 24 0
BBX 12 27 6 -3
BITMAP
FFF000
FFF000
FFF000
03F000
03F000
03F000
03F000
03F000
03F000
03F000
03F000
03F000
03F000
03F000
03F000
03F000
03F000
03F000
03F000
03F000
03F000
03F000
03F000
03F000
FFF000
FFF000
FFF000
ENDCHAR
STARTCHAR U+005E
ENCODING 94
SWIDTH 2880 0
DWIDTH 24 0
BBX 21 12 3 12
BITMAP
007000
007000
007000
03FE00
03FE00
03FE00
1F8FC0
1F8FC0
1F8FC0
FC01F8
FC01F8
FC01F8
ENDCHAR
STARTCHAR U+005F
ENCODING 95
SWIDTH 2880 0
DWIDTH 24 0
BBX 18 3 3 -3
BITMAP
FFFFC0
FFFFC0
FFFFC0
ENDCHAR
STARTCHAR U+0060
ENCODING 96
SWIDTH 2880 0
DWIDTH 24 0
BBX 12 9 6 15
BITMAP
FC0000
FC0000
FC0000
1F8000
1F8000
1F8000
03F000
03F000
03F000
ENDCHAR
STARTCHAR U+0061
ENCODING 97
SWIDTH 2880 0
DWIDTH 24 0
BBX 18 15 3 0
BITMAP
1FFE00
1FFE00
1FFE00
000FC0
000FC0
000FC0
1FFFC0
1FFFC0
1FFFC0
FC0FC0
FC0FC0
FC0FC0
1F8FC0
1F8FC0
1F8FC0
ENDCHAR
STARTCHAR U+0062
ENCODING 98
SWIDTH 2880 0
DWIDTH 24 0
BBX 18 21 3 0
BITMAP
FC0000
FC0000
FC0000
FC0000
FC0000
FC0000
FC7E00
FC7E00
FC7E00
FF8FC0
FF8FC0
FF8FC0
FC0FC0
FC0FC0
FC0FC0
FC0FC0
FC0FC0
FC0FC0
FC7E00
FC7E00
FC7E00
ENDCHAR
STARTCHAR U+0063
ENCODING 99
SWIDTH 2880 0
DWIDTH 24 0
BBX 18 15 3 0
BITMAP
1FFE00
1FFE00
1FFE00
FC0E00
FC0E00
FC0E00
FC0000
FC0000
FC0000
FC0FC0
FC0FC0
FC0FC0
1FFE00
1FFE00
1FFE00
ENDCHAR
STARTCHAR U+0064
ENCODING 100
SWIDTH 2880 0
DWIDTH 24 0
BBX 18 21 3 0
BITMAP
000FC0
000FC0
000FC0
000FC0
000FC0
000FC0
1F8FC0
1F8FC0
1F8FC0
FC7FC0
FC7FC0
FC7FC0
FC0FC0
FC0FC0
FC0FC0
FC0FC0
FC0FC0
FC0FC0
1F8FC0
1F8FC0
1F8FC0
ENDCHAR
STARTCHAR U+0065
ENCODING 101
SWIDTH 2880 0
DWIDTH 24 0
BBX 18 15 3 0
BITMAP
1FFE00
1FFE00
1FFE00
FC0FC0
FC0FC0
FC0FC0
FFFFC0
FFFFC0
FFFFC0
FC0000
FC0000
FC0000
1FFE00
1FFE00
1FFE00
ENDCHAR
STARTCHAR U+0066
ENCODING 102
SWIDTH 2880 0
DWIDTH 24 0
BBX 18 21 3 0
BITMAP
007FC0
007FC0
007FC0
03F000
03F000
03F000
FFFFC0
FFFFC0
FFFFC0
03F000
03F000
03F000
03F000
03F000
03F000
03F000
03F000
03F000
03F000
03F000
03F000
ENDCHAR
STARTCHAR U+0067
ENCODING 103
SWIDTH 2880 0
DWIDTH 24 0
BBX 18 24 3 -6
BITMAP
000FC0
000FC0
000FC0
1FFE00
1FFE00
1FFE00
FC0FC0
FC0FC0
FC0FC0
1FFE00
1FFE00
1FFE00
FC0000
FC0000
FC0000
1FFE00
1FFE00
1FFE00
000FC0
000FC0
000FC0
03FE00
03FE00
03FE00
ENDCHAR
STARTCHAR U+0068
ENCODING 104
SWIDTH 2880 0
DWIDTH 24 0
BBX 18 21 3 0
BITMAP
FC0000
FC0000
FC0000
FC0000
FC0000
FC0000
FC7E00
FC7E00
FC7E00
FF8FC0
FF8FC0
FF8FC0
FC0FC0
FC0FC0
FC0FC0
FC0FC0
FC0FC0
FC0FC0
FC0FC0
FC0FC0
FC0FC0
ENDCHAR
STARTCHAR U+0069
ENCODING 105
SWIDTH 2880 0
DWIDTH 24 0
BBX 18 24 3 0
BITMAP
03F000
03F000
03F000
03F000
03F000
03F000
000000
000000
000000
FFF000
FFF000
FFF000
03F000
03F000
03F000
03F000
03F000
03F000
03F000
03F000
03F000
007FC0
007FC0
007FC0
ENDCHAR
STARTCHAR U+006A
ENCODING 106
SWIDTH 2880 0
DWIDTH 24 0
BBX 15 30 3 -6
BITMAP
007E00
007E00
007E00
007E00
007E00
007E00
000000
000000
000000
1FFE00
1FFE00
1FFE00
007E00
007E00
007E00
007E00
007E00
007E00
007E00
007E00
007E00
007E00
007E00
007E00
FC7E00
FC7E00
FC7E00
1FF000
1FF000
1FF000
ENDCHAR
STARTCHAR U+006B
ENCODING 107
SWIDTH 2880 0
DWIDTH 24 0
BBX 18 21 3 0
BITMAP
FC0000
FC0000
FC0000
FC0000
FC0000
FC0000
FC0FC0
FC0FC0
FC0FC0
FC0FC0
FC0FC0
FC0FC0
FC7E00
FC7E00
FC7E00
FF8FC0
FF8FC0
FF8FC0
FC0FC0
FC0FC0
FC0FC0
ENDCHAR
STARTCHAR U+006C
ENCODING 108
SWIDTH 2880 0
DWIDTH 24 0
BBX 18 21 3 0
BITMAP
FFF000
FFF000
FFF000
03F000
03F000
03F000
03F000
03F000
03F000
03F000
03F000
03F000
03F000
03F000
03F000
03F000
03F000
03F000
007FC0
007FC0
007FC0
ENDCHAR
STARTCHAR U+006D
ENCODING 109
SWIDTH 2880 0
DWIDTH 24 0
BBX 18 15 3 0
BITMAP
FF8E00
FF8E00
FF8E00
FC71C0
FC71C0
FC71C0
FC71C0
FC71C0
FC71C0
FC71C0
FC71C0
FC71C0
FC71C0
FC71C0
FC71C0
ENDCHAR
STARTCHAR U+006E
ENCODING 110
SWIDTH 2880 0
DWIDTH 24 0
BBX 18 15 3 0
BITMAP
FC7E00
FC7E00
FC7E00
FF8FC0
FF8FC0
FF8FC0
FC0FC0
FC0FC0
FC0FC0
FC0FC0
FC0FC0
FC0FC0
FC0FC0
FC0FC0
FC0FC0
ENDCHAR
STARTCHAR U+006F
ENCODING 111
SWIDTH 2880 0
DWIDTH 24 0
BBX 18 15 3 0
BITMAP
1FFE00
1FFE00
1FFE00
FC0FC0
FC0FC0
FC0FC0
FC0FC0
FC0FC0
FC0FC0
FC0FC0
FC0FC0
FC0FC0
1FFE00
1FFE00
1FFE00
ENDCHAR
STARTCHAR U+0070
ENCODING 112
SWIDTH 2880 0
DWIDTH 24 0
BBX 18 21 3 -6
BITMAP
FC7E00
FC7E00
FC7E00
FF8FC0
FF8FC0
FF8FC0
FC0FC0
FC0FC0
FC0FC0
FC0FC0
FC0FC0
FC0FC0
FC7E00
FC7E00
FC7E00
FC0000
FC0000
FC0000
FC0000
FC0000
FC0000
ENDCHAR
STARTCHAR U+0071
ENCODING 113
SWIDTH 2880 0
DWIDTH 24 0
BBX 18 21 3 -6
BITMAP
1F8FC0
1F8FC0
1F8FC0
FC7FC0
FC7FC0
FC7FC0
FC0FC0
FC0FC0
FC0FC0
FC0FC0
FC0FC0
FC0FC0
1F8FC0
1F8FC0
1F8FC0
000FC0
000FC0
000FC0
000FC0
000FC0
000FC0
ENDCHAR
STARTCHAR U+0072
ENCODING 114
SWIDTH 2880 0
DWIDTH 24 0
BBX 18 15 3 0
BITMAP
FF8FC0
FF8FC0
FF8FC0
1FF000
1FF000
1FF000
1F8000
1F8000
1F8000
1F8000
1F8000
1F8000
1F8000
1F8000
1F8000
ENDCHAR
STARTCHAR U+0073
ENCODING 115
SWIDTH 2880 0
DWIDTH 24 0
BBX 18 15 3 0
BITMAP
1FFE00
1FFE00
1FFE00
FC0000
FC0000
FC0000
1FFE00
1FFE00
1FFE00
000FC0
000FC0
000FC0
1FFE00
1FFE00
1FFE00
ENDCHAR
STARTCHAR U+0074
ENCODING 116
SWIDTH 2880 0
DWIDTH 24 0
BBX 18 21 3 0
BITMAP
03F000
03F000
03F000
03F000
03F000
03F000
FFFFC0
FFFFC0
FFFFC0
03F000
03F000
03F000
03F000
03F000
03F000
03F000
03F000
03F000
007FC0
007FC0
007FC0
ENDCHAR
STARTCHAR U+0075
ENCODING 117
SWIDTH 2880 0
DWIDTH 24 0
BBX 18 15 3 0
BITMAP
FC0FC0
FC0FC0
FC0FC0
FC0FC0
FC0FC0
FC0FC0
FC0FC0
FC0FC0
FC0FC0
FC7FC0
FC7FC0
FC7FC0
1F8FC0
1F8FC0
1F8FC0
ENDCHAR
STARTCHAR U+0076
ENCODING 118
SWIDTH 2880 0
DWIDTH 24 0
BBX 18 15 3 0
BITMAP
FC0FC0
FC0FC0
FC0FC0
FC0FC0
FC0FC0
FC0FC0
FC0E00
FC0E00
FC0E00
1C7000
1C7000
1C7000
038000
038000
038000
ENDCHAR
STARTCHAR U+0077
ENCODING 119
SWIDTH 2880 0
DWIDTH 24 0
BBX 18 15 3 0
BITMAP
FC71C0
FC71C0
FC71C0
FC71C0
FC71C0
FC71C0
FC71C0
FC71C0
FC71C0
FC71C0
FC71C0
FC71C0
1F8E00
1F8E00
1F8E00
ENDCHAR
STARTCHAR U+0078
ENCODING 120
SWIDTH 2880 0
DWIDTH 24 0
BBX 18 15 3 0
BITMAP
FC0FC0
FC0FC0
FC0FC0
FC0FC0
FC0FC0
FC0FC0
1FFE00
1FFE00
1FFE00
FC0FC0
FC0FC0
FC0FC0
FC0FC0
FC0FC0
FC0FC0
ENDCHAR
STARTCHAR U+0079
ENCODING 121
SWIDTH 2880 0
DWIDTH 24 0
BBX 18 21 3 -6
BITMAP
FC0FC0
FC0FC0
FC0FC0
FC0FC0
FC0FC0
FC0FC0
FC0FC0
FC0FC0
FC0FC0
FC7FC0
FC7FC0
FC7FC0
1F8FC0
1F8FC0
1F8FC0
000FC0
000FC0
000FC0
1FFE00
1FFE00
1FFE00
ENDCHAR
STARTCHAR U+007A
ENCODING 122
SWIDTH 2880 0
DWIDTH 24 0
BBX 18 15 3 0
BITMAP
FFFFC0
FFFFC0
FFFFC0
E07E00
E07E00
E07E00
03F000
03F000
03F000
1F81C0
1F81C0
1F81C0
FFFFC0
FFFFC0
FFFFC0
ENDCHAR
STARTCHAR U+007B
ENCODING 123
SWIDTH 2880 0
DWIDTH 24 0
BBX 18 27 3 -3
BITMAP
007FC0
007FC0
007FC0
03F000
03F000
03F000
03F000
03F000
03F000
03F000
03F000
03F000
FF8000
FF8000
FF8000
03F000
03F000
03F000
03F000
03F000
03F000
03F000
03F000
03F000
007FC0
007FC0
007FC0
ENDCHAR
STARTCHAR U+007C
ENCODING 124
SWIDTH 2880 0
DWIDTH 24 0
BBX 6 27 9 -3
BITMAP
FC0000
FC0000
FC0000
FC0000
FC0000
FC0000
FC0000
FC0000
FC0000
FC0000
FC0000
FC0000
FC0000
FC0000
FC0000
FC0000
FC0000
FC0000
FC0000
FC0000
FC0000
FC0000
FC0000
FC0000
FC0000
FC0000
FC0000
ENDCHAR
STARTCHAR U+007D
ENCODING 125
SWIDTH 2880 0
DWIDTH 24 0
BBX 18 27 3 -3
BITMAP
FF8000
FF8000
FF8000
03F000
03F000
03F000
03F000
03F000
03F000
03F000
03F000
03F000
007FC0
007FC0
007FC0
03F000
03F000
03F000
03F000
03F000
03F000
03F000
03F000
03F000
FF8000
FF8000
FF8000
ENDCHAR
STARTCHAR U+007E
ENCODING 126
SWIDTH 2880 0
DWIDTH 24 0
BBX 21 9 3 6
BITMAP
1F81F8
1F81F8
1F81F8
FC71F8
FC71F8
FC71F8
FC0FC0
FC0FC0
FC0FC0
ENDCHAR
STARTCHAR U+00A0
ENCODING 160
SWIDTH 2880 0
DWIDTH 24 0
BBX 0 0 0 0
BITMAP
ENDCHAR
STARTCHAR U+00A1
ENCODING 161
SWIDTH 2880 0
DWIDTH 24 0
BBX 12 24 6 -3
BITMAP
1F8000
1F8000
1F8000
1F8000
1F8000
1F8000
000000
000000
000000
1F8000
1F8000
1F8000
1F8000
1F8000
1F8000
FFF000
FFF000
FFF000
FFF000
FFF000
FFF000
1F8000
1F8000
1F8000
ENDCHAR
STARTCHAR U+00A2
ENCODING 162
SWIDTH 2880 0
DWIDTH 24 0
BBX 21 21 3 0
BITMAP
007000
007000
007000
1FFFC0
1FFFC0
1FFFC0
FC71F8
FC71F8
FC71F8
FC7000
FC7000
FC7000
FC71F8
FC71F8
FC71F8
1FFFC0
1FFFC0
1FFFC0
007000
007000
007000
ENDCHAR
STARTCHAR U+00A3
ENCODING 163
SWIDTH 2880 0
DWIDTH 24 0
BBX 18 21 3 0
BITMAP
03FE00
03FE00
03FE00
1F8FC0
1F8FC0
1F8FC0
1F8000
1F8000
1F8000
FFF000
FFF000
FFF000
1F8000
1F8000
1F8000
1F81C0
1F81C0
1F81C0
FC7FC0
FC7FC0
FC7FC0
ENDCHAR
STARTCHAR U+00A4
ENCODING 164
SWIDTH 2880 0
DWIDTH 24 0
BBX 18 18 3 0
BITMAP
FC0FC0
FC0FC0
FC0FC0
1FFE00
1FFE00
1FFE00
FC0FC0
FC0FC0
FC0FC0
FC0FC0
FC0FC0
FC0FC0
1FFE00
1FFE00
1FFE00
FC0FC0
FC0FC0
FC0FC0
ENDCHAR
STARTCHAR U+00A5
ENCODING 165
SWIDTH 2880 0
DWIDTH 24 0
BBX 18 21 3 0
BITMAP
FC0FC0
FC0FC0
FC0FC0
1FFE00
1FFE00
1FFE00
03F000
03F000
03F000
FFFFC0
FFFFC0
FFFFC0
03F000
03F000
03F000
FFFFC0
FFFFC0
FFFFC0
03F000
03F000
03F000
ENDCHAR
STARTCHAR U+00A6
ENCODING 166
SWIDTH 2880 0
DWIDTH 24 0
BBX 6 27 9 -3
BITMAP
FC0000
FC0000
FC0000
FC0000
FC0000
FC0000
FC0000
FC0000
FC0000
FC0000
FC0000
FC0000
000000
000000
000000
FC0000
FC0000
FC0000
FC0000
FC0000
FC0000
FC0000
FC0000
FC0000
FC0000
FC0000
FC0000
ENDCHAR
STARTCHAR U+00A7
ENCODING 167
SWIDTH 2880 0
DWIDTH 24 0
BBX 18 21 3 0
BITMAP
1FFE00
1FFE00
1FFE00
FC0000
FC0000
FC0000
1FFE00
1FFE00
1FFE00
FC0FC0
FC0FC0
FC0FC0
1FFE00
1FFE00
1FFE00
000FC0
000FC0
000FC0
1FFE00
1FFE00
1FFE00
ENDCHAR
STARTCHAR U+00A8
ENCODING 168
SWIDTH 2880 0
DWIDTH 24 0
BBX 18 6 3 24
BITMAP
FC0FC0
FC0FC0
FC0FC0
FC0FC0
FC0FC0
FC0FC0
ENDCHAR
STARTCHAR U+00A9
ENCODING 169
SWIDTH 2880 0
DWIDTH 24 0
BBX 24 24 0 0
BITMAP
03FFC0
03FFC0
03FFC0
1C0038
1C0038
1C0038
E07E07
E07E07
E07E07
E38007
E38007
E38007
E381C7
E381C7
E381C7
E07E07
E07E07
E07E07
1C0038
1C0038
1C0038
03FFC0
03FFC0
03FFC0
ENDCHAR
STARTCHAR U+00AA
ENCODING 170
SWIDTH 2880 0
DWIDTH 24 0
BBX 15 18 3 6
BITMAP
1FFE00
1FFE00
1FFE00
FC7E00
FC7E00
FC7E00
FC7E00
FC7E00
FC7E00
1F8E00
1F8E00
1F8E00
000000
000000
000000
FFFE00
FFFE00
FFFE00
ENDCHAR
STARTCHAR U+00AB
ENCODING 171
SWIDTH 2880 0
DWIDTH 24 0
BBX 18 15 3 3
BITMAP
0381C0
0381C0
0381C0
1F8FC0
1F8FC0
1F8FC0
FC7E00
FC7E00
FC7E00
1F8FC0
1F8FC0
1F8FC0
0381C0
0381C0
0381C0
ENDCHAR
STARTCHAR U+00AC
ENCODING 172
SWIDTH 2880 0
DWIDTH 24 0
BBX 18 9 3 3
BITMAP
FFFFC0
FFFFC0
FFFFC0
000FC0
000FC0
000FC0
000FC0
000FC0
000FC0
ENDCHAR
STARTCHAR U+00AD
ENCODING 173
SWIDTH 2880 0
DWIDTH 24 0
BBX 12 3 6 9
BITMAP
FFF000
FFF000
FFF000
ENDCHAR
STARTCHAR U+00AE
ENCODING 174
SWIDTH 2880 0
DWIDTH 24 0
BBX 24 24 0 0
BITMAP
03FFC0
03FFC0
03FFC0
1C0038
1C0038
1C0038
E3FE07
E3FE07
E3FE07
E381C7
E381C7
E381C7
E3FE07
E3FE07
E3FE07
E381C7
E381C7
E381C7
1C0038
1C0038
1C0038
03FFC0
03FFC0
03FFC0
ENDCHAR
STARTCHAR U+00AF
ENCODING 175
SWIDTH 2880 0
DWIDTH 24 0
BBX 18 3 3 18
BITMAP
FFFFC0
FFFFC0
FFFFC0
ENDCHAR
STARTCHAR U+00B0
ENCODING 176
SWIDTH 2880 0
DWIDTH 24 0
BBX 15 12 3 12
BITMAP
1FF000
1FF000
1FF000
FC7E00
FC7E00
FC7E00
FC7E00
FC7E00
FC7E00
1FF000
1FF000
1FF000
ENDCHAR
STARTCHAR U+00B1
ENCODING 177
SWIDTH 2880 0
DWIDTH 24 0
BBX 18 21 3 0
BITMAP
03F000
03F000
03F000
03F000
03F000
03F000
FFFFC0
FFFFC0
FFFFC0
03F000
03F000
03F000
03F000
03F000
03F000
000000
000000
000000
FFFFC0
FFFFC0
FFFFC0
ENDCHAR
STARTCHAR U+00B2
ENCODING 178
SWIDTH 2880 0
DWIDTH 24 0
BBX 12 15 6 12
BITMAP
FF8000
FF8000
FF8000
E3F000
E3F000
E3F000
03F000
03F000
03F000
1F8000
1F8000
1F8000
FFF000
FFF000
FFF000
ENDCHAR
STARTCHAR U+00B3
ENCODING 179
SWIDTH 2880 0
DWIDTH 24 0
BBX 12 15 6 12
BITMAP
FF8000
FF8000
FF8000
03F000
03F000
03F000
1F8000
1F8000
1F8000
03F000
03F000
03F000
FF8000
FF8000
FF8000
ENDCHAR
STARTCHAR U+00B4
ENCODING 180
SWIDTH 2880 0
DWIDTH 24 0
BBX 12 9 6 15
BITMAP
03F000
03F000
03F000
1F8000
1F8000
1F8000
FC0000
FC0000
FC0000
ENDCHAR
STARTCHAR U+00B5
ENCODING 181
SWIDTH 2880 0
DWIDTH 24 0
BBX 21 18 3 -3
BITMAP
FC0FC0
FC0FC0
FC0FC0
FC0FC0
FC0FC0
FC0FC0
FC0FC0
FC0FC0
FC0FC0
FC0FC0
FC0FC0
FC0FC0
FFF1F8
FFF1F8
FFF1F8
FC0000
FC0000
FC0000
ENDCHAR
STARTCHAR U+00B6
ENCODING 182
SWIDTH 2880 0
DWIDTH 24 0
BBX 21 27 3 -6
BITMAP
1FFFF8
1FFFF8
1FFFF8
FF8FC0
FF8FC0
FF8FC0
FF8FC0
FF8FC0
FF8FC0
1F8FC0
1F8FC0
1F8FC0
000FC0
000FC0
000FC0
000FC0
000FC0
000FC0
000FC0
000FC0
000FC0
000FC0
000FC0
000FC0
007E00
007E00
007E00
ENDCHAR
STARTCHAR U+00B7
ENCODING 183
SWIDTH 2880 0
DWIDTH 24 0
BBX 6 6 9 6
BITMAP
FC0000
FC0000
FC0000
FC0000
FC0000
FC0000
ENDCHAR
STARTCHAR U+00B8
ENCODING 184
SWIDTH 2880 0
DWIDTH 24 0
BBX 12 9 6 -3
BITMAP
1F8000
1F8000
1F8000
03F000
03F000
03F000
FF8000
FF8000
FF8000
ENDCHAR
STARTCHAR U+00B9
ENCODING 185
SWIDTH 2880 0
DWIDTH 24 0
BBX 12 15 6 12
BITMAP
038000
038000
038000
FF8000
FF8000
FF8000
1F8000
1F8000
1F8000
1F8000
1F8000
1F8000
FFF000
FFF000
FFF000
ENDCHAR
STARTCHAR U+00BA
ENCODING 186
SWIDTH 2880 0
DWIDTH 24 0
BBX 15 18 3 6
BITMAP
1FF000
1FF000
1FF000
FC7E00
FC7E00
FC7E00
FC7E00
FC7E00
FC7E00
1FF000
1FF000
1FF000
000000
000000
000000
FFFE00
FFFE00
FFFE00
ENDCHAR
STARTCHAR U+00BB
ENCODING 187
SWIDTH 2880 0
DWIDTH 24 0
BBX 18 15 3 3
BITMAP
E07000
E07000
E07000
FC7E00
FC7E00
FC7E00
1F8FC0
1F8FC0
1F8FC0
FC7E00
FC7E00
FC7E00
E07000
E07000
E07000
ENDCHAR
STARTCHAR U+00BC
ENCODING 188
SWIDTH 2880 0
DWIDTH 24 0
BBX 18 33 3 -6
BITMAP
038000
038000
038000
FF8000
FF8000
FF8000
1F8000
1F8000
1F8000
1F8000
1F8000
1F8000
FFF000
FFF000
FFF000
000000
000000
000000
000FC0
000FC0
000FC0
007FC0
007FC0
007FC0
03FFC0
03FFC0
03FFC0
000FC0
000FC0
000FC0
000FC0
000FC0
000FC0
ENDCHAR
STARTCHAR U+00BD
ENCODING 189
SWIDTH 2880 0
DWIDTH 24 0
BBX 18 33 3 -6
BITMAP
038000
038000
038000
FF8000
FF8000
FF8000
1F8000
1F8000
1F8000
1F8000
1F8000
1F8000
FFF000
FFF000
FFF000
000000
000000
000000
03FE00
03FE00
03FE00
038FC0
038FC0
038FC0
000FC0
000FC0
000FC0
007E00
007E00
007E00
03FFC0
03FFC0
03FFC0
ENDCHAR
STARTCHAR U+00BE
ENCODING 190
SWIDTH 2880 0
DWIDTH 24 0
BBX 18 33 3 -6
BITMAP
FF8000
FF8000
FF8000
03F000
03F000
03F000
1F8000
1F8000
1F8000
03F000
03F000
03F000
FF8000
FF8000
FF8000
000000
000000
000000
000FC0
000FC0
000FC0
007FC0
007FC0
007FC0
03FFC0
03FFC0
03FFC0
000FC0
000FC0
000FC0
000FC0
000FC0
000FC0
ENDCHAR
STARTCHAR U+00BF
ENCODING 191
SWIDTH 2880 0
DWIDTH 24 0
BBX 18 24 3 -3
BITMAP
03F000
03F000
03F000
03F000
03F000
03F000
000000
000000
000000
03F000
03F000
03F000
1F8000
1F8000
1F8000
FC0000
FC0000
FC0000
FC0FC0
FC0FC0
FC0FC0
1FFE00
1FFE00
1FFE00
ENDCHAR
STARTCHAR U+00C0
ENCODING 192
SWIDTH 2880 0
DWIDTH 24 0
BBX 18 30 3 0
BITMAP
1F8000
1F8000
1F8000
03F000
03F000
03F000
000000
000000
000000
007000
007000
007000
038E00
038E00
038E00
1C0FC0
1C0FC0
1C0FC0
FFFFC0
FFFFC0
FFFFC0
FC0FC0
FC0FC0
FC0FC0
FC0FC0
FC0FC0
FC0FC0
FC0FC0
FC0FC0
FC0FC0
ENDCHAR
STARTCHAR U+00C1
ENCODING 193
SWIDTH 2880 0
DWIDTH 24 0
BBX 18 30 3 0
BITMAP
007E00
007E00
007E00
03F000
03F000
03F000
000000
000000
000000
007000
007000
007000
038E00
038E00
038E00
1C0FC0
1C0FC0
1C0FC0
FFFFC0
FFFFC0
FFFFC0
FC0FC0
FC0FC0
FC0FC0
FC0FC0
FC0FC0
FC0FC0
FC0FC0
FC0FC0
FC0FC0
ENDCHAR
STARTCHAR U+00C2
ENCODING 194
SWIDTH 2880 0
DWIDTH 24 0
BBX 18 30 3 0
BITMAP
03FE00
03FE00
03FE00
1F8FC0
1F8FC0
1F8FC0
000000
000000
000000
007000
007000
007000
038E00
038E00
038E00
1C0FC0
1C0FC0
1C0FC0
FFFFC0
FFFFC0
FFFFC0
FC0FC0
FC0FC0
FC0FC0
FC0FC0
FC0FC0
FC0FC0
FC0FC0
FC0FC0
FC0FC0
ENDCHAR
STARTCHAR U+00C3
ENCODING 195
SWIDTH 2880 0
DWIDTH 24 0
BBX 21 30 3 0
BITMAP
1FF1F8
1FF1F8
1FF1F8
FC7FC0
FC7FC0
FC7FC0
000000
000000
000000
007000
007000
007000
038E00
038E00
038E00
1C0FC0
1C0FC0
1C0FC0
FFFFC0
FFFFC0
FFFFC0
FC0FC0
FC0FC0
FC0FC0
FC0FC0
FC0FC0
FC0FC0
FC0FC0
FC0FC0
FC0FC0
ENDCHAR
STARTCHAR U+00C4
ENCODING 196
SWIDTH 2880 0
DWIDTH 24 0
BBX 18 30 3 0
BITMAP
FC0FC0
FC0FC0
FC0FC0
FC0FC0
FC0FC0
FC0FC0
000000
000000
000000
007000
007000
007000
038E00
038E00
038E00
1C0FC0
1C0FC0
1C0FC0
FFFFC0
FFFFC0
FFFFC0
FC0FC0
FC0FC0
FC0FC0
FC0FC0
FC0FC0
FC0FC0
FC0FC0
FC0FC0
FC0FC0
ENDCHAR
STARTCHAR U+00C5
ENCODING 197
SWIDTH 2880 0
DWIDTH 24 0
BBX 18 30 3 0
BITMAP
03FE00
03FE00
03FE00
038E00
038E00
038E00
03FE00
03FE00
03FE00
007000
007000
007000
038E00
038E00
038E00
1C0FC0
1C0FC0
1C0FC0
FFFFC0
FFFFC0
FFFFC0
FC0FC0
FC0FC0
FC0FC0
FC0FC0
FC0FC0
FC0FC0
FC0FC0
FC0FC0
FC0FC0
ENDCHAR
STARTCHAR U+00C6
ENCODING 198
SWIDTH 2880 0
DWIDTH 24 0
BBX 21 21 3 0
BITMAP
03FFF8
03FFF8
03FFF8
1C7E00
1C7E00
1C7E00
FC7E00
FC7E00
FC7E00
FFFFC0
FFFFC0
FFFFC0
FC7E00
FC7E00
FC7E00
FC7E00
FC7E00
FC7E00
FC7FF8
FC7FF8
FC7FF8
ENDCHAR
STARTCHAR U+00C7
ENCODING 199
SWIDTH 2880 0
DWIDTH 24 0
BBX 18 27 3 -6
BITMAP
1FFE00
1FFE00
1FFE00
FC0FC0
FC0FC0
FC0FC0
FC0000
FC0000
FC0000
FC0000
FC0000
FC0000
FC0000
FC0000
FC0000
FC0FC0
FC0FC0
FC0FC0
1FFE00
1FFE00
1FFE00
007E00
007E00
007E00
03FE00
03FE00
03FE00
ENDCHAR
STARTCHAR U+00C8
ENCODING 200
SWIDTH 2880 0
DWIDTH 24 0
BBX 18 30 3 0
BITMAP
1F8000
1F8000
1F8000
03F000
03F000
03F000
000000
000000
000000
FFFFC0
FFFFC0
FFFFC0
FC01C0
FC01C0
FC01C0
FC0000
FC0000
FC0000
FFF000
FFF000
FFF000
FC0000
FC0000
FC0000
FC01C0
FC01C0
FC01C0
FFFFC0
FFFFC0
FFFFC0
ENDCHAR
STARTCHAR U+00C9
ENCODING 201
SWIDTH 2880 0
DWIDTH 24 0
BBX 18 30 3 0
BITMAP
007E00
007E00
007E00
03F000
03F000
03F000
000000
000000
000000
FFFFC0
FFFFC0
FFFFC0
FC01C0
FC01C0
FC01C0
FC0000
FC0000
FC0000
FFF000
FFF000
FFF000
FC0000
FC0000
FC0000
FC01C0
FC01C0
FC01C0
FFFFC0
FFFFC0
FFFFC0
ENDCHAR
STARTCHAR U+00CA
ENCODING 202
SWIDTH 2880 0
DWIDTH 24 0
BBX 18 30 3 0
BITMAP
03FE00
03FE00
03FE00
1F8FC0
1F8FC0
1F8FC0
000000
000000
000000
FFFFC0
FFFFC0
FFFFC0
FC01C0
FC01C0
FC01C0
FC0000
FC0000
FC0000
FFF000
FFF000
FFF000
FC0000
FC0000
FC0000
FC01C0
FC01C0
FC01C0
FFFFC0
FFFFC0
FFFFC0
ENDCHAR
STARTCHAR U+00CB
ENCODING 203
SWIDTH 2880 0
DWIDTH 24 0
BBX 18 30 3 0
BITMAP
FC0FC0
FC0FC0
FC0FC0
FC0FC0
FC0FC0
FC0FC0
000000
000000
000000
FFFFC0
FFFFC0
FFFFC0
FC01C0
FC01C0
FC01C0
FC0000
FC0000
FC0000
FFF000
FFF000
FFF000
FC0000
FC0000
FC0000
FC01C0
FC01C0
FC01C0
FFFFC0
FFFFC0
FFFFC0
ENDCHAR
STARTCHAR U+00CC
ENCODING 204
SWIDTH 2880 0
DWIDTH 24 0
BBX 18 30 3 0
BITMAP
1F8000
1F8000
1F8000
03F000
03F000
03F000
000000
000000
000000
FFFFC0
FFFFC0
FFFFC0
03F000
03F000
03F000
03F000
03F000
03F000
03F000
03F000
03F000
03F000
03F000
03F000
03F000
03F000
03F000
FFFFC0
FFFFC0
FFFFC0
ENDCHAR
STARTCHAR U+00CD
ENCODING 205
SWIDTH 2880 0
DWIDTH 24 0
BBX 18 30 3 0
BITMAP
007E00
007E00
007E00
03F000
03F000
03F000
000000
000000
000000
FFFFC0
FFFFC0
FFFFC0
03F000
03F000
03F000
03F000
03F000
03F000
03F000
03F000
03F000
03F000
03F000
03F000
03F000
03F000
03F000
FFFFC0
FFFFC0
FFFFC0
ENDCHAR
STARTCHAR U+00CE
ENCODING 206
SWIDTH 2880 0
DWIDTH 24 0
BBX 18 30 3 0
BITMAP
03FE00
03FE00
03FE00
1F8FC0
1F8FC0
1F8FC0
000000
000000
000000
FFFFC0
FFFFC0
FFFFC0
03F000
03F000
03F000
03F000
03F000
03F000
03F000
03F000
03F000
03F000
03F000
03F000
03F000
03F000
03F000
FFFFC0
FFFFC0
FFFFC0
ENDCHAR
STARTCHAR U+00CF
ENCODING 207
SWIDTH 2880 0
DWIDTH 24 0
BBX 18 30 3 0
BITMAP
FC0FC0
FC0FC0
FC0FC0
FC0FC0
FC0FC0
FC0FC0
000000
000000
000000
FFFFC0
FFFFC0
FFFFC0
03F000
03F000
03F000
03F000
03F000
03F000
03F000
03F000
03F000
03F000
03F000
03F000
03F000
03F000
03F000
FFFFC0
FFFFC0
FFFFC0
ENDCHAR
STARTCHAR U+00D0
ENCODING 208
SWIDTH 2880 0
DWIDTH 24 0
BBX 21 21 0 0
BITMAP
1FFE00
1FFE00
1FFE00
1F81C0
1F81C0
1F81C0
1F81F8
1F81F8
1F81F8
FFF1F8
FFF1F8
FFF1F8
1F81F8
1F81F8
1F81F8
1F81C0
1F81C0
1F81C0
1FFE00
1FFE00
1FFE00
ENDCHAR
STARTCHAR U+00D1
ENCODING 209
SWIDTH 2880 0
DWIDTH 24 0
BBX 21 30 3 0
BITMAP
1FF1F8
1FF1F8
1FF1F8
FC7FC0
FC7FC0
FC7FC0
000000
000000
000000
E00FC0
E00FC0
E00FC0
FC0FC0
FC0FC0
FC0FC0
FF8FC0
FF8FC0
FF8FC0
FC7FC0
FC7FC0
FC7FC0
FC0FC0
FC0FC0
FC0FC0
FC0FC0
FC0FC0
FC0FC0
FC0FC0
FC0FC0
FC0FC0
ENDCHAR
STARTCHAR U+00D2
ENCODING 210
SWIDTH 2880 0
DWIDTH 24 0
BBX 18 30 3 0
BITMAP
1F8000
1F8000
1F8000
03F000
03F000
03F000
000000
000000
000000
1FFE00
1FFE00
1FFE00
FC0FC0
FC0FC0
FC0FC0
FC0FC0
FC0FC0
FC0FC0
FC0FC0
FC0FC0
FC0FC0
FC0FC0
FC0FC0
FC0FC0
FC0FC0
FC0FC0
FC0FC0
1FFE00
1FFE00
1FFE00
ENDCHAR
STARTCHAR U+00D3
ENCODING 211
SWIDTH 2880 0
DWIDTH 24 0
BBX 18 30 3 0
BITMAP
007E00
007E00
007E00
03F000
03F000
03F000
000000
000000
000000
1FFE00
1FFE00
1FFE00
FC0FC0
FC0FC0
FC0FC0
FC0FC0
FC0FC0
FC0FC0
FC0FC0
FC0FC0
FC0FC0
FC0FC0
FC0FC0
FC0FC0
FC0FC0
FC0FC0
FC0FC0
1FFE00
1FFE00
1FFE00
ENDCHAR
STARTCHAR U+00D4
ENCODING 212
SWIDTH 2880 0
DWIDTH 24 0
BBX 18 30 3 0
BITMAP
03FE00
03FE00
03FE00
1F8FC0
1F8FC0
1F8FC0
000000
000000
000000
1FFE00
1FFE00
1FFE00
FC0FC0
FC0FC0
FC0FC0
FC0FC0
FC0FC0
FC0FC0
FC0FC0
FC0FC0
FC0FC0
FC0FC0
FC0FC0
FC0FC0
FC0FC0
FC0FC0
FC0FC0
1FFE00
1FFE00
1FFE00
ENDCHAR
STARTCHAR U+00D5
ENCODING 213
SWIDTH 2880 0
DWIDTH 24 0
BBX 21 30 3 0
BITMAP
1FF1F8
1FF1F8
1FF1F8
FC7FC0
FC7FC0
FC7FC0
000000
000000
000000
1FFE00
1FFE00
1FFE00
FC0FC0
FC0FC0
FC0FC0
FC0FC0
FC0FC0
FC0FC0
FC0FC0
FC0FC0
FC0FC0
FC0FC0
FC0FC0
FC0FC0
FC0FC0
FC0FC0
FC0FC0
1FFE00
1FFE00
1FFE00
ENDCHAR
STARTCHAR U+00D6
ENCODING 214
SWIDTH 2880 0
DWIDTH 24 0
BBX 18 30 3 0
BITMAP
FC0FC0
FC0FC0
FC0FC0
FC0FC0
FC0FC0
FC0FC0
000000
000000
000000
1FFE00
1FFE00
1FFE00
FC0FC0
FC0FC0
FC0FC0
FC0FC0
FC0FC0
FC0FC0
FC0FC0
FC0FC0
FC0FC0
FC0FC0
FC0FC0
FC0FC0
FC0FC0
FC0FC0
FC0FC0
1FFE00
1FFE00
1FFE00
ENDCHAR
STARTCHAR U+00D7
ENCODING 215
SWIDTH 2880 0
DWIDTH 24 0
BBX 18 15 3 3
BITMAP
FC0FC0
FC0FC0
FC0FC0
1FFE00
1FFE00
1FFE00
03F000
03F000
03F000
1FFE00
1FFE00
1FFE00
FC0FC0
FC0FC0
FC0FC0
ENDCHAR
STARTCHAR U+00D8
ENCODING 216
SWIDTH 2880 0
DWIDTH 24 0
BBX 18 27 3 -3
BITMAP
000FC0
000FC0
000FC0
1FFE00
1FFE00
1FFE00
FC0FC0
FC0FC0
FC0FC0
FC7FC0
FC7FC0
FC7FC0
FFFFC0
FFFFC0
FFFFC0
FF8FC0
FF8FC0
FF8FC0
FC0FC0
FC0FC0
FC0FC0
1FFE00
1FFE00
1FFE00
FC0000
FC0000
FC0000
ENDCHAR
STARTCHAR U+00D9
ENCODING 217
SWIDTH 2880 0
DWIDTH 24 0
BBX 18 30 3 0
BITMAP
1F8000
1F8000
1F8000
03F000
03F000
03F000
000000
000000
000000
FC0FC0
FC0FC0
FC0FC0
FC0FC0
FC0FC0
FC0FC0
FC0FC0
FC0FC0
FC0FC0
FC0FC0
FC0FC0
FC0FC0
FC0FC0
FC0FC0
FC0FC0
FC0FC0
FC0FC0
FC0FC0
1FFE00
1FFE00
1FFE00
ENDCHAR
STARTCHAR U+00DA
ENCODING 218
SWIDTH 2880 0
DWIDTH 24 0
BBX 18 30 3 0
BITMAP
007E00
007E00
007E00
03F000
03F000
03F000
000000
000000
000000
FC0FC0
FC0FC0
FC0FC0
FC0FC0
FC0FC0
FC0FC0
FC0FC0
FC0FC0
FC0FC0
FC0FC0
FC0FC0
FC0FC0
FC0FC0
FC0FC0
FC0FC0
FC0FC0
FC0FC0
FC0FC0
1FFE00
1FFE00
1FFE00
ENDCHAR
STARTCHAR U+00DB
ENCODING 219
SWIDTH 2880 0
DWIDTH 24 0
BBX 18 30 3 0
BITMAP
03FE00
03FE00
03FE00
1F8FC0
1F8FC0
1F8FC0
000000
000000
000000
FC0FC0
FC0FC0
FC0FC0
FC0FC0
FC0FC0
FC0FC0
FC0FC0
FC0FC0
FC0FC0
FC0FC0
FC0FC0
FC0FC0
FC0FC0
FC0FC0
FC0FC0
FC0FC0
FC0FC0
FC0FC0
1FFE00
1FFE00
1FFE00
ENDCHAR
STARTCHAR U+00DC
ENCODING 220
SWIDTH 2880 0
DWIDTH 24 0
BBX 18 30 3 0
BITMAP
FC0FC0
FC0FC0
FC0FC0
FC0FC0
FC0FC0
FC0FC0
000000
000000
000000
FC0FC0
FC0FC0
FC0FC0
FC0FC0
FC0FC0
FC0FC0
FC0FC0
FC0FC0
FC0FC0
FC0FC0
FC0FC0
FC0FC0
FC0FC0
FC0FC0
FC0FC0
FC0FC0
FC0FC0
FC0FC0
1FFE00
1FFE00
1FFE00
ENDCHAR
STARTCHAR U+00DD
ENCODING 221
SWIDTH 2880 0
DWIDTH 24 0
BBX 18 30 3 0
BITMAP
007E00
007E00
007E00
03F000
03F000
03F000
000000
000000
000000
FC0FC0
FC0FC0
FC0FC0
FC0FC0
FC0FC0
FC0FC0
1C0E00
1C0E00
1C0E00
03F000
03F000
03F000
03F000
03F000
03F000
03F000
03F000
03F000
03F000
03F000
03F000
ENDCHAR
STARTCHAR U+00DE
ENCODING 222
SWIDTH 2880 0
DWIDTH 24 0
BBX 18 21 3 0
BITMAP
FC0000
FC0000
FC0000
FFFE00
FFFE00
FFFE00
FC0FC0
FC0FC0
FC0FC0
FC0FC0
FC0FC0
FC0FC0
FC7E00
FC7E00
FC7E00
FC0000
FC0000
FC0000
FC0000
FC0000
FC0000
ENDCHAR
STARTCHAR U+00DF
ENCODING 223
SWIDTH 2880 0
DWIDTH 24 0
BBX 21 21 3 0
BITMAP
1FFE00
1FFE00
1FFE00
FC0FC0
FC0FC0
FC0FC0
FC7E00
FC7E00
FC7E00
FC7E00
FC7E00
FC7E00
FC0FC0
FC0FC0
FC0FC0
FC01F8
FC01F8
FC01F8
FC7FC0
FC7FC0
FC7FC0
ENDCHAR
STARTCHAR U+00E0
ENCODING 224
SWIDTH 2880 0
DWIDTH 24 0
BBX 18 24 3 0
BITMAP
1F8000
1F8000
1F8000
03F000
03F000
03F000
000000
000000
000000
1FFE00
1FFE00
1FFE00
000FC0
000FC0
000FC0
1FFFC0
1FFFC0
1FFFC0
FC0FC0
FC0FC0
FC0FC0
1F8FC0
1F8FC0
1F8FC0
ENDCHAR
STARTCHAR U+00E1
ENCODING 225
SWIDTH 2880 0
DWIDTH 24 0
BBX 18 24 3 0
BITMAP
007E00
007E00
007E00
03F000
03F000
03F000
000000
000000
000000
1FFE00
1FFE00
1FFE00
000FC0
000FC0
000FC0
1FFFC0
1FFFC0
1FFFC0
FC0FC0
FC0FC0
FC0FC0
1F8FC0
1F8FC0
1F8FC0
ENDCHAR
STARTCHAR U+00E2
ENCODING 226
SWIDTH 2880 0
DWIDTH 24 0
BBX 18 24 3 0
BITMAP
03FE00
03FE00
03FE00
1F8FC0
1F8FC0
1F8FC0
000000
000000
000000
1FFE00
1FFE00
1FFE00
000FC0
000FC0
000FC0
1FFFC0
1FFFC0
1FFFC0
FC0FC0
FC0FC0
FC0FC0
1F8FC0
1F8FC0
1F8FC0
ENDCHAR
STARTCHAR U+00E3
ENCODING 227
SWIDTH 2880 0
DWIDTH 24 0
BBX 21 24 3 0
BITMAP
1FF1F8
1FF1F8
1FF1F8
FC7FC0
FC7FC0
FC7FC0
000000
000000
000000
1FFE00
1FFE00
1FFE00
000FC0
000FC0
000FC0
1FFFC0
1FFFC0
1FFFC0
FC0FC0
FC0FC0
FC0FC0
1F8FC0
1F8FC0
1F8FC0
ENDCHAR
STARTCHAR U+00E4
ENCODING 228
SWIDTH 2880 0
DWIDTH 24 0
BBX 18 24 3 0
BITMAP
FC0FC0
FC0FC0
FC0FC0
FC0FC0
FC0FC0
FC0FC0
000000
000000
000000
1FFE00
1FFE00
1FFE00
000FC0
000FC0
000FC0
1FFFC0
1FFFC0
1FFFC0
FC0FC0
FC0FC0
FC0FC0
1F8FC0
1F8FC0
1F8FC0
ENDCHAR
STARTCHAR U+00E5
ENCODING 229
SWIDTH 2880 0
DWIDTH 24 0
BBX 18 27 3 0
BITMAP
03FE00
03FE00
03FE00
038E00
038E00
038E00
03FE00
03FE00
03FE00
000000
000000
000000
1FFE00
1FFE00
1FFE00
000FC0
000FC0
000FC0
1FFFC0
1FFFC0
1FFFC0
FC0FC0
FC0FC0
FC0FC0
1F8FC0
1F8FC0
1F8FC0
ENDCHAR
STARTCHAR U+00E6
ENCODING 230
SWIDTH 2880 0
DWIDTH 24 0
BBX 24 15 0 0
BITMAP
1FFFF8
1FFFF8
1FFFF8
007E3F
007E3F
007E3F
1FFFFF
1FFFFF
1FFFFF
FC7E00
FC7E00
FC7E00
1FFFF8
1FFFF8
1FFFF8
ENDCHAR
STARTCHAR U+00E7
ENCODING 231
SWIDTH 2880 0
DWIDTH 24 0
BBX 18 21 3 -6
BITMAP
1FFE00
1FFE00
1FFE00
FC0E00
FC0E00
FC0E00
FC0000
FC0000
FC0000
FC0FC0
FC0FC0
FC0FC0
1FFE00
1FFE00
1FFE00
007E00
007E00
007E00
03FE00
03FE00
03FE00
ENDCHAR
STARTCHAR U+00E8
ENCODING 232
SWIDTH 2880 0
DWIDTH 24 0
BBX 18 24 3 0
BITMAP
1F8000
1F8000
1F8000
03F000
03F000
03F000
000000
000000
000000
1FFE00
1FFE00
1FFE00
FC0FC0
FC0FC0
FC0FC0
FFFFC0
FFFFC0
FFFFC0
FC0000
FC0000
FC0000
1FFE00
1FFE00
1FFE00
ENDCHAR
STARTCHAR U+00E9
ENCODING 233
SWIDTH 2880 0
DWIDTH 24 0
BBX 18 24 3 0
BITMAP
007E00
007E00
007E00
03F000
03F000
03F000
000000
000000
000000
1FFE00
1FFE00
1FFE00
FC0FC0
FC0FC0
FC0FC0
FFFFC0
FFFFC0
FFFFC0
FC0000
FC0000
FC0000
1FFE00
1FFE00
1FFE00
ENDCHAR
STARTCHAR U+00EA
ENCODING 234
SWIDTH 2880 0
DWIDTH 24 0
BBX 18 24 3 0
BITMAP
03FE00
03FE00
03FE00
1F8FC0
1F8FC0
1F8FC0
000000
000000
000000
1FFE00
1FFE00
1FFE00
FC0FC0
FC0FC0
FC0FC0
FFFFC0
FFFFC0
FFFFC0
FC0000
FC0000
FC0000
1FFE00
1FFE00
1FFE00
ENDCHAR
STARTCHAR U+00EB
ENCODING 235
SWIDTH 2880 0
DWIDTH 24 0
BBX 18 24 3 0
BITMAP
FC0FC0
FC0FC0
FC0FC0
FC0FC0
FC0FC0
FC0FC0
000000
000000
000000
1FFE00
1FFE00
1FFE00
FC0FC0
FC0FC0
FC0FC0
FFFFC0
FFFFC0
FFFFC0
FC0000
FC0000
FC0000
1FFE00
1FFE00
1FFE00
ENDCHAR
STARTCHAR U+00EC
ENCODING 236
SWIDTH 2880 0
DWIDTH 24 0
BBX 18 24 3 0
BITMAP
1F8000
1F8000
1F8000
03F000
03F000
03F000
000000
000000
000000
FFF000
FFF000
FFF000
03F000
03F000
03F000
03F000
03F000
03F000
03F000
03F000
03F000
007FC0
007FC0
007FC0
ENDCHAR
STARTCHAR U+00ED
ENCODING 237
SWIDTH 2880 0
DWIDTH 24 0
BBX 18 24 3 0
BITMAP
007E00
007E00
007E00
03F000
03F000
03F000
000000
000000
000000
FFF000
FFF000
FFF000
03F000
03F000
03F000
03F000
03F000
03F000
03F000
03F000
03F000
007FC0
007FC0
007FC0
ENDCHAR
STARTCHAR U+00EE
ENCODING 238
SWIDTH 2880 0
DWIDTH 24 0
BBX 18 24 3 0
BITMAP
03FE00
03FE00
03FE00
1F8FC0
1F8FC0
1F8FC0
000000
000000
000000
FFF000
FFF000
FFF000
03F000
03F000
03F000
03F000
03F000
03F000
03F000
03F000
03F000
007FC0
007FC0
007FC0
ENDCHAR
STARTCHAR U+00EF
ENCODING 239
SWIDTH 2880 0
DWIDTH 24 0
BBX 18 24 3 0
BITMAP
FC0FC0
FC0FC0
FC0FC0
FC0FC0
FC0FC0
FC0FC0
000000
000000
000000
FFF000
FFF000
FFF000
03F000
03F000
03F000
03F000
03F000
03F000
03F000
03F000
03F000
007FC0
007FC0
007FC0
ENDCHAR
STARTCHAR U+00F0
ENCODING 240
SWIDTH 2880 0
DWIDTH 24 0
BBX 18 27 3 0
BITMAP
FC7E00
FC7E00
FC7E00
1FF000
1FF000
1FF000
FC7E00
FC7E00
FC7E00
000FC0
000FC0
000FC0
1F8FC0
1F8FC0
1F8FC0
FC0FC0
FC0FC0
FC0FC0
FC0FC0
FC0FC0
FC0FC0
FC0FC0
FC0FC0
FC0FC0
1FFE00
1FFE00
1FFE00
ENDCHAR
STARTCHAR U+00F1
ENCODING 241
SWIDTH 2880 0
DWIDTH 24 0
BBX 21 24 3 0
BITMAP
1FF1F8
1FF1F8
1FF1F8
FC7FC0
FC7FC0
FC7FC0
000000
000000
000000
FC7E00
FC7E00
FC7E00
FF8FC0
FF8FC0
FF8FC0
FC0FC0
FC0FC0
FC0FC0
FC0FC0
FC0FC0
FC0FC0
FC0FC0
FC0FC0
FC0FC0
ENDCHAR
STARTCHAR U+00F2
ENCODING 242
SWIDTH 2880 0
DWIDTH 24 0
BBX 18 24 3 0
BITMAP
1F8000
1F8000
1F8000
03F000
03F000
03F000
000000
000000
000000
1FFE00
1FFE00
1FFE00
FC0FC0
FC0FC0
FC0FC0
FC0FC0
FC0FC0
FC0FC0
FC0FC0
FC0FC0
FC0FC0
1FFE00
1FFE00
1FFE00
ENDCHAR
STARTCHAR U+00F3
ENCODING 243
SWIDTH 2880 0
DWIDTH 24 0
BBX 18 24 3 0
BITMAP
007E00
007E00
007E00
03F000
03F000
03F000
000000
000000
000000
1FFE00
1FFE00
1FFE00
FC0FC0
FC0FC0
FC0FC0
FC0FC0
FC0FC0
FC0FC0
FC0FC0
FC0FC0
FC0FC0
1FFE00
1FFE00
1FFE00
ENDCHAR
STARTCHAR U+00F4
ENCODING 244
SWIDTH 2880 0
DWIDTH 24 0
BBX 18 24 3 0
BITMAP
03FE00
03FE00
03FE00
1F8FC0
1F8FC0
1F8FC0
000000
000000
000000
1FFE00
1FFE00
1FFE00
FC0FC0
FC0FC0
FC0FC0
FC0FC0
FC0FC0
FC0FC0
FC0FC0
FC0FC0
FC0FC0
1FFE00
1FFE00
1FFE00
ENDCHAR
STARTCHAR U+00F5
ENCODING 245
SWIDTH 2880 0
DWIDTH 24 0
BBX 21 24 3 0
BITMAP
1FF1F8
1FF1F8
1FF1F8
FC7FC0
FC7FC0
FC7FC0
000000
000000
000000
1FFE00
1FFE00
1FFE00
FC0FC0
FC0FC0
FC0FC0
FC0FC0
FC0FC0
FC0FC0
FC0FC0
FC0FC0
FC0FC0
1FFE00
1FFE00
1FFE00
ENDCHAR
STARTCHAR U+00F6
ENCODING 246
SWIDTH 2880 0
DWIDTH 24 0
BBX 18 15 3 0
BITMAP
1FFE00
1FFE00
1FFE00
FC0FC0
FC0FC0
FC0FC0
FC0FC0
FC0FC0
FC0FC0
FC0FC0
FC0FC0
FC0FC0
1FFE00
1FFE00
1FFE00
ENDCHAR
STARTCHAR U+00F7
ENCODING 247
SWIDTH 2880 0
DWIDTH 24 0
BBX 18 21 3 0
BITMAP
03F000
03F000
03F000
03F000
03F000
03F000
000000
000000
000000
FFFFC0
FFFFC0
FFFFC0
000000
000000
000000
03F000
03F000
03F000
03F000
03F000
03F000
ENDCHAR
STARTCHAR U+00F8
ENCODING 248
SWIDTH 2880 0
DWIDTH 24 0
BBX 18 21 3 -3
BITMAP
000FC0
000FC0
000FC0
1FFE00
1FFE00
1FFE00
FC7FC0
FC7FC0
FC7FC0
FFFFC0
FFFFC0
FFFFC0
FF8FC0
FF8FC0
FF8FC0
1FFE00
1FFE00
1FFE00
FC0000
FC0000
FC0000
ENDCHAR
STARTCHAR U+00F9
ENCODING 249
SWIDTH 2880 0
DWIDTH 24 0
BBX 18 24 3 0
BITMAP
1F8000
1F8000
1F8000
03F000
03F000
03F000
000000
000000
000000
FC0FC0
FC0FC0
FC0FC0
FC0FC0
FC0FC0
FC0FC0
FC0FC0
FC0FC0
FC0FC0
FC7FC0
FC7FC0
FC7FC0
1F8FC0
1F8FC0
1F8FC0
ENDCHAR
STARTCHAR U+00FA
ENCODING 250
SWIDTH 2880 0
DWIDTH 24 0
BBX 18 24 3 0
BITMAP
007E00
007E00
007E00
03F000
03F000
03F000
000000
000000
000000
FC0FC0
FC0FC0
FC0FC0
FC0FC0
FC0FC0
FC0FC0
FC0FC0
FC0FC0
FC0FC0
FC7FC0
FC7FC0
FC7FC0
1F8FC0
1F8FC0
1F8FC0
ENDCHAR
STARTCHAR U+00FB
ENCODING 251
SWIDTH 2880 0
DWIDTH 24 0
BBX 18 24 3 0
BITMAP
03FE00
03FE00
03FE00
1F8FC0
1F8FC0
1F8FC0
000000
000000
000000
FC0FC0
FC0FC0
FC0FC0
FC0FC0
FC0FC0
FC0FC0
FC0FC0
FC0FC0
FC0FC0
FC7FC0
FC7FC0
FC7FC0
1F8FC0
1F8FC0
1F8FC0
ENDCHAR
STARTCHAR U+00FC
ENCODING 252
SWIDTH 2880 0
DWIDTH 24 0
BBX 18 24 3 0
BITMAP
FC0FC0
FC0FC0
FC0FC0
FC0FC0
FC0FC0
FC0FC0
000000
000000
000000
FC0FC0
FC0FC0
FC0FC0
FC0FC0
FC0FC0
FC0FC0
FC0FC0
FC0FC0
FC0FC0
FC7FC0
FC7FC0
FC7FC0
1F8FC0
1F8FC0
1F8FC0
ENDCHAR
STARTCHAR U+00FD
ENCODING 253
SWIDTH 2880 0
DWIDTH 24 0
BBX 18 30 3 -6
BITMAP
007E00
007E00
007E00
03F000
03F000
03F000
000000
000000
000000
FC0FC0
FC0FC0
FC0FC0
FC0FC0
FC0FC0
FC0FC0
FC0FC0
FC0FC0
FC0FC0
FC7FC0
FC7FC0
FC7FC0
1F8FC0
1F8FC0
1F8FC0
000FC0
000FC0
000FC0
1FFE00
1FFE00
1FFE00
ENDCHAR
STARTCHAR U+00FE
ENCODING 254
SWIDTH 2880 0
DWIDTH 24 0
BBX 18 27 3 -6
BITMAP
FC0000
FC0000
FC0000
FC0000
FC0000
FC0000
FC7E00
FC7E00
FC7E00
FF8FC0
FF8FC0
FF8FC0
FC0FC0
FC0FC0
FC0FC0
FC0FC0
FC0FC0
FC0FC0
FC7E00
FC7E00
FC7E00
FC0000
FC0000
FC0000
FC0000
FC0000
FC0000
ENDCHAR
STARTCHAR U+00FF
ENCODING 255
SWIDTH 2880 0
DWIDTH 24 0
BBX 18 30 3 -6
BITMAP
FC0FC0
FC0FC0
FC0FC0
FC0FC0
FC0FC0
FC0FC0
000000
000000
000000
FC0FC0
FC0FC0
FC0FC0
FC0FC0
FC0FC0
FC0FC0
FC0FC0
FC0FC0
FC0FC0
FC7FC0
FC7FC0
FC7FC0
1F8FC0
1F8FC0
1F8FC0
000FC0
000FC0
000FC0
1FFE00
1FFE00
1FFE00
ENDCHAR
STARTCHAR U+0100
ENCODING 256
SWIDTH 2880 0
DWIDTH 24 0
BBX 18 27 3 0
BITMAP
1FFE00
1FFE00
1FFE00
000000
000000
000000
007000
007000
007000
038E00
038E00
038E00
1C0FC0
1C0FC0
1C0FC0
FFFFC0
FFFFC0
FFFFC0
FC0FC0
FC0FC0
FC0FC0
FC0FC0
FC0FC0
FC0FC0
FC0FC0
FC0FC0
FC0FC0
ENDCHAR
STARTCHAR U+0101
ENCODING 257
SWIDTH 2880 0
DWIDTH 24 0
BBX 18 21 3 0
BITMAP
1FFE00
1FFE00
1FFE00
000000
000000
000000
1FFE00
1FFE00
1FFE00
000FC0
000FC0
000FC0
1FFFC0
1FFFC0
1FFFC0
FC0FC0
FC0FC0
FC0FC0
1F8FC0
1F8FC0
1F8FC0
ENDCHAR
STARTCHAR U+0102
ENCODING 258
SWIDTH 2880 0
DWIDTH 24 0
BBX 18 30 3 0
BITMAP
FC0FC0
FC0FC0
FC0FC0
1FFE00
1FFE00
1FFE00
000000
000000
000000
007000
007000
007000
038E00
038E00
038E00
1C0FC0
1C0FC0
1C0FC0
FFFFC0
FFFFC0
FFFFC0
FC0FC0
FC0FC0
FC0FC0
FC0FC0
FC0FC0
FC0FC0
FC0FC0
FC0FC0
FC0FC0
ENDCHAR
STARTCHAR U+0103
ENCODING 259
SWIDTH 2880 0
DWIDTH 24 0
BBX 18 24 3 0
BITMAP
FC0FC0
FC0FC0
FC0FC0
1FFE00
1FFE00
1FFE00
000000
000000
000000
1FFE00
1FFE00
1FFE00
000FC0
000FC0
000FC0
1FFFC0
1FFFC0
1FFFC0
FC0FC0
FC0FC0
FC0FC0
1F8FC0
1F8FC0
1F8FC0
ENDCHAR
STARTCHAR U+0104
ENCODING 260
SWIDTH 2880 0
DWIDTH 24 0
BBX 18 27 3 -6
BITMAP
007000
007000
007000
038E00
038E00
038E00
1C0FC0
1C0FC0
1C0FC0
FFFFC0
FFFFC0
FFFFC0
FC0FC0
FC0FC0
FC0FC0
FC0FC0
FC0FC0
FC0FC0
FC0FC0
FC0FC0
FC0FC0
007E00
007E00
007E00
007FC0
007FC0
007FC0
ENDCHAR
STARTCHAR U+0105
ENCODING 261
SWIDTH 2880 0
DWIDTH 24 0
BBX 18 21 3 -6
BITMAP
1FFE00
1FFE00
1FFE00
000FC0
000FC0
000FC0
1FFFC0
1FFFC0
1FFFC0
FC0FC0
FC0FC0
FC0FC0
1FFFC0
1FFFC0
1FFFC0
007E00
007E00
007E00
007FC0
007FC0
007FC0
ENDCHAR
STARTCHAR U+0106
ENCODING 262
SWIDTH 2880 0
DWIDTH 24 0
BBX 18 30 3 0
BITMAP
007E00
007E00
007E00
03F000
03F000
03F000
000000
000000
000000
1FFE00
1FFE00
1FFE00
FC0FC0
FC0FC0
FC0FC0
FC0000
FC0000
FC0000
FC0000
FC0000
FC0000
FC0000
FC0000
FC0000
FC0FC0
FC0FC0
FC0FC0
1FFE00
1FFE00
1FFE00
ENDCHAR
STARTCHAR U+0107
ENCODING 263
SWIDTH 2880 0
DWIDTH 24 0
BBX 18 24 3 0
BITMAP
007E00
007E00
007E00
03F000
03F000
03F000
000000
000000
000000
1FFE00
1FFE00
1FFE00
FC0E00
FC0E00
FC0E00
FC0000
FC0000
FC0000
FC0FC0
FC0FC0
FC0FC0
1FFE00
1FFE00
1FFE00
ENDCHAR
STARTCHAR U+0108
ENCODING 264
SWIDTH 2880 0
DWIDTH 24 0
BBX 18 30 3 0
BITMAP
03FE00
03FE00
03FE00
1F8FC0
1F8FC0
1F8FC0
000000
000000
000000
1FFE00
1FFE00
1FFE00
FC0FC0
FC0FC0
FC0FC0
FC0000
FC0000
FC0000
FC0000
FC0000
FC0000
FC0000
FC0000
FC0000
FC0FC0
FC0FC0
FC0FC0
1FFE00
1FFE00
1FFE00
ENDCHAR
STARTCHAR U+0109
ENCODING 265
SWIDTH 2880 0
DWIDTH 24 0
BBX 18 24 3 0
BITMAP
03FE00
03FE00
03FE00
1F8FC0
1F8FC0
1F8FC0
000000
000000
000000
1FFE00
1FFE00
1FFE00
FC0E00
FC0E00
FC0E00
FC0000
FC0000
FC0000
FC0FC0
FC0FC0
FC0FC0
1FFE00
1FFE00
1FFE00
ENDCHAR
STARTCHAR U+010A
ENCODING 266
SWIDTH 2880 0
DWIDTH 24 0
BBX 18 30 3 0
BITMAP
03F000
03F000
03F000
03F000
03F000
03F000
000000
000000
000000
1FFE00
1FFE00
1FFE00
FC0FC0
FC0FC0
FC0FC0
FC0000
FC0000
FC0000
FC0000
FC0000
FC0000
FC0000
FC0000
FC0000
FC0FC0
FC0FC0
FC0FC0
1FFE00
1FFE00
1FFE00
ENDCHAR
STARTCHAR U+010B
ENCODING 267
SWIDTH 2880 0
DWIDTH 24 0
BBX 18 24 3 0
BITMAP
03F000
03F000
03F000
03F000
03F000
03F000
000000
000000
000000
1FFE00
1FFE00
1FFE00
FC0E00
FC0E00
FC0E00
FC0000
FC0000
FC0000
FC0FC0
FC0FC0
FC0FC0
1FFE00
1FFE00
1FFE00
ENDCHAR
STARTCHAR U+010C
ENCODING 268
SWIDTH 2880 0
DWIDTH 24 0
BBX 18 30 3 0
BITMAP
1F8FC0
1F8FC0
1F8FC0
03FE00
03FE00
03FE00
000000
000000
000000
1FFE00
1FFE00
1FFE00
FC0FC0
FC0FC0
FC0FC0
FC0000
FC0000
FC0000
FC0000
FC0000
FC0000
FC0000
FC0000
FC0000
FC0FC0
FC0FC0
FC0FC0
1FFE00
1FFE00
1FFE00
ENDCHAR
STARTCHAR U+010D
ENCODING 269
SWIDTH 2880 0
DWIDTH 24 0
BBX 18 24 3 0
BITMAP
1F8FC0
1F8FC0
1F8FC0
03FE00
03FE00
03FE00
000000
000000
000000
1FFE00
1FFE00
1FFE00
FC0E00
FC0E00
FC0E00
FC0000
FC0000
FC0000
FC0FC0
FC0FC0
FC0FC0
1FFE00
1FFE00
1FFE00
ENDCHAR
STARTCHAR U+010E
ENCODING 270
SWIDTH 2880 0
DWIDTH 24 0
BBX 18 30 3 0
BITMAP
FC7E00
FC7E00
FC7E00
1FF000
1FF000
1FF000
000000
000000
000000
FFF000
FFF000
FFF000
FC0E00
FC0E00
FC0E00
FC0FC0
FC0FC0
FC0FC0
FC0FC0
FC0FC0
FC0FC0
FC0FC0
FC0FC0
FC0FC0
FC0E00
FC0E00
FC0E00
FFF000
FFF000
FFF000
ENDCHAR
STARTCHAR U+010F
ENCODING 271
SWIDTH 2880 0
DWIDTH 24 0
BBX 24 21 0 0
BITMAP
007E3F
007E3F
007E3F
007E07
007E07
007E07
1FFE38
1FFE38
1FFE38
FC7E00
FC7E00
FC7E00
FC7E00
FC7E00
FC7E00
FC7E00
FC7E00
FC7E00
1FFE00
1FFE00
1FFE00
ENDCHAR
STARTCHAR U+0110
ENCODING 272
SWIDTH 2880 0
DWIDTH 24 0
BBX 21 21 0 0
BITMAP
1FFE00
1FFE00
1FFE00
1F81C0
1F81C0
1F81C0
1F81F8
1F81F8
1F81F8
FFF1F8
FFF1F8
FFF1F8
1F81F8
1F81F8
1F81F8
1F81C0
1F81C0
1F81C0
1FFE00
1FFE00
1FFE00
ENDCHAR
STARTCHAR U+0111
ENCODING 273
SWIDTH 2880 0
DWIDTH 24 0
BBX 21 24 3 0
BITMAP
000FC0
000FC0
000FC0
03FFF8
03FFF8
03FFF8
000FC0
000FC0
000FC0
1F8FC0
1F8FC0
1F8FC0
FC7FC0
FC7FC0
FC7FC0
FC0FC0
FC0FC0
FC0FC0
FC0FC0
FC0FC0
FC0FC0
1F8FC0
1F8FC0
1F8FC0
ENDCHAR
STARTCHAR U+0112
ENCODING 274
SWIDTH 2880 0
DWIDTH 24 0
BBX 18 27 3 0
BITMAP
1FFE00
1FFE00
1FFE00
000000
000000
000000
FFFFC0
FFFFC0
FFFFC0
FC01C0
FC01C0
FC01C0
FC0000
FC0000
FC0000
FFF000
FFF000
FFF000
FC0000
FC0000
FC0000
FC01C0
FC01C0
FC01C0
FFFFC0
FFFFC0
FFFFC0
ENDCHAR
STARTCHAR U+0113
ENCODING 275
SWIDTH 2880 0
DWIDTH 24 0
BBX 18 21 3 0
BITMAP
1FFE00
1FFE00
1FFE00
000000
000000
000000
1FFE00
1FFE00
1FFE00
FC0FC0
FC0FC0
FC0FC0
FFFFC0
FFFFC0
FFFFC0
FC0000
FC0000
FC0000
1FFE00
1FFE00
1FFE00
ENDCHAR
STARTCHAR U+0114
ENCODING 276
SWIDTH 2880 0
DWIDTH 24 0
BBX 18 30 3 0
BITMAP
FC0FC0
FC0FC0
FC0FC0
1FFE00
1FFE00
1FFE00
000000
000000
000000
FFFFC0
FFFFC0
FFFFC0
FC01C0
FC01C0
FC01C0
FC0000
FC0000
FC0000
FFF000
FFF000
FFF000
FC0000
FC0000
FC0000
FC01C0
FC01C0
FC01C0
FFFFC0
FFFFC0
FFFFC0
ENDCHAR
STARTCHAR U+0115
ENCODING 277
SWIDTH 2880 0
DWIDTH 24 0
BBX 18 24 3 0
BITMAP
FC0FC0
FC0FC0
FC0FC0
1FFE00
1FFE00
1FFE00
000000
000000
000000
1FFE00
1FFE00
1FFE00
FC0FC0
FC0FC0
FC0FC0
FFFFC0
FFFFC0
FFFFC0
FC0000
FC0000
FC0000
1FFE00
1FFE00
1FFE00
ENDCHAR
STARTCHAR U+0116
ENCODING 278
SWIDTH 2880 0
DWIDTH 24 0
BBX 18 30 3 0
BITMAP
03F000
03F000
03F000
03F000
03F000
03F000
000000
000000
000000
FFFFC0
FFFFC0
FFFFC0
FC01C0
FC01C0
FC01C0
FC0000
FC0000
FC0000
FFF000
FFF000
FFF000
FC0000
FC0000
FC0000
FC01C0
FC01C0
FC01C0
FFFFC0
FFFFC0
FFFFC0
ENDCHAR
STARTCHAR U+0117
ENCODING 279
SWIDTH 2880 0
DWIDTH 24 0
BBX 18 24 3 0
BITMAP
03F000
03F000
03F000
03F000
03F000
03F000
000000
000000
000000
1FFE00
1FFE00
1FFE00
FC0FC0
FC0FC0
FC0FC0
FFFFC0
FFFFC0
FFFFC0
FC0000
FC0000
FC0000
1FFE00
1FFE00
1FFE00
ENDCHAR
STARTCHAR U+0118
ENCODING 280
SWIDTH 2880 0
DWIDTH 24 0
BBX 18 27 3 -6
BITMAP
FFFFC0
FFFFC0
FFFFC0
FC01C0
FC01C0
FC01C0
FC0000
FC0000
FC0000
FFF000
FFF000
FFF000
FC0000
FC0000
FC0000
FC01C0
FC01C0
FC01C0
FFFFC0
FFFFC0
FFFFC0
007E00
007E00
007E00
007FC0
007FC0
007FC0
ENDCHAR
STARTCHAR U+0119
ENCODING 281
SWIDTH 2880 0
DWIDTH 24 0
BBX 18 21 3 -6
BITMAP
1FFE00
1FFE00
1FFE00
FC0FC0
FC0FC0
FC0FC0
FFFFC0
FFFFC0
FFFFC0
FC0000
FC0000
FC0000
1FFE00
1FFE00
1FFE00
007E00
007E00
007E00
007FC0
007FC0
007FC0
ENDCHAR
STARTCHAR U+011A
ENCODING 282
SWIDTH 2880 0
DWIDTH 24 0
BBX 18 30 3 0
BITMAP
1F8FC0
1F8FC0
1F8FC0
03FE00
03FE00
03FE00
000000
000000
000000
FFFFC0
FFFFC0
FFFFC0
FC01C0
FC01C0
FC01C0
FC0000
FC0000
FC0000
FFF000
FFF000
FFF000
FC0000
FC0000
FC0000
FC01C0
FC01C0
FC01C0
FFFFC0
FFFFC0
FFFFC0
ENDCHAR
STARTCHAR U+011B
ENCODING 283
SWIDTH 2880 0
DWIDTH 24 0
BBX 18 24 3 0
BITMAP
1F8FC0
1F8FC0
1F8FC0
03FE00
03FE00
03FE00
000000
000000
000000
1FFE00
1FFE00
1FFE00
FC0FC0
FC0FC0
FC0FC0
FFFFC0
FFFFC0
FFFFC0
FC0000
FC0000
FC0000
1FFE00
1FFE00
1FFE00
ENDCHAR
STARTCHAR U+011C
ENCODING 284
SWIDTH 2880 0
DWIDTH 24 0
BBX 18 30 3 0
BITMAP
03FE00
03FE00
03FE00
1F8FC0
1F8FC0
1F8FC0
000000
000000
000000
1FFE00
1FFE00
1FFE00
FC0FC0
FC0FC0
FC0FC0
FC0000
FC0000
FC0000
FC7FC0
FC7FC0
FC7FC0
FC0FC0
FC0FC0
FC0FC0
FC0FC0
FC0FC0
FC0FC0
1F8FC0
1F8FC0
1F8FC0
ENDCHAR
STARTCHAR U+011D
ENCODING 285
SWIDTH 2880 0
DWIDTH 24 0
BBX 18 30 3 -6
BITMAP
03FE00
03FE00
03FE00
1F8FC0
1F8FC0
1F8FC0
000000
000000
000000
1FFE00
1FFE00
1FFE00
FC0FC0
FC0FC0
FC0FC0
1FFE00
1FFE00
1FFE00
FC0000
FC0000
FC0000
1FFE00
1FFE00
1FFE00
000FC0
000FC0
000FC0
03FE00
03FE00
03FE00
ENDCHAR
STARTCHAR U+011E
ENCODING 286
SWIDTH 2880 0
DWIDTH 24 0
BBX 18 30 3 0
BITMAP
FC0FC0
FC0FC0
FC0FC0
1FFE00
1FFE00
1FFE00
000000
000000
000000
1FFE00
1FFE00
1FFE00
FC0FC0
FC0FC0
FC0FC0
FC0000
FC0000
FC0000
FC7FC0
FC7FC0
FC7FC0
FC0FC0
FC0FC0
FC0FC0
FC0FC0
FC0FC0
FC0FC0
1F8FC0
1F8FC0
1F8FC0
ENDCHAR
STARTCHAR U+011F
ENCODING 287
SWIDTH 2880 0
DWIDTH 24 0
BBX 18 30 3 -6
BITMAP
FC0FC0
FC0FC0
FC0FC0
1FFE00
1FFE00
1FFE00
000000
000000
000000
1FFE00
1FFE00
1FFE00
FC0FC0
FC0FC0
FC0FC0
1FFE00
1FFE00
1FFE00
FC0000
FC0000
FC0000
1FFE00
1FFE00
1FFE00
000FC0
000FC0
000FC0
03FE00
03FE00
03FE00
ENDCHAR
STARTCHAR U+0120
ENCODING 288
SWIDTH 2880 0
DWIDTH 24 0
BBX 18 30 3 0
BITMAP
03F000
03F000
03F000
03F000
03F000
03F000
000000
000000
000000
1FFE00
1FFE00
1FFE00
FC0FC0
FC0FC0
FC0FC0
FC0000
FC0000
FC0000
FC7FC0
FC7FC0
FC7FC0
FC0FC0
FC0FC0
FC0FC0
FC0FC0
FC0FC0
FC0FC0
1F8FC0
1F8FC0
1F8FC0
ENDCHAR
STARTCHAR U+0121
ENCODING 289
SWIDTH 2880 0
DWIDTH 24 0
BBX 18 30 3 -6
BITMAP
03F000
03F000
03F000
03F000
03F000
03F000
000000
000000
000000
1FFE00
1FFE00
1FFE00
FC0FC0
FC0FC0
FC0FC0
1FFE00
1FFE00
1FFE00
FC0000
FC0000
FC0000
1FFE00
1FFE00
1FFE00
000FC0
000FC0
000FC0
03FE00
03FE00
03FE00
ENDCHAR
STARTCHAR U+0122
ENCODING 290
SWIDTH 2880 0
DWIDTH 24 0
BBX 18 27 3 -6
BITMAP
1FFE00
1FFE00
1FFE00
FC0FC0
FC0FC0
FC0FC0
FC0000
FC0000
FC0000
FC7FC0
FC7FC0
FC7FC0
FC0FC0
FC0FC0
FC0FC0
FC0FC0
FC0FC0
FC0FC0
1FFFC0
1FFFC0
1FFFC0
007E00
007E00
007E00
03FE00
03FE00
03FE00
ENDCHAR
STARTCHAR U+0123
ENCODING 291
SWIDTH 2880 0
DWIDTH 24 0
BBX 18 33 3 -6
BITMAP
007000
007000
007000
038000
038000
038000
03F000
03F000
03F000
000000
000000
000000
1FFE00
1FFE00
1FFE00
FC0FC0
FC0FC0
FC0FC0
1FFE00
1FFE00
1FFE00
FC0000
FC0000
FC0000
1FFE00
1FFE00
1FFE00
000FC0
000FC0
000FC0
03FE00
03FE00
03FE00
ENDCHAR
STARTCHAR U+0124
ENCODING 292
SWIDTH 2880 0
DWIDTH 24 0
BBX 18 30 3 0
BITMAP
03FE00
03FE00
03FE00
1F8FC0
1F8FC0
1F8FC0
000000
000000
000000
FC0FC0
FC0FC0
FC0FC0
FC0FC0
FC0FC0
FC0FC0
FC0FC0
FC0FC0
FC0FC0
FFFFC0
FFFFC0
FFFFC0
FC0FC0
FC0FC0
FC0FC0
FC0FC0
FC0FC0
FC0FC0
FC0FC0
FC0FC0
FC0FC0
ENDCHAR
STARTCHAR U+0125
ENCODING 293
SWIDTH 2880 0
DWIDTH 24 0
BBX 18 30 3 0
BITMAP
1FF000
1FF000
1FF000
FC7E00
FC7E00
FC7E00
000000
000000
000000
FC0000
FC0000
FC0000
FC0000
FC0000
FC0000
FC7E00
FC7E00
FC7E00
FF8FC0
FF8FC0
FF8FC0
FC0FC0
FC0FC0
FC0FC0
FC0FC0
FC0FC0
FC0FC0
FC0FC0
FC0FC0
FC0FC0
ENDCHAR
STARTCHAR U+0126
ENCODING 294
SWIDTH 2880 0
DWIDTH 24 0
BBX 24 21 0 0
BITMAP
1F81F8
1F81F8
1F81F8
FFFFFF
FFFFFF
FFFFFF
1F81F8
1F81F8
1F81F8
1FFFF8
1FFFF8
1FFFF8
1F81F8
1F81F8
1F81F8
1F81F8
1F81F8
1F81F8
1F81F8
1F81F8
1F81F8
ENDCHAR
STARTCHAR U+0127
ENCODING 295
SWIDTH 2880 0
DWIDTH 24 0
BBX 21 24 0 0
BITMAP
1F8000
1F8000
1F8000
FFFE00
FFFE00
FFFE00
1F8000
1F8000
1F8000
1F8FC0
1F8FC0
1F8FC0
1FF1F8
1FF1F8
1FF1F8
1F81F8
1F81F8
1F81F8
1F81F8
1F81F8
1F81F8
1F81F8
1F81F8
1F81F8
ENDCHAR
STARTCHAR U+0128
ENCODING 296
SWIDTH 2880 0
DWIDTH 24 0
BBX 21 30 3 0
BITMAP
1FF1F8
1FF1F8
1FF1F8
FC7FC0
FC7FC0
FC7FC0
000000
000000
000000
FFFFC0
FFFFC0
FFFFC0
03F000
03F000
03F000
03F000
03F000
03F000
03F000
03F000
03F000
03F000
03F000
03F000
03F000
03F000
03F000
FFFFC0
FFFFC0
FFFFC0
ENDCHAR
STARTCHAR U+0129
ENCODING 297
SWIDTH 2880 0
DWIDTH 24 0
BBX 21 24 3 0
BITMAP
1FF1F8
1FF1F8
1FF1F8
FC7FC0
FC7FC0
FC7FC0
000000
000000
000000
FFF000
FFF000
FFF000
03F000
03F000
03F000
03F000
03F000
03F000
03F000
03F000
03F000
007FC0
007FC0
007FC0
ENDCHAR
STARTCHAR U+012A
ENCODING 298
SWIDTH 2880 0
DWIDTH 24 0
BBX 18 27 3 0
BITMAP
1FFE00
1FFE00
1FFE00
000000
000000
000000
FFFFC0
FFFFC0
FFFFC0
03F000
03F000
03F000
03F000
03F000
03F000
03F000
03F000
03F000
03F000
03F000
03F000
03F000
03F000
03F000
FFFFC0
FFFFC0
FFFFC0
ENDCHAR
STARTCHAR U+012B
ENCODING 299
SWIDTH 2880 0
DWIDTH 24 0
BBX 18 21 3 0
BITMAP
1FFE00
1FFE00
1FFE00
000000
000000
000000
FFF000
FFF000
FFF000
03F000
03F000
03F000
03F000
03F000
03F000
03F000
03F000
03F000
007FC0
007FC0
007FC0
ENDCHAR
STARTCHAR U+012C
ENCODING 300
SWIDTH 2880 0
DWIDTH 24 0
BBX 18 30 3 0
BITMAP
FC0FC0
FC0FC0
FC0FC0
1FFE00
1FFE00
1FFE00
000000
000000
000000
FFFFC0
FFFFC0
FFFFC0
03F000
03F000
03F000
03F000
03F000
03F000
03F000
03F000
03F000
03F000
03F000
03F000
03F000
03F000
03F000
FFFFC0
FFFFC0
FFFFC0
ENDCHAR
STARTCHAR U+012D
ENCODING 301
SWIDTH 2880 0
DWIDTH 24 0
BBX 18 24 3 0
BITMAP
FC0FC0
FC0FC0
FC0FC0
1FFE00
1FFE00
1FFE00
000000
000000
000000
FFF000
FFF000
FFF000
03F000
03F000
03F000
03F000
03F000
03F000
03F000
03F000
03F000
007FC0
007FC0
007FC0
ENDCHAR
STARTCHAR U+012E
ENCODING 302
SWIDTH 2880 0
DWIDTH 24 0
BBX 18 27 3 -6
BITMAP
FFFFC0
FFFFC0
FFFFC0
03F000
03F000
03F000
03F000
03F000
03F000
03F000
03F000
03F000
03F000
03F000
03F000
03F000
03F000
03F000
FFFFC0
FFFFC0
FFFFC0
03F000
03F000
03F000
03FE00
03FE00
03FE00
ENDCHAR
STARTCHAR U+012F
ENCODING 303
SWIDTH 2880 0
DWIDTH 24 0
BBX 18 27 3 -6
BITMAP
03F000
03F000
03F000
000000
000000
000000
FFF000
FFF000
FFF000
03F000
03F000
03F000
03F000
03F000
03F000
03F000
03F000
03F000
007FC0
007FC0
007FC0
03F000
03F000
03F000
03FE00
03FE00
03FE00
ENDCHAR
STARTCHAR U+0130
ENCODING 304
SWIDTH 2880 0
DWIDTH 24 0
BBX 18 30 3 0
BITMAP
03F000
03F000
03F000
03F000
03F000
03F000
000000
000000
000000
FFFFC0
FFFFC0
FFFFC0
03F000
03F000
03F000
03F000
03F000
03F000
03F000
03F000
03F000
03F000
03F000
03F000
03F000
03F000
03F000
FFFFC0
FFFFC0
FFFFC0
ENDCHAR
STARTCHAR U+0131
ENCODING 305
SWIDTH 2880 0
DWIDTH 24 0
BBX 18 15 3 0
BITMAP
FFF000
FFF000
FFF000
03F000
03F000
03F000
03F000
03F000
03F000
03F000
03F000
03F000
007FC0
007FC0
007FC0
ENDCHAR
STARTCHAR U+0132
ENCODING 306
SWIDTH 2880 0
DWIDTH 24 0
BBX 24 27 0 -6
BITMAP
FFFFFF
FFFFFF
FFFFFF
1F81F8
1F81F8
1F81F8
1F81F8
1F81F8
1F81F8
1F81F8
1F81F8
1F81F8
1F81F8
1F81F8
1F81F8
1F81F8
1F81F8
1F81F8
FFF1F8
FFF1F8
FFF1F8
0001F8
0001F8
0001F8
007FC0
007FC0
007FC0
ENDCHAR
STARTCHAR U+0133
ENCODING 307
SWIDTH 2880 0
DWIDTH 24 0
BBX 21 27 0 -6
BITMAP
1F81F8
1F81F8
1F81F8
000000
000000
000000
FF8FF8
FF8FF8
FF8FF8
1F81F8
1F81F8
1F81F8
1F81F8
1F81F8
1F81F8
1F81F8
1F81F8
1F81F8
03F1F8
03F1F8
03F1F8
0001F8
0001F8
0001F8
007FC0
007FC0
007FC0
ENDCHAR
STARTCHAR U+0134
ENCODING 308
SWIDTH 2880 0
DWIDTH 24 0
BBX 18 33 3 -3
BITMAP
03FE00
03FE00
03FE00
1F8FC0
1F8FC0
1F8FC0
000000
000000
000000
1FFFC0
1FFFC0
1FFFC0
007E00
007E00
007E00
007E00
007E00
007E00
007E00
007E00
007E00
007E00
007E00
007E00
007E00
007E00
007E00
FC7E00
FC7E00
FC7E00
1FF000
1FF000
1FF000
ENDCHAR
STARTCHAR U+0135
ENCODING 309
SWIDTH 2880 0
DWIDTH 24 0
BBX 18 30 3 -6
BITMAP
03FE00
03FE00
03FE00
1F8FC0
1F8FC0
1F8FC0
000000
000000
000000
1FFE00
1FFE00
1FFE00
007E00
007E00
007E00
007E00
007E00
007E00
007E00
007E00
007E00
007E00
007E00
007E00
FC7E00
FC7E00
FC7E00
1FF000
1FF000
1FF000
ENDCHAR
STARTCHAR U+0136
ENCODING 310
SWIDTH 2880 0
DWIDTH 24 0
BBX 18 27 3 -6
BITMAP
FC0FC0
FC0FC0
FC0FC0
FC0FC0
FC0FC0
FC0FC0
FC0E00
FC0E00
FC0E00
FC7000
FC7000
FC7000
FF8E00
FF8E00
FF8E00
FC0FC0
FC0FC0
FC0FC0
FC0FC0
FC0FC0
FC0FC0
1F8000
1F8000
1F8000
FF8000
FF8000
FF8000
ENDCHAR
STARTCHAR U+0137
ENCODING 311
SWIDTH 2880 0
DWIDTH 24 0
BBX 18 27 3 -6
BITMAP
FC0000
FC0000
FC0000
FC0000
FC0000
FC0000
FC0FC0
FC0FC0
FC0FC0
FC0FC0
FC0FC0
FC0FC0
FC7E00
FC7E00
FC7E00
FF8FC0
FF8FC0
FF8FC0
FC0FC0
FC0FC0
FC0FC0
1F8000
1F8000
1F8000
FF8000
FF8000
FF8000
ENDCHAR
STARTCHAR U+0138
ENCODING 312
SWIDTH 2880 0
DWIDTH 24 0
BBX 18 15 3 0
BITMAP
FC0FC0
FC0FC0
FC0FC0
FC0FC0
FC0FC0
FC0FC0
FC7E00
FC7E00
FC7E00
FF8FC0
FF8FC0
FF8FC0
FC0FC0
FC0FC0
FC0FC0
ENDCHAR
STARTCHAR U+0139
ENCODING 313
SWIDTH 2880 0
DWIDTH 24 0
BBX 18 30 3 0
BITMAP
1F8000
1F8000
1F8000
FC0000
FC0000
FC0000
000000
000000
000000
FC0000
FC0000
FC0000
FC0000
FC0000
FC0000
FC0000
FC0000
FC0000
FC0000
FC0000
FC0000
FC0000
FC0000
FC0000
FC01C0
FC01C0
FC01C0
FFFFC0
FFFFC0
FFFFC0
ENDCHAR
STARTCHAR U+013A
ENCODING 314
SWIDTH 2880 0
DWIDTH 24 0
BBX 18 30 3 0
BITMAP
007E00
007E00
007E00
03F000
03F000
03F000
000000
000000
000000
FFF000
FFF000
FFF000
03F000
03F000
03F000
03F000
03F000
03F000
03F000
03F000
03F000
03F000
03F000
03F000
03F000
03F000
03F000
007FC0
007FC0
007FC0
ENDCHAR
STARTCHAR U+013B
ENCODING 315
SWIDTH 2880 0
DWIDTH 24 0
BBX 18 27 3 -6
BITMAP
FC0000
FC0000
FC0000
FC0000
FC0000
FC0000
FC0000
FC0000
FC0000
FC0000
FC0000
FC0000
FC0000
FC0000
FC0000
FC01C0
FC01C0
FC01C0
FFFFC0
FFFFC0
FFFFC0
03F000
03F000
03F000
1FF000
1FF000
1FF000
ENDCHAR
STARTCHAR U+013C
ENCODING 316
SWIDTH 2880 0
DWIDTH 24 0
BBX 18 27 3 -6
BITMAP
FFF000
FFF000
FFF000
03F000
03F000
03F000
03F000
03F000
03F000
03F000
03F000
03F000
03F000
03F000
03F000
03F000
03F000
03F000
007FC0
007FC0
007FC0
007E00
007E00
007E00
03FE00
03FE00
03FE00
ENDCHAR
STARTCHAR U+013D
ENCODING 317
SWIDTH 2880 0
DWIDTH 24 0
BBX 18 21 3 0
BITMAP
FC7E00
FC7E00
FC7E00
FC0E00
FC0E00
FC0E00
FC7000
FC7000
FC7000
FC0000
FC0000
FC0000
FC0000
FC0000
FC0000
FC01C0
FC01C0
FC01C0
FFFFC0
FFFFC0
FFFFC0
ENDCHAR
STARTCHAR U+013E
ENCODING 318
SWIDTH 2880 0
DWIDTH 24 0
BBX 18 21 3 0
BITMAP
FF8FC0
FF8FC0
FF8FC0
1F81C0
1F81C0
1F81C0
1F8E00
1F8E00
1F8E00
1F8000
1F8000
1F8000
1F8000
1F8000
1F8000
1F8000
1F8000
1F8000
03FE00
03FE00
03FE00
ENDCHAR
STARTCHAR U+013F
ENCODING 319
SWIDTH 2880 0
DWIDTH 24 0
BBX 18 21 3 0
BITMAP
FC0000
FC0000
FC0000
FC0000
FC0000
FC0000
FC7E00
FC7E00
FC7E00
FC7E00
FC7E00
FC7E00
FC0000
FC0000
FC0000
FC01C0
FC01C0
FC01C0
FFFFC0
FFFFC0
FFFFC0
ENDCHAR
STARTCHAR U+0140
ENCODING 320
SWIDTH 2880 0
DWIDTH 24 0
BBX 18 21 3 0
BITMAP
FF8000
FF8000
FF8000
1F8000
1F8000
1F8000
1F8FC0
1F8FC0
1F8FC0
1F8FC0
1F8FC0
1F8FC0
1F8000
1F8000
1F8000
1F8000
1F8000
1F8000
03FE00
03FE00
03FE00
ENDCHAR
STARTCHAR U+0141
ENCODING 321
SWIDTH 2880 0
DWIDTH 24 0
BBX 21 21 0 0
BITMAP
03F000
03F000
03F000
03F000
03F000
03F000
03FFC0
03FFC0
03FFC0
03F000
03F000
03F000
FFF000
FFF000
FFF000
03F038
03F038
03F038
03FFF8
03FFF8
03FFF8
ENDCHAR
STARTCHAR U+0142
ENCODING 322
SWIDTH 2880 0
DWIDTH 24 0
BBX 18 21 3 0
BITMAP
FFF000
FFF000
FFF000
03F000
03F000
03F000
03FFC0
03FFC0
03FFC0
03F000
03F000
03F000
FFF000
FFF000
FFF000
03F000
03F000
03F000
007FC0
007FC0
007FC0
ENDCHAR
STARTCHAR U+0143
ENCODING 323
SWIDTH 2880 0
DWIDTH 24 0
BBX 18 30 3 0
BITMAP
007E00
007E00
007E00
03F000
03F000
03F000
000000
000000
000000
E00FC0
E00FC0
E00FC0
FC0FC0
FC0FC0
FC0FC0
FF8FC0
FF8FC0
FF8FC0
FC7FC0
FC7FC0
FC7FC0
FC0FC0
FC0FC0
FC0FC0
FC0FC0
FC0FC0
FC0FC0
FC0FC0
FC0FC0
FC0FC0
ENDCHAR
STARTCHAR U+0144
ENCODING 324
SWIDTH 2880 0
DWIDTH 24 0
BBX 18 24 3 0
BITMAP
007E00
007E00
007E00
03F000
03F000
03F000
000000
000000
000000
FC7E00
FC7E00
FC7E00
FF8FC0
FF8FC0
FF8FC0
FC0FC0
FC0FC0
FC0FC0
FC0FC0
FC0FC0
FC0FC0
FC0FC0
FC0FC0
FC0FC0
ENDCHAR
STARTCHAR U+0145
ENCODING 325
SWIDTH 2880 0
DWIDTH 24 0
BBX 18 27 3 -6
BITMAP
E00FC0
E00FC0
E00FC0
FC0FC0
FC0FC0
FC0FC0
FF8FC0
FF8FC0
FF8FC0
FC7FC0
FC7FC0
FC7FC0
FC0FC0
FC0FC0
FC0FC0
FC0FC0
FC0FC0
FC0FC0
FC0FC0
FC0FC0
FC0FC0
1F8000
1F8000
1F8000
FF8000
FF8000
FF8000
ENDCHAR
STARTCHAR U+0146
ENCODING 326
SWIDTH 2880 0
DWIDTH 24 0
BBX 18 21 3 -6
BITMAP
FC7E00
FC7E00
FC7E00
FF8FC0
FF8FC0
FF8FC0
FC0FC0
FC0FC0
FC0FC0
FC0FC0
FC0FC0
FC0FC0
FC0FC0
FC0FC0
FC0FC0
1F8000
1F8000
1F8000
FF8000
FF8000
FF8000
ENDCHAR
STARTCHAR U+0147
ENCODING 327
SWIDTH 2880 0
DWIDTH 24 0
BBX 18 30 3 0
BITMAP
1F8FC0
1F8FC0
1F8FC0
03FE00
03FE00
03FE00
000000
000000
000000
E00FC0
E00FC0
E00FC0
FC0FC0
FC0FC0
FC0FC0
FF8FC0
FF8FC0
FF8FC0
FC7FC0
FC7FC0
FC7FC0
FC0FC0
FC0FC0
FC0FC0
FC0FC0
FC0FC0
FC0FC0
FC0FC0
FC0FC0
FC0FC0
ENDCHAR
STARTCHAR U+0148
ENCODING 328
SWIDTH 2880 0
DWIDTH 24 0
BBX 18 24 3 0
BITMAP
1F8FC0
1F8FC0
1F8FC0
03FE00
03FE00
03FE00
000000
000000
000000
FC7E00
FC7E00
FC7E00
FF8FC0
FF8FC0
FF8FC0
FC0FC0
FC0FC0
FC0FC0
FC0FC0
FC0FC0
FC0FC0
FC0FC0
FC0FC0
FC0FC0
ENDCHAR
STARTCHAR U+0149
ENCODING 329
SWIDTH 2880 0
DWIDTH 24 0
BBX 18 27 3 0
BITMAP
FC0000
FC0000
FC0000
1C0000
1C0000
1C0000
E00000
E00000
E00000
000000
000000
000000
FC7E00
FC7E00
FC7E00
FF8FC0
FF8FC0
FF8FC0
FC0FC0
FC0FC0
FC0FC0
FC0FC0
FC0FC0
FC0FC0
FC0FC0
FC0FC0
FC0FC0
ENDCHAR
STARTCHAR U+014A
ENCODING 330
SWIDTH 2880 0
DWIDTH 24 0
BBX 18 27 3 -6
BITMAP
FC7E00
FC7E00
FC7E00
FF8FC0
FF8FC0
FF8FC0
FC0FC0
FC0FC0
FC0FC0
FC0FC0
FC0FC0
FC0FC0
FC0FC0
FC0FC0
FC0FC0
FC0FC0
FC0FC0
FC0FC0
FC0FC0
FC0FC0
FC0FC0
000FC0
000FC0
000FC0
03FE00
03FE00
03FE00
ENDCHAR
STARTCHAR U+014B
ENCODING 331
SWIDTH 2880 0
DWIDTH 24 0
BBX 18 21 3 -6
BITMAP
FC7E00
FC7E00
FC7E00
FF8FC0
FF8FC0
FF8FC0
FC0FC0
FC0FC0
FC0FC0
FC0FC0
FC0FC0
FC0FC0
FC0FC0
FC0FC0
FC0FC0
000FC0
000FC0
000FC0
03FE00
03FE00
03FE00
ENDCHAR
STARTCHAR U+014C
ENCODING 332
SWIDTH 2880 0
DWIDTH 24 0
BBX 18 27 3 0
BITMAP
1FFE00
1FFE00
1FFE00
000000
000000
000000
1FFE00
1FFE00
1FFE00
FC0FC0
FC0FC0
FC0FC0
FC0FC0
FC0FC0
FC0FC0
FC0FC0
FC0FC0
FC0FC0
FC0FC0
FC0FC0
FC0FC0
FC0FC0
FC0FC0
FC0FC0
1FFE00
1FFE00
1FFE00
ENDCHAR
STARTCHAR U+014D
ENCODING 333
SWIDTH 2880 0
DWIDTH 24 0
BBX 18 21 3 0
BITMAP
1FFE00
1FFE00
1FFE00
000000
000000
000000
1FFE00
1FFE00
1FFE00
FC0FC0
FC0FC0
FC0FC0
FC0FC0
FC0FC0
FC0FC0
FC0FC0
FC0FC0
FC0FC0
1FFE00
1FFE00
1FFE00
ENDCHAR
STARTCHAR U+014E
ENCODING 334
SWIDTH 2880 0
DWIDTH 24 0
BBX 18 30 3 0
BITMAP
FC0FC0
FC0FC0
FC0FC0
1FFE00
1FFE00
1FFE00
000000
000000
000000
1FFE00
1FFE00
1FFE00
FC0FC0
FC0FC0
FC0FC0
FC0FC0
FC0FC0
FC0FC0
FC0FC0
FC0FC0
FC0FC0
FC0FC0
FC0FC0
FC0FC0
FC0FC0
FC0FC0
FC0FC0
1FFE00
1FFE00
1FFE00
ENDCHAR
STARTCHAR U+014F
ENCODING 335
SWIDTH 2880 0
DWIDTH 24 0
BBX 18 24 3 0
BITMAP
FC0FC0
FC0FC0
FC0FC0
1FFE00
1FFE00
1FFE00
000000
000000
000000
1FFE00
1FFE00
1FFE00
FC0FC0
FC0FC0
FC0FC0
FC0FC0
FC0FC0
FC0FC0
FC0FC0
FC0FC0
FC0FC0
1FFE00
1FFE00
1FFE00
ENDCHAR
STARTCHAR U+0150
ENCODING 336
SWIDTH 2880 0
DWIDTH 24 0
BBX 21 30 3 0
BITMAP
1F81F8
1F81F8
1F81F8
FC0FC0
FC0FC0
FC0FC0
000000
000000
000000
1FFE00
1FFE00
1FFE00
FC0FC0
FC0FC0
FC0FC0
FC0FC0
FC0FC0
FC0FC0
FC0FC0
FC0FC0
FC0FC0
FC0FC0
FC0FC0
FC0FC0
FC0FC0
FC0FC0
FC0FC0
1FFE00
1FFE00
1FFE00
ENDCHAR
STARTCHAR U+0151
ENCODING 337
SWIDTH 2880 0
DWIDTH 24 0
BBX 21 24 3 0
BITMAP
1F81F8
1F81F8
1F81F8
FC0FC0
FC0FC0
FC0FC0
000000
000000
000000
1FFE00
1FFE00
1FFE00
FC0FC0
FC0FC0
FC0FC0
FC0FC0
FC0FC0
FC0FC0
FC0FC0
FC0FC0
FC0FC0
1FFE00
1FFE00
1FFE00
ENDCHAR
STARTCHAR U+0152
ENCODING 338
SWIDTH 2880 0
DWIDTH 24 0
BBX 21 21 3 0
BITMAP
1FFFF8
1FFFF8
1FFFF8
FC7E00
FC7E00
FC7E00
FC7E00
FC7E00
FC7E00
FC7FC0
FC7FC0
FC7FC0
FC7E00
FC7E00
FC7E00
FC7E00
FC7E00
FC7E00
1FFFF8
1FFFF8
1FFFF8
ENDCHAR
STARTCHAR U+0153
ENCODING 339
SWIDTH 2880 0
DWIDTH 24 0
BBX 24 15 0 0
BITMAP
1FFFF8
1FFFF8
1FFFF8
FC7E3F
FC7E3F
FC7E3F
FC7FFF
FC7FFF
FC7FFF
FC7E00
FC7E00
FC7E00
1FFFF8
1FFFF8
1FFFF8
ENDCHAR
STARTCHAR U+0154
ENCODING 340
SWIDTH 2880 0
DWIDTH 24 0
BBX 18 30 3 0
BITMAP
007E00
007E00
007E00
03F000
03F000
03F000
000000
000000
000000
FFFE00
FFFE00
FFFE00
FC0FC0
FC0FC0
FC0FC0
FC0FC0
FC0FC0
FC0FC0
FC7E00
FC7E00
FC7E00
FC0E00
FC0E00
FC0E00
FC0FC0
FC0FC0
FC0FC0
FC0FC0
FC0FC0
FC0FC0
ENDCHAR
STARTCHAR U+0155
ENCODING 341
SWIDTH 2880 0
DWIDTH 24 0
BBX 18 24 3 0
BITMAP
007E00
007E00
007E00
03F000
03F000
03F000
000000
000000
000000
FF8FC0
FF8FC0
FF8FC0
1FF000
1FF000
1FF000
1F8000
1F8000
1F8000
1F8000
1F8000
1F8000
1F8000
1F8000
1F8000
ENDCHAR
STARTCHAR U+0156
ENCODING 342
SWIDTH 2880 0
DWIDTH 24 0
BBX 18 27 3 -6
BITMAP
FFFE00
FFFE00
FFFE00
FC0FC0
FC0FC0
FC0FC0
FC0FC0
FC0FC0
FC0FC0
FC7E00
FC7E00
FC7E00
FC0E00
FC0E00
FC0E00
FC0FC0
FC0FC0
FC0FC0
FC0FC0
FC0FC0
FC0FC0
1F8000
1F8000
1F8000
FF8000
FF8000
FF8000
ENDCHAR
STARTCHAR U+0157
ENCODING 343
SWIDTH 2880 0
DWIDTH 24 0
BBX 18 21 3 -6
BITMAP
FF8FC0
FF8FC0
FF8FC0
1FF000
1FF000
1FF000
1F8000
1F8000
1F8000
1F8000
1F8000
1F8000
1F8000
1F8000
1F8000
03F000
03F000
03F000
1FF000
1FF000
1FF000
ENDCHAR
STARTCHAR U+0158
ENCODING 344
SWIDTH 2880 0
DWIDTH 24 0
BBX 18 30 3 0
BITMAP
1F8FC0
1F8FC0
1F8FC0
03FE00
03FE00
03FE00
000000
000000
000000
FFFE00
FFFE00
FFFE00
FC0FC0
FC0FC0
FC0FC0
FC0FC0
FC0FC0
FC0FC0
FC7E00
FC7E00
FC7E00
FC0E00
FC0E00
FC0E00
FC0FC0
FC0FC0
FC0FC0
FC0FC0
FC0FC0
FC0FC0
ENDCHAR
STARTCHAR U+0159
ENCODING 345
SWIDTH 2880 0
DWIDTH 24 0
BBX 18 24 3 0
BITMAP
1F8FC0
1F8FC0
1F8FC0
03FE00
03FE00
03FE00
000000
000000
000000
FF8FC0
FF8FC0
FF8FC0
1FF000
1FF000
1FF000
1F8000
1F8000
1F8000
1F8000
1F8000
1F8000
1F8000
1F8000
1F8000
ENDCHAR
STARTCHAR U+015A
ENCODING 346
SWIDTH 2880 0
DWIDTH 24 0
BBX 18 30 3 0
BITMAP
007E00
007E00
007E00
03F000
03F000
03F000
000000
000000
000000
1FFE00
1FFE00
1FFE00
FC0FC0
FC0FC0
FC0FC0
FC0000
FC0000
FC0000
1FFE00
1FFE00
1FFE00
000FC0
000FC0
000FC0
FC0FC0
FC0FC0
FC0FC0
1FFE00
1FFE00
1FFE00
ENDCHAR
STARTCHAR U+015B
ENCODING 347
SWIDTH 2880 0
DWIDTH 24 0
BBX 18 24 3 0
BITMAP
007E00
007E00
007E00
03F000
03F000
03F000
000000
000000
000000
1FFE00
1FFE00
1FFE00
FC0000
FC0000
FC0000
1FFE00
1FFE00
1FFE00
000FC0
000FC0
000FC0
1FFE00
1FFE00
1FFE00
ENDCHAR
STARTCHAR U+015C
ENCODING 348
SWIDTH 2880 0
DWIDTH 24 0
BBX 18 30 3 0
BITMAP
03FE00
03FE00
03FE00
1F8FC0
1F8FC0
1F8FC0
000000
000000
000000
1FFE00
1FFE00
1FFE00
FC0FC0
FC0FC0
FC0FC0
FC0000
FC0000
FC0000
1FFE00
1FFE00
1FFE00
000FC0
000FC0
000FC0
FC0FC0
FC0FC0
FC0FC0
1FFE00
1FFE00
1FFE00
ENDCHAR
STARTCHAR U+015D
ENCODING 349
SWIDTH 2880 0
DWIDTH 24 0
BBX 18 24 3 0
BITMAP
03FE00
03FE00
03FE00
1F8FC0
1F8FC0
1F8FC0
000000
000000
000000
1FFE00
1FFE00
1FFE00
FC0000
FC0000
FC0000
1FFE00
1FFE00
1FFE00
000FC0
000FC0
000FC0
1FFE00
1FFE00
1FFE00
ENDCHAR
STARTCHAR U+015E
ENCODING 350
SWIDTH 2880 0
DWIDTH 24 0
BBX 18 27 3 -6
BITMAP
1FFE00
1FFE00
1FFE00
FC0FC0
FC0FC0
FC0FC0
FC0000
FC0000
FC0000
1FFE00
1FFE00
1FFE00
000FC0
000FC0
000FC0
FC0FC0
FC0FC0
FC0FC0
1FFE00
1FFE00
1FFE00
03F000
03F000
03F000
1FF000
1FF000
1FF000
ENDCHAR
STARTCHAR U+015F
ENCODING 351
SWIDTH 2880 0
DWIDTH 24 0
BBX 18 21 3 -6
BITMAP
1FFE00
1FFE00
1FFE00
FC0000
FC0000
FC0000
1FFE00
1FFE00
1FFE00
000FC0
000FC0
000FC0
1FFE00
1FFE00
1FFE00
03F000
03F000
03F000
1FF000
1FF000
1FF000
ENDCHAR
STARTCHAR U+0160
ENCODING 352
SWIDTH 2880 0
DWIDTH 24 0
BBX 18 30 3 0
BITMAP
1F8FC0
1F8FC0
1F8FC0
03FE00
03FE00
03FE00
000000
000000
000000
1FFE00
1FFE00
1FFE00
FC0FC0
FC0FC0
FC0FC0
FC0000
FC0000
FC0000
1FFE00
1FFE00
1FFE00
000FC0
000FC0
000FC0
FC0FC0
FC0FC0
FC0FC0
1FFE00
1FFE00
1FFE00
ENDCHAR
STARTCHAR U+0161
ENCODING 353
SWIDTH 2880 0
DWIDTH 24 0
BBX 18 24 3 0
BITMAP
1F8FC0
1F8FC0
1F8FC0
03FE00
03FE00
03FE00
000000
000000
000000
1FFE00
1FFE00
1FFE00
FC0000
FC0000
FC0000
1FFE00
1FFE00
1FFE00
000FC0
000FC0
000FC0
1FFE00
1FFE00
1FFE00
ENDCHAR
STARTCHAR U+0162
ENCODING 354
SWIDTH 2880 0
DWIDTH 24 0
BBX 18 27 3 -6
BITMAP
FFFFC0
FFFFC0
FFFFC0
03F000
03F000
03F000
03F000
03F000
03F000
03F000
03F000
03F000
03F000
03F000
03F000
03F000
03F000
03F000
03F000
03F000
03F000
007E00
007E00
007E00
03FE00
03FE00
03FE00
ENDCHAR
STARTCHAR U+0163
ENCODING 355
SWIDTH 2880 0
DWIDTH 24 0
BBX 18 27 3 -6
BITMAP
03F000
03F000
03F000
03F000
03F000
03F000
FFFFC0
FFFFC0
FFFFC0
03F000
03F000
03F000
03F000
03F000
03F000
03F000
03F000
03F000
007FC0
007FC0
007FC0
007E00
007E00
007E00
03FE00
03FE00
03FE00
ENDCHAR
STARTCHAR U+0164
ENCODING 356
SWIDTH 2880 0
DWIDTH 24 0
BBX 18 30 3 0
BITMAP
1F8FC0
1F8FC0
1F8FC0
03FE00
03FE00
03FE00
000000
000000
000000
FFFFC0
FFFFC0
FFFFC0
03F000
03F000
03F000
03F000
03F000
03F000
03F000
03F000
03F000
03F000
03F000
03F000
03F000
03F000
03F000
03F000
03F000
03F000
ENDCHAR
STARTCHAR U+0165
ENCODING 357
SWIDTH 2880 0
DWIDTH 24 0
BBX 21 27 3 0
BITMAP
0001F8
0001F8
0001F8
000038
000038
000038
03F1C0
03F1C0
03F1C0
03F000
03F000
03F000
FFFFC0
FFFFC0
FFFFC0
03F000
03F000
03F000
03F000
03F000
03F000
03F000
03F000
03F000
007FC0
007FC0
007FC0
ENDCHAR
STARTCHAR U+0166
ENCODING 358
SWIDTH 2880 0
DWIDTH 24 0
BBX 18 21 3 0
BITMAP
FFFFC0
FFFFC0
FFFFC0
03F000
03F000
03F000
03F000
03F000
03F000
1FFE00
1FFE00
1FFE00
03F000
03F000
03F000
03F000
03F000
03F000
03F000
03F000
03F000
ENDCHAR
STARTCHAR U+0167
ENCODING 359
SWIDTH 2880 0
DWIDTH 24 0
BBX 18 21 3 0
BITMAP
03F000
03F000
03F000
03F000
03F000
03F000
FFFFC0
FFFFC0
FFFFC0
03F000
03F000
03F000
FFFFC0
FFFFC0
FFFFC0
03F000
03F000
03F000
007FC0
007FC0
007FC0
ENDCHAR
STARTCHAR U+0168
ENCODING 360
SWIDTH 2880 0
DWIDTH 24 0
BBX 21 30 3 0
BITMAP
1FF1F8
1FF1F8
1FF1F8
FC7FC0
FC7FC0
FC7FC0
000000
000000
000000
FC0FC0
FC0FC0
FC0FC0
FC0FC0
FC0FC0
FC0FC0
FC0FC0
FC0FC0
FC0FC0
FC0FC0
FC0FC0
FC0FC0
FC0FC0
FC0FC0
FC0FC0
FC0FC0
FC0FC0
FC0FC0
1FFE00
1FFE00
1FFE00
ENDCHAR
STARTCHAR U+0169
ENCODING 361
SWIDTH 2880 0
DWIDTH 24 0
BBX 21 24 3 0
BITMAP
1FF1F8
1FF1F8
1FF1F8
FC7FC0
FC7FC0
FC7FC0
000000
000000
000000
FC0FC0
FC0FC0
FC0FC0
FC0FC0
FC0FC0
FC0FC0
FC0FC0
FC0FC0
FC0FC0
FC7FC0
FC7FC0
FC7FC0
1F8FC0
1F8FC0
1F8FC0
ENDCHAR
STARTCHAR U+016A
ENCODING 362
SWIDTH 2880 0
DWIDTH 24 0
BBX 18 27 3 0
BITMAP
1FFE00
1FFE00
1FFE00
000000
000000
000000
FC0FC0
FC0FC0
FC0FC0
FC0FC0
FC0FC0
FC0FC0
FC0FC0
FC0FC0
FC0FC0
FC0FC0
FC0FC0
FC0FC0
FC0FC0
FC0FC0
FC0FC0
FC0FC0
FC0FC0
FC0FC0
1FFE00
1FFE00
1FFE00
ENDCHAR
STARTCHAR U+016B
ENCODING 363
SWIDTH 2880 0
DWIDTH 24 0
BBX 18 21 3 0
BITMAP
1FFE00
1FFE00
1FFE00
000000
000000
000000
FC0FC0
FC0FC0
FC0FC0
FC0FC0
FC0FC0
FC0FC0
FC0FC0
FC0FC0
FC0FC0
FC7FC0
FC7FC0
FC7FC0
1F8FC0
1F8FC0
1F8FC0
ENDCHAR
STARTCHAR U+016C
ENCODING 364
SWIDTH 2880 0
DWIDTH 24 0
BBX 18 30 3 0
BITMAP
FC0FC0
FC0FC0
FC0FC0
1FFE00
1FFE00
1FFE00
000000
000000
000000
FC0FC0
FC0FC0
FC0FC0
FC0FC0
FC0FC0
FC0FC0
FC0FC0
FC0FC0
FC0FC0
FC0FC0
FC0FC0
FC0FC0
FC0FC0
FC0FC0
FC0FC0
FC0FC0
FC0FC0
FC0FC0
1FFE00
1FFE00
1FFE00
ENDCHAR
STARTCHAR U+016D
ENCODING 365
SWIDTH 2880 0
DWIDTH 24 0
BBX 18 24 3 0
BITMAP
FC0FC0
FC0FC0
FC0FC0
1FFE00
1FFE00
1FFE00
000000
000000
000000
FC0FC0
FC0FC0
FC0FC0
FC0FC0
FC0FC0
FC0FC0
FC0FC0
FC0FC0
FC0FC0
FC7FC0
FC7FC0
FC7FC0
1F8FC0
1F8FC0
1F8FC0
ENDCHAR
STARTCHAR U+016E
ENCODING 366
SWIDTH 2880 0
DWIDTH 24 0
BBX 18 30 3 0
BITMAP
03FE00
03FE00
03FE00
038E00
038E00
038E00
03FE00
03FE00
03FE00
000000
000000
000000
FC0FC0
FC0FC0
FC0FC0
FC0FC0
FC0FC0
FC0FC0
FC0FC0
FC0FC0
FC0FC0
FC0FC0
FC0FC0
FC0FC0
FC0FC0
FC0FC0
FC0FC0
1FFE00
1FFE00
1FFE00
ENDCHAR
STARTCHAR U+016F
ENCODING 367
SWIDTH 2880 0
DWIDTH 24 0
BBX 18 27 3 0
BITMAP
03FE00
03FE00
03FE00
038E00
038E00
038E00
03FE00
03FE00
03FE00
000000
000000
000000
FC0FC0
FC0FC0
FC0FC0
FC0FC0
FC0FC0
FC0FC0
FC0FC0
FC0FC0
FC0FC0
FC7FC0
FC7FC0
FC7FC0
1F8FC0
1F8FC0
1F8FC0
ENDCHAR
STARTCHAR U+0170
ENCODING 368
SWIDTH 2880 0
DWIDTH 24 0
BBX 21 30 3 0
BITMAP
1F81F8
1F81F8
1F81F8
FC0FC0
FC0FC0
FC0FC0
000000
000000
000000
FC0FC0
FC0FC0
FC0FC0
FC0FC0
FC0FC0
FC0FC0
FC0FC0
FC0FC0
FC0FC0
FC0FC0
FC0FC0
FC0FC0
FC0FC0
FC0FC0
FC0FC0
FC0FC0
FC0FC0
FC0FC0
1FFE00
1FFE00
1FFE00
ENDCHAR
STARTCHAR U+0171
ENCODING 369
SWIDTH 2880 0
DWIDTH 24 0
BBX 21 24 3 0
BITMAP
1F81F8
1F81F8
1F81F8
FC0FC0
FC0FC0
FC0FC0
000000
000000
000000
FC0FC0
FC0FC0
FC0FC0
FC0FC0
FC0FC0
FC0FC0
FC0FC0
FC0FC0
FC0FC0
FC7FC0
FC7FC0
FC7FC0
1F8FC0
1F8FC0
1F8FC0
ENDCHAR
STARTCHAR U+0172
ENCODING 370
SWIDTH 2880 0
DWIDTH 24 0
BBX 18 27 3 -6
BITMAP
FC0FC0
FC0FC0
FC0FC0
FC0FC0
FC0FC0
FC0FC0
FC0FC0
FC0FC0
FC0FC0
FC0FC0
FC0FC0
FC0FC0
FC0FC0
FC0FC0
FC0FC0
FC0FC0
FC0FC0
FC0FC0
1FFE00
1FFE00
1FFE00
03F000
03F000
03F000
03FE00
03FE00
03FE00
ENDCHAR
STARTCHAR U+0173
ENCODING 371
SWIDTH 2880 0
DWIDTH 24 0
BBX 18 21 3 -6
BITMAP
FC0FC0
FC0FC0
FC0FC0
FC0FC0
FC0FC0
FC0FC0
FC0FC0
FC0FC0
FC0FC0
FC0FC0
FC0FC0
FC0FC0
1FFFC0
1FFFC0
1FFFC0
007E00
007E00
007E00
007FC0
007FC0
007FC0
ENDCHAR
STARTCHAR U+0174
ENCODING 372
SWIDTH 2880 0
DWIDTH 24 0
BBX 21 30 3 0
BITMAP
03FE00
03FE00
03FE00
1F8FC0
1F8FC0
1F8FC0
000000
000000
000000
FC01F8
FC01F8
FC01F8
FC01F8
FC01F8
FC01F8
FC71F8
FC71F8
FC71F8
FC71F8
FC71F8
FC71F8
FC71F8
FC71F8
FC71F8
FC71F8
FC71F8
FC71F8
1F8FC0
1F8FC0
1F8FC0
ENDCHAR
STARTCHAR U+0175
ENCODING 373
SWIDTH 2880 0
DWIDTH 24 0
BBX 18 24 3 0
BITMAP
03FE00
03FE00
03FE00
1F8FC0
1F8FC0
1F8FC0
000000
000000
000000
FC71C0
FC71C0
FC71C0
FC71C0
FC71C0
FC71C0
FC71C0
FC71C0
FC71C0
FC71C0
FC71C0
FC71C0
1F8E00
1F8E00
1F8E00
ENDCHAR
STARTCHAR U+0176
ENCODING 374
SWIDTH 2880 0
DWIDTH 24 0
BBX 18 30 3 0
BITMAP
03FE00
03FE00
03FE00
1F8FC0
1F8FC0
1F8FC0
000000
000000
000000
FC0FC0
FC0FC0
FC0FC0
FC0FC0
FC0FC0
FC0FC0
1C0E00
1C0E00
1C0E00
03F000
03F000
03F000
03F000
03F000
03F000
03F000
03F000
03F000
03F000
03F000
03F000
ENDCHAR
STARTCHAR U+0177
ENCODING 375
SWIDTH 2880 0
DWIDTH 24 0
BBX 18 30 3 -6
BITMAP
03FE00
03FE00
03FE00
1F8FC0
1F8FC0
1F8FC0
000000
000000
000000
FC0FC0
FC0FC0
FC0FC0
FC0FC0
FC0FC0
FC0FC0
FC0FC0
FC0FC0
FC0FC0
FC7FC0
FC7FC0
FC7FC0
1F8FC0
1F8FC0
1F8FC0
000FC0
000FC0
000FC0
1FFE00
1FFE00
1FFE00
ENDCHAR
STARTCHAR U+0178
ENCODING 376
SWIDTH 2880 0
DWIDTH 24 0
BBX 18 30 3 0
BITMAP
FC0FC0
FC0FC0
FC0FC0
FC0FC0
FC0FC0
FC0FC0
000000
000000
000000
FC0FC0
FC0FC0
FC0FC0
FC0FC0
FC0FC0
FC0FC0
1C0E00
1C0E00
1C0E00
03F000
03F000
03F000
03F000
03F000
03F000
03F000
03F000
03F000
03F000
03F000
03F000
ENDCHAR
STARTCHAR U+0179
ENCODING 377
SWIDTH 2880 0
DWIDTH 24 0
BBX 18 30 3 0
BITMAP
007E00
007E00
007E00
03F000
03F000
03F000
000000
000000
000000
FFFFC0
FFFFC0
FFFFC0
E00FC0
E00FC0
E00FC0
007E00
007E00
007E00
03F000
03F000
03F000
1F8000
1F8000
1F8000
FC01C0
FC01C0
FC01C0
FFFFC0
FFFFC0
FFFFC0
ENDCHAR
STARTCHAR U+017A
ENCODING 378
SWIDTH 2880 0
DWIDTH 24 0
BBX 18 24 3 0
BITMAP
007E00
007E00
007E00
03F000
03F000
03F000
000000
000000
000000
FFFFC0
FFFFC0
FFFFC0
E07E00
E07E00
E07E00
03F000
03F000
03F000
1F81C0
1F81C0
1F81C0
FFFFC0
FFFFC0
FFFFC0
ENDCHAR
STARTCHAR U+017B
ENCODING 379
SWIDTH 2880 0
DWIDTH 24 0
BBX 18 30 3 0
BITMAP
03F000
03F000
03F000
03F000
03F000
03F000
000000
000000
000000
FFFFC0
FFFFC0
FFFFC0
E00FC0
E00FC0
E00FC0
007E00
007E00
007E00
03F000
03F000
03F000
1F8000
1F8000
1F8000
FC01C0
FC01C0
FC01C0
FFFFC0
FFFFC0
FFFFC0
ENDCHAR
STARTCHAR U+017C
ENCODING 380
SWIDTH 2880 0
DWIDTH 24 0
BBX 18 24 3 0
BITMAP
03F000
03F000
03F000
03F000
03F000
03F000
000000
000000
000000
FFFFC0
FFFFC0
FFFFC0
E07E00
E07E00
E07E00
03F000
03F000
03F000
1F81C0
1F81C0
1F81C0
FFFFC0
FFFFC0
FFFFC0
ENDCHAR
STARTCHAR U+017D
ENCODING 381
SWIDTH 2880 0
DWIDTH 24 0
BBX 18 30 3 0
BITMAP
1F8FC0
1F8FC0
1F8FC0
03FE00
03FE00
03FE00
000000
000000
000000
FFFFC0
FFFFC0
FFFFC0
E00FC0
E00FC0
E00FC0
007E00
007E00
007E00
03F000
03F000
03F000
1F8000
1F8000
1F8000
FC01C0
FC01C0
FC01C0
FFFFC0
FFFFC0
FFFFC0
ENDCHAR
STARTCHAR U+017E
ENCODING 382
SWIDTH 2880 0
DWIDTH 24 0
BBX 18 24 3 0
BITMAP
1F8FC0
1F8FC0
1F8FC0
03FE00
03FE00
03FE00
000000
000000
000000
FFFFC0
FFFFC0
FFFFC0
E07E00
E07E00
E07E00
03F000
03F000
03F000
1F81C0
1F81C0
1F81C0
FFFFC0
FFFFC0
FFFFC0
ENDCHAR
STARTCHAR U+017F
ENCODING 383
SWIDTH 2880 0
DWIDTH 24 0
BBX 18 27 3 -6
BITMAP
007FC0
007FC0
007FC0
03F000
03F000
03F000
03F000
03F000
03F000
03F000
03F000
03F000
03F000
03F000
03F000
03F000
03F000
03F000
03F000
03F000
03F000
03F000
03F000
03F000
FF8000
FF8000
FF8000
ENDCHAR
STARTCHAR U+0180
ENCODING 384
SWIDTH 2880 0
DWIDTH 24 0
BBX 21 24 0 0
BITMAP
1F8000
1F8000
1F8000
FFFE00
FFFE00
FFFE00
1F8000
1F8000
1F8000
1F8FC0
1F8FC0
1F8FC0
1FF1F8
1FF1F8
1FF1F8
1F81F8
1F81F8
1F81F8
1F81F8
1F81F8
1F81F8
1F8FC0
1F8FC0
1F8FC0
ENDCHAR
STARTCHAR U+0181
ENCODING 385
SWIDTH 2880 0
DWIDTH 24 0
BBX 24 21 0 0
BITMAP
FFFFF8
FFFFF8
FFFFF8
E3F03F
E3F03F
E3F03F
03F03F
03F03F
03F03F
03F1F8
03F1F8
03F1F8
03F03F
03F03F
03F03F
03F03F
03F03F
03F03F
03F1F8
03F1F8
03F1F8
ENDCHAR
STARTCHAR U+0182
ENCODING 386
SWIDTH 2880 0
DWIDTH 24 0
BBX 18 21 3 0
BITMAP
FFFE00
FFFE00
FFFE00
FC0E00
FC0E00
FC0E00
FC0000
FC0000
FC0000
FFFE00
FFFE00
FFFE00
FC0FC0
FC0FC0
FC0FC0
FC0FC0
FC0FC0
FC0FC0
FFFE00
FFFE00
FFFE00
ENDCHAR
STARTCHAR U+0183
ENCODING 387
SWIDTH 2880 0
DWIDTH 24 0
BBX 18 21 3 0
BITMAP
FFFE00
FFFE00
FFFE00
FC0000
FC0000
FC0000
FC7E00
FC7E00
FC7E00
FF8FC0
FF8FC0
FF8FC0
FC0FC0
FC0FC0
FC0FC0
FC0FC0
FC0FC0
FC0FC0
FC7E00
FC7E00
FC7E00
ENDCHAR
STARTCHAR U+0184
ENCODING 388
SWIDTH 2880 0
DWIDTH 24 0
BBX 21 21 0 0
BITMAP
038000
038000
038000
FF8000
FF8000
FF8000
1F8000
1F8000
1F8000
1FFFC0
1FFFC0
1FFFC0
1F81F8
1F81F8
1F81F8
1F81F8
1F81F8
1F81F8
1FFFC0
1FFFC0
1FFFC0
ENDCHAR
STARTCHAR U+0185
ENCODING 389
SWIDTH 2880 0
DWIDTH 24 0
BBX 21 15 0 0
BITMAP
038000
038000
038000
FF8000
FF8000
FF8000
1FFFC0
1FFFC0
1FFFC0
1F81F8
1F81F8
1F81F8
1FFFC0
1FFFC0
1FFFC0
ENDCHAR
STARTCHAR U+0186
ENCODING 390
SWIDTH 2880 0
DWIDTH 24 0
BBX 18 21 3 0
BITMAP
1FFE00
1FFE00
1FFE00
FC0FC0
FC0FC0
FC0FC0
000FC0
000FC0
000FC0
000FC0
000FC0
000FC0
000FC0
000FC0
000FC0
FC0FC0
FC0FC0
FC0FC0
1FFE00
1FFE00
1FFE00
ENDCHAR
STARTCHAR U+0187
ENCODING 391
SWIDTH 2880 0
DWIDTH 24 0
BBX 21 27 3 0
BITMAP
0001F8
0001F8
0001F8
000FC0
000FC0
000FC0
1FFFC0
1FFFC0
1FFFC0
FC0FC0
FC0FC0
FC0FC0
FC0000
FC0000
FC0000
FC0000
FC0000
FC0000
FC0000
FC0000
FC0000
FC0FC0
FC0FC0
FC0FC0
1FFE00
1FFE00
1FFE00
ENDCHAR
STARTCHAR U+0188
ENCODING 392
SWIDTH 2880 0
DWIDTH 24 0
BBX 18 21 3 0
BITMAP
000FC0
000FC0
000FC0
007E00
007E00
007E00
1FFE00
1FFE00
1FFE00
FC0E00
FC0E00
FC0E00
FC0000
FC0000
FC0000
FC0FC0
FC0FC0
FC0FC0
1FFE00
1FFE00
1FFE00
ENDCHAR
STARTCHAR U+0189
ENCODING 393
SWIDTH 2880 0
DWIDTH 24 0
BBX 21 21 0 0
BITMAP
1FFE00
1FFE00
1FFE00
1F81C0
1F81C0
1F81C0
1F81F8
1F81F8
1F81F8
FFF1F8
FFF1F8
FFF1F8
1F81F8
1F81F8
1F81F8
1F81C0
1F81C0
1F81C0
1FFE00
1FFE00
1FFE00
ENDCHAR
STARTCHAR U+018A
ENCODING 394
SWIDTH 2880 0
DWIDTH 24 0
BBX 24 21 0 0
BITMAP
FFFFC0
FFFFC0
FFFFC0
E3F038
E3F038
E3F038
03F03F
03F03F
03F03F
03F03F
03F03F
03F03F
03F03F
03F03F
03F03F
03F038
03F038
03F038
03FFC0
03FFC0
03FFC0
ENDCHAR
STARTCHAR U+018B
ENCODING 395
SWIDTH 2880 0
DWIDTH 24 0
BBX 18 21 3 0
BITMAP
1FFFC0
1FFFC0
1FFFC0
1C0FC0
1C0FC0
1C0FC0
000FC0
000FC0
000FC0
1FFFC0
1FFFC0
1FFFC0
FC0FC0
FC0FC0
FC0FC0
FC0FC0
FC0FC0
FC0FC0
1FFFC0
1FFFC0
1FFFC0
ENDCHAR
STARTCHAR U+018C
ENCODING 396
SWIDTH 2880 0
DWIDTH 24 0
BBX 18 21 3 0
BITMAP
1FFFC0
1FFFC0
1FFFC0
000FC0
000FC0
000FC0
1F8FC0
1F8FC0
1F8FC0
FC7FC0
FC7FC0
FC7FC0
FC0FC0
FC0FC0
FC0FC0
FC0FC0
FC0FC0
FC0FC0
1F8FC0
1F8FC0
1F8FC0
ENDCHAR
STARTCHAR U+018D
ENCODING 397
SWIDTH 2880 0
DWIDTH 24 0
BBX 18 21 3 -6
BITMAP
1FFE00
1FFE00
1FFE00
FC0FC0
FC0FC0
FC0FC0
FC0FC0
FC0FC0
FC0FC0
FC0FC0
FC0FC0
FC0FC0
1FFE00
1FFE00
1FFE00
000FC0
000FC0
000FC0
1FFE00
1FFE00
1FFE00
ENDCHAR
STARTCHAR U+018E
ENCODING 398
SWIDTH 2880 0
DWIDTH 24 0
BBX 18 21 3 0
BITMAP
FFFFC0
FFFFC0
FFFFC0
E00FC0
E00FC0
E00FC0
000FC0
000FC0
000FC0
03FFC0
03FFC0
03FFC0
000FC0
000FC0
000FC0
E00FC0
E00FC0
E00FC0
FFFFC0
FFFFC0
FFFFC0
ENDCHAR
STARTCHAR U+018F
ENCODING 399
SWIDTH 2880 0
DWIDTH 24 0
BBX 18 21 3 0
BITMAP
1FFE00
1FFE00
1FFE00
FC0FC0
FC0FC0
FC0FC0
000FC0
000FC0
000FC0
FFFFC0
FFFFC0
FFFFC0
FC0FC0
FC0FC0
FC0FC0
FC0FC0
FC0FC0
FC0FC0
1FFE00
1FFE00
1FFE00
ENDCHAR
STARTCHAR U+0190
ENCODING 400
SWIDTH 2880 0
DWIDTH 24 0
BBX 18 21 3 0
BITMAP
1FFE00
1FFE00
1FFE00
FC0E00
FC0E00
FC0E00
FC0000
FC0000
FC0000
1FF000
1FF000
1FF000
FC0000
FC0000
FC0000
FC0FC0
FC0FC0
FC0FC0
1FFE00
1FFE00
1FFE00
ENDCHAR
STARTCHAR U+0191
ENCODING 401
SWIDTH 2880 0
DWIDTH 24 0
BBX 21 27 0 -6
BITMAP
1FFFF8
1FFFF8
1FFFF8
1F8038
1F8038
1F8038
1F8000
1F8000
1F8000
1FFE00
1FFE00
1FFE00
1F8000
1F8000
1F8000
1F8000
1F8000
1F8000
1F8000
1F8000
1F8000
1F8000
1F8000
1F8000
FC0000
FC0000
FC0000
ENDCHAR
STARTCHAR U+0192
ENCODING 402
SWIDTH 2880 0
DWIDTH 24 0
BBX 18 27 3 -6
BITMAP
007FC0
007FC0
007FC0
03F000
03F000
03F000
FFFFC0
FFFFC0
FFFFC0
03F000
03F000
03F000
03F000
03F000
03F000
03F000
03F000
03F000
03F000
03F000
03F000
03F000
03F000
03F000
1F8000
1F8000
1F8000
ENDCHAR
STARTCHAR U+0193
ENCODING 403
SWIDTH 2880 0
DWIDTH 24 0
BBX 21 27 3 0
BITMAP
0001F8
0001F8
0001F8
000FC0
000FC0
000FC0
1FFFC0
1FFFC0
1FFFC0
FC0FC0
FC0FC0
FC0FC0
FC0000
FC0000
FC0000
FC7FC0
FC7FC0
FC7FC0
FC0FC0
FC0FC0
FC0FC0
FC0FC0
FC0FC0
FC0FC0
1F8FC0
1F8FC0
1F8FC0
ENDCHAR
STARTCHAR U+0194
ENCODING 404
SWIDTH 2880 0
DWIDTH 24 0
BBX 18 27 3 -6
BITMAP
FC0FC0
FC0FC0
FC0FC0
FC0FC0
FC0FC0
FC0FC0
FC0FC0
FC0FC0
FC0FC0
FC0FC0
FC0FC0
FC0FC0
FC0E00
FC0E00
FC0E00
1C7000
1C7000
1C7000
038000
038000
038000
1C7000
1C7000
1C7000
1FF000
1FF000
1FF000
ENDCHAR
STARTCHAR U+0195
ENCODING 405
SWIDTH 2880 0
DWIDTH 24 0
BBX 21 21 3 0
BITMAP
FC0000
FC0000
FC0000
FC0000
FC0000
FC0000
FFF038
FFF038
FFF038
FC7E38
FC7E38
FC7E38
FC7E38
FC7E38
FC7E38
FC7E38
FC7E38
FC7E38
FC0FC0
FC0FC0
FC0FC0
ENDCHAR
STARTCHAR U+0196
ENCODING 406
SWIDTH 2880 0
DWIDTH 24 0
BBX 18 21 3 0
BITMAP
007000
007000
007000
FFF000
FFF000
FFF000
03F000
03F000
03F000
03F000
03F000
03F000
03F000
03F000
03F000
03F000
03F000
03F000
007FC0
007FC0
007FC0
ENDCHAR
STARTCHAR U+0197
ENCODING 407
SWIDTH 2880 0
DWIDTH 24 0
BBX 18 21 3 0
BITMAP
FFFFC0
FFFFC0
FFFFC0
03F000
03F000
03F000
03F000
03F000
03F000
FFFFC0
FFFFC0
FFFFC0
03F000
03F000
03F000
03F000
03F000
03F000
FFFFC0
FFFFC0
FFFFC0
ENDCHAR
STARTCHAR U+0198
ENCODING 408
SWIDTH 2880 0
DWIDTH 24 0
BBX 21 24 3 0
BITMAP
0001F8
0001F8
0001F8
FC0FC0
FC0FC0
FC0FC0
FC0FC0
FC0FC0
FC0FC0
FC0E00
FC0E00
FC0E00
FC7000
FC7000
FC7000
FF8E00
FF8E00
FF8E00
FC0FC0
FC0FC0
FC0FC0
FC0FC0
FC0FC0
FC0FC0
ENDCHAR
STARTCHAR U+0199
ENCODING 409
SWIDTH 2880 0
DWIDTH 24 0
BBX 18 24 3 0
BITMAP
1F8000
1F8000
1F8000
FC0000
FC0000
FC0000
FC0000
FC0000
FC0000
FC0FC0
FC0FC0
FC0FC0
FC0FC0
FC0FC0
FC0FC0
FC7E00
FC7E00
FC7E00
FF8FC0
FF8FC0
FF8FC0
FC0FC0
FC0FC0
FC0FC0
ENDCHAR
STARTCHAR U+019A
ENCODING 410
SWIDTH 2880 0
DWIDTH 24 0
BBX 18 21 3 0
BITMAP
FFF000
FFF000
FFF000
03F000
03F000
03F000
03F000
03F000
03F000
FFFFC0
FFFFC0
FFFFC0
03F000
03F000
03F000
03F000
03F000
03F000
007FC0
007FC0
007FC0
ENDCHAR
STARTCHAR U+019B
ENCODING 411
SWIDTH 2880 0
DWIDTH 24 0
BBX 21 21 3 0
BITMAP
03F000
03F000
03F000
007E00
007E00
007E00
1FFFC0
1FFFC0
1FFFC0
007E00
007E00
007E00
1FFE00
1FFE00
1FFE00
FC7E00
FC7E00
FC7E00
FC0FF8
FC0FF8
FC0FF8
ENDCHAR
STARTCHAR U+019C
ENCODING 412
SWIDTH 2880 0
DWIDTH 24 0
BBX 21 21 3 0
BITMAP
FC71F8
FC71F8
FC71F8
FC71F8
FC71F8
FC71F8
FC71F8
FC71F8
FC71F8
FC71F8
FC71F8
FC71F8
FC71F8
FC71F8
FC71F8
FC71F8
FC71F8
FC71F8
1F8E38
1F8E38
1F8E38
ENDCHAR
STARTCHAR U+019D
ENCODING 413
SWIDTH 2880 0
DWIDTH 24 0
BBX 21 27 3 -6
BITMAP
1C01F8
1C01F8
1C01F8
1F81F8
1F81F8
1F81F8
1FF1F8
1FF1F8
1FF1F8
1F8FF8
1F8FF8
1F8FF8
1F81F8
1F81F8
1F81F8
1F81F8
1F81F8
1F81F8
1F81F8
1F81F8
1F81F8
1F8000
1F8000
1F8000
FC0000
FC0000
FC0000
ENDCHAR
STARTCHAR U+019E
ENCODING 414
SWIDTH 2880 0
DWIDTH 24 0
BBX 18 21 3 -6
BITMAP
FC7E00
FC7E00
FC7E00
FF8FC0
FF8FC0
FF8FC0
FC0FC0
FC0FC0
FC0FC0
FC0FC0
FC0FC0
FC0FC0
FC0FC0
FC0FC0
FC0FC0
000FC0
000FC0
000FC0
000FC0
000FC0
000FC0
ENDCHAR
STARTCHAR U+019F
ENCODING 415
SWIDTH 2880 0
DWIDTH 24 0
BBX 18 21 3 0
BITMAP
1FFE00
1FFE00
1FFE00
FC0FC0
FC0FC0
FC0FC0
FC0FC0
FC0FC0
FC0FC0
FFFFC0
FFFFC0
FFFFC0
FC0FC0
FC0FC0
FC0FC0
FC0FC0
FC0FC0
FC0FC0
1FFE00
1FFE00
1FFE00
ENDCHAR
STARTCHAR U+01A0
ENCODING 416
SWIDTH 2880 0
DWIDTH 24 0
BBX 21 27 3 0
BITMAP
0001F8
0001F8
0001F8
000038
000038
000038
1FFFF8
1FFFF8
1FFFF8
FC0FC0
FC0FC0
FC0FC0
FC0FC0
FC0FC0
FC0FC0
FC0FC0
FC0FC0
FC0FC0
FC0FC0
FC0FC0
FC0FC0
FC0FC0
FC0FC0
FC0FC0
1FFE00
1FFE00
1FFE00
ENDCHAR
STARTCHAR U+01A1
ENCODING 417
SWIDTH 2880 0
DWIDTH 24 0
BBX 21 21 3 0
BITMAP
0001F8
0001F8
0001F8
000038
000038
000038
1FFFF8
1FFFF8
1FFFF8
FC0FC0
FC0FC0
FC0FC0
FC0FC0
FC0FC0
FC0FC0
FC0FC0
FC0FC0
FC0FC0
1FFE00
1FFE00
1FFE00
ENDCHAR
STARTCHAR U+01A2
ENCODING 418
SWIDTH 2880 0
DWIDTH 24 0
BBX 21 27 3 -6
BITMAP
1F8FF8
1F8FF8
1F8FF8
FC71F8
FC71F8
FC71F8
FC71F8
FC71F8
FC71F8
FC71F8
FC71F8
FC71F8
FC71F8
FC71F8
FC71F8
FC71F8
FC71F8
FC71F8
1F81F8
1F81F8
1F81F8
0001F8
0001F8
0001F8
0001F8
0001F8
0001F8
ENDCHAR
STARTCHAR U+01A3
ENCODING 419
SWIDTH 2880 0
DWIDTH 24 0
BBX 21 21 3 -6
BITMAP
1F8FF8
1F8FF8
1F8FF8
FC71F8
FC71F8
FC71F8
FC71F8
FC71F8
FC71F8
FC71F8
FC71F8
FC71F8
1F81F8
1F81F8
1F81F8
0001F8
0001F8
0001F8
0001F8
0001F8
0001F8
ENDCHAR
STARTCHAR U+01A4
ENCODING 420
SWIDTH 2880 0
DWIDTH 24 0
BBX 24 21 0 0
BITMAP
FFFFF8
FFFFF8
FFFFF8
E3F03F
E3F03F
E3F03F
03F03F
03F03F
03F03F
03F1F8
03F1F8
03F1F8
03F000
03F000
03F000
03F000
03F000
03F000
03F000
03F000
03F000
ENDCHAR
STARTCHAR U+01A5
ENCODING 421
SWIDTH 2880 0
DWIDTH 24 0
BBX 18 30 3 -6
BITMAP
1F8000
1F8000
1F8000
FC0000
FC0000
FC0000
FC0000
FC0000
FC0000
FC7E00
FC7E00
FC7E00
FF8FC0
FF8FC0
FF8FC0
FC0FC0
FC0FC0
FC0FC0
FC0FC0
FC0FC0
FC0FC0
FC7E00
FC7E00
FC7E00
FC0000
FC0000
FC0000
FC0000
FC0000
FC0000
ENDCHAR
STARTCHAR U+01A6
ENCODING 422
SWIDTH 2880 0
DWIDTH 24 0
BBX 18 27 3 -6
BITMAP
FC0000
FC0000
FC0000
FC0000
FC0000
FC0000
FFFE00
FFFE00
FFFE00
FC0FC0
FC0FC0
FC0FC0
FC7E00
FC7E00
FC7E00
FC0E00
FC0E00
FC0E00
FC0FC0
FC0FC0
FC0FC0
000FC0
000FC0
000FC0
000FC0
000FC0
000FC0
ENDCHAR
STARTCHAR U+01A7
ENCODING 423
SWIDTH 2880 0
DWIDTH 24 0
BBX 18 21 3 0
BITMAP
1FFE00
1FFE00
1FFE00
FC0FC0
FC0FC0
FC0FC0
000FC0
000FC0
000FC0
1FFE00
1FFE00
1FFE00
FC0000
FC0000
FC0000
FC0FC0
FC0FC0
FC0FC0
1FFE00
1FFE00
1FFE00
ENDCHAR
STARTCHAR U+01A8
ENCODING 424
SWIDTH 2880 0
DWIDTH 24 0
BBX 18 15 3 0
BITMAP
1FFE00
1FFE00
1FFE00
000FC0
000FC0
000FC0
1FFE00
1FFE00
1FFE00
FC0000
FC0000
FC0000
1FFE00
1FFE00
1FFE00
ENDCHAR
STARTCHAR U+01A9
ENCODING 425
SWIDTH 2880 0
DWIDTH 24 0
BBX 18 21 3 0
BITMAP
FFFFC0
FFFFC0
FFFFC0
FC01C0
FC01C0
FC01C0
1F8000
1F8000
1F8000
03F000
03F000
03F000
1F8000
1F8000
1F8000
FC01C0
FC01C0
FC01C0
FFFFC0
FFFFC0
FFFFC0
ENDCHAR
STARTCHAR U+01AA
ENCODING 426
SWIDTH 2880 0
DWIDTH 24 0
BBX 18 27 3 -6
BITMAP
1F8000
1F8000
1F8000
E3F000
E3F000
E3F000
1FF000
1FF000
1FF000
03F000
03F000
03F000
03F000
03F000
03F000
03F000
03F000
03F000
03F000
03F000
03F000
03F000
03F000
03F000
007FC0
007FC0
007FC0
ENDCHAR
STARTCHAR U+01AB
ENCODING 427
SWIDTH 2880 0
DWIDTH 24 0
BBX 18 27 3 -6
BITMAP
03F000
03F000
03F000
03F000
03F000
03F000
FFFFC0
FFFFC0
FFFFC0
03F000
03F000
03F000
03F000
03F000
03F000
03F000
03F000
03F000
007FC0
007FC0
007FC0
000FC0
000FC0
000FC0
007E00
007E00
007E00
ENDCHAR
STARTCHAR U+01AC
ENCODING 428
SWIDTH 2880 0
DWIDTH 24 0
BBX 21 21 0 0
BITMAP
FFFFF8
FFFFF8
FFFFF8
E07E00
E07E00
E07E00
007E00
007E00
007E00
007E00
007E00
007E00
007E00
007E00
007E00
007E00
007E00
007E00
007E00
007E00
007E00
ENDCHAR
STARTCHAR U+01AD
ENCODING 429
SWIDTH 2880 0
DWIDTH 24 0
BBX 18 24 3 0
BITMAP
007E00
007E00
007E00
03F000
03F000
03F000
03F000
03F000
03F000
FFFFC0
FFFFC0
FFFFC0
03F000
03F000
03F000
03F000
03F000
03F000
03F000
03F000
03F000
007FC0
007FC0
007FC0
ENDCHAR
STARTCHAR U+01AE
ENCODING 430
SWIDTH 2880 0
DWIDTH 24 0
BBX 18 27 3 -6
BITMAP
FFFFC0
FFFFC0
FFFFC0
03F000
03F000
03F000
03F000
03F000
03F000
03F000
03F000
03F000
03F000
03F000
03F000
03F000
03F000
03F000
03F000
03F000
03F000
03F000
03F000
03F000
007E00
007E00
007E00
ENDCHAR
STARTCHAR U+01AF
ENCODING 431
SWIDTH 2880 0
DWIDTH 24 0
BBX 21 27 3 0
BITMAP
0001F8
0001F8
0001F8
000038
000038
000038
FC0FF8
FC0FF8
FC0FF8
FC0FC0
FC0FC0
FC0FC0
FC0FC0
FC0FC0
FC0FC0
FC0FC0
FC0FC0
FC0FC0
FC0FC0
FC0FC0
FC0FC0
FC0FC0
FC0FC0
FC0FC0
1FFE00
1FFE00
1FFE00
ENDCHAR
STARTCHAR U+01B0
ENCODING 432
SWIDTH 2880 0
DWIDTH 24 0
BBX 21 21 3 0
BITMAP
0001F8
0001F8
0001F8
000038
000038
000038
FC0FF8
FC0FF8
FC0FF8
FC0FC0
FC0FC0
FC0FC0
FC0FC0
FC0FC0
FC0FC0
FC7FC0
FC7FC0
FC7FC0
1F8FC0
1F8FC0
1F8FC0
ENDCHAR
STARTCHAR U+01B1
ENCODING 433
SWIDTH 2880 0
DWIDTH 24 0
BBX 21 21 3 0
BITMAP
FF8FF8
FF8FF8
FF8FF8
1F8FC0
1F8FC0
1F8FC0
FC01F8
FC01F8
FC01F8
FC01F8
FC01F8
FC01F8
FC01F8
FC01F8
FC01F8
FC01F8
FC01F8
FC01F8
1FFFC0
1FFFC0
1FFFC0
ENDCHAR
STARTCHAR U+01B2
ENCODING 434
SWIDTH 2880 0
DWIDTH 24 0
BBX 21 21 3 0
BITMAP
FC0FC0
FC0FC0
FC0FC0
FC71F8
FC71F8
FC71F8
FC01F8
FC01F8
FC01F8
FC01F8
FC01F8
FC01F8
FC01F8
FC01F8
FC01F8
FC01C0
FC01C0
FC01C0
1FFE00
1FFE00
1FFE00
ENDCHAR
STARTCHAR U+01B3
ENCODING 435
SWIDTH 2880 0
DWIDTH 24 0
BBX 21 24 3 0
BITMAP
0001F8
0001F8
0001F8
FC0FC0
FC0FC0
FC0FC0
FC0FC0
FC0FC0
FC0FC0
1C0E00
1C0E00
1C0E00
03F000
03F000
03F000
03F000
03F000
03F000
03F000
03F000
03F000
03F000
03F000
03F000
ENDCHAR
STARTCHAR U+01B4
ENCODING 436
SWIDTH 2880 0
DWIDTH 24 0
BBX 21 27 3 -6
BITMAP
0001F8
0001F8
0001F8
000FC0
000FC0
000FC0
FC0FC0
FC0FC0
FC0FC0
FC0FC0
FC0FC0
FC0FC0
FC0FC0
FC0FC0
FC0FC0
FC7FC0
FC7FC0
FC7FC0
1F8FC0
1F8FC0
1F8FC0
000FC0
000FC0
000FC0
1FFE00
1FFE00
1FFE00
ENDCHAR
STARTCHAR U+01B5
ENCODING 437
SWIDTH 2880 0
DWIDTH 24 0
BBX 18 21 3 0
BITMAP
FFFFC0
FFFFC0
FFFFC0
000FC0
000FC0
000FC0
007E00
007E00
007E00
FFFFC0
FFFFC0
FFFFC0
1F8000
1F8000
1F8000
FC0000
FC0000
FC0000
FFFFC0
FFFFC0
FFFFC0
ENDCHAR
STARTCHAR U+01B6
ENCODING 438
SWIDTH 2880 0
DWIDTH 24 0
BBX 18 15 3 0
BITMAP
FFFFC0
FFFFC0
FFFFC0
007E00
007E00
007E00
FFFFC0
FFFFC0
FFFFC0
1F8000
1F8000
1F8000
FFFFC0
FFFFC0
FFFFC0
ENDCHAR
STARTCHAR U+01B7
ENCODING 439
SWIDTH 2880 0
DWIDTH 24 0
BBX 18 27 3 -6
BITMAP
FFFFC0
FFFFC0
FFFFC0
E07E00
E07E00
E07E00
03F000
03F000
03F000
1FF000
1FF000
1FF000
007E00
007E00
007E00
000FC0
000FC0
000FC0
000FC0
000FC0
000FC0
FC0FC0
FC0FC0
FC0FC0
1FFE00
1FFE00
1FFE00
ENDCHAR
STARTCHAR U+01B8
ENCODING 440
SWIDTH 2880 0
DWIDTH 24 0
BBX 18 27 3 -6
BITMAP
FFFFC0
FFFFC0
FFFFC0
1F81C0
1F81C0
1F81C0
03F000
03F000
03F000
03FE00
03FE00
03FE00
1F8000
1F8000
1F8000
FC0000
FC0000
FC0000
FC0000
FC0000
FC0000
FC0FC0
FC0FC0
FC0FC0
1FFE00
1FFE00
1FFE00
ENDCHAR
STARTCHAR U+01B9
ENCODING 441
SWIDTH 2880 0
DWIDTH 24 0
BBX 18 21 3 -6
BITMAP
FFFFC0
FFFFC0
FFFFC0
1F81C0
1F81C0
1F81C0
03F000
03F000
03F000
1F8000
1F8000
1F8000
FC0000
FC0000
FC0000
FC0FC0
FC0FC0
FC0FC0
1FFE00
1FFE00
1FFE00
ENDCHAR
STARTCHAR U+01BA
ENCODING 442
SWIDTH 2880 0
DWIDTH 24 0
BBX 18 21 3 -6
BITMAP
FFFE00
FFFE00
FFFE00
E07000
E07000
E07000
03FE00
03FE00
03FE00
000FC0
000FC0
000FC0
1FFE00
1FFE00
1FFE00
FC0000
FC0000
FC0000
1FFE00
1FFE00
1FFE00
ENDCHAR
STARTCHAR U+01BB
ENCODING 443
SWIDTH 2880 0
DWIDTH 24 0
BBX 18 21 3 0
BITMAP
1FFE00
1FFE00
1FFE00
FC0FC0
FC0FC0
FC0FC0
000FC0
000FC0
000FC0
FFFE00
FFFE00
FFFE00
03F000
03F000
03F000
1F81C0
1F81C0
1F81C0
FFFFC0
FFFFC0
FFFFC0
ENDCHAR
STARTCHAR U+01BC
ENCODING 444
SWIDTH 2880 0
DWIDTH 24 0
BBX 18 21 3 0
BITMAP
FFFFC0
FFFFC0
FFFFC0
1F8000
1F8000
1F8000
1FFE00
1FFE00
1FFE00
000FC0
000FC0
000FC0
000FC0
000FC0
000FC0
FC0FC0
FC0FC0
FC0FC0
1FFE00
1FFE00
1FFE00
ENDCHAR
STARTCHAR U+01BD
ENCODING 445
SWIDTH 2880 0
DWIDTH 24 0
BBX 18 18 3 -3
BITMAP
FFFFC0
FFFFC0
FFFFC0
1F8000
1F8000
1F8000
1FFE00
1FFE00
1FFE00
000FC0
000FC0
000FC0
FC0FC0
FC0FC0
FC0FC0
1FFE00
1FFE00
1FFE00
ENDCHAR
STARTCHAR U+01BE
ENCODING 446
SWIDTH 2880 0
DWIDTH 24 0
BBX 18 24 3 -3
BITMAP
03F000
03F000
03F000
03F000
03F000
03F000
FFFFC0
FFFFC0
FFFFC0
03F000
03F000
03F000
03FE00
03FE00
03FE00
000FC0
000FC0
000FC0
FC0FC0
FC0FC0
FC0FC0
1FFE00
1FFE00
1FFE00
ENDCHAR
STARTCHAR U+01BF
ENCODING 447
SWIDTH 2880 0
DWIDTH 24 0
BBX 18 27 3 -6
BITMAP
FC7E00
FC7E00
FC7E00
FF8FC0
FF8FC0
FF8FC0
FC0FC0
FC0FC0
FC0FC0
FC0FC0
FC0FC0
FC0FC0
FC0FC0
FC0FC0
FC0FC0
FC0E00
FC0E00
FC0E00
FC7000
FC7000
FC7000
FC0000
FC0000
FC0000
FC0000
FC0000
FC0000
ENDCHAR
STARTCHAR U+01C0
ENCODING 448
SWIDTH 2880 0
DWIDTH 24 0
BBX 6 21 9 0
BITMAP
FC0000
FC0000
FC0000
FC0000
FC0000
FC0000
FC0000
FC0000
FC0000
FC0000
FC0000
FC0000
FC0000
FC0000
FC0000
FC0000
FC0000
FC0000
FC0000
FC0000
FC0000
ENDCHAR
STARTCHAR U+01C1
ENCODING 449
SWIDTH 2880 0
DWIDTH 24 0
BBX 15 21 6 0
BITMAP
FC7E00
FC7E00
FC7E00
FC7E00
FC7E00
FC7E00
FC7E00
FC7E00
FC7E00
FC7E00
FC7E00
FC7E00
FC7E00
FC7E00
FC7E00
FC7E00
FC7E00
FC7E00
FC7E00
FC7E00
FC7E00
ENDCHAR
STARTCHAR U+01C2
ENCODING 450
SWIDTH 2880 0
DWIDTH 24 0
BBX 18 21 3 0
BITMAP
03F000
03F000
03F000
03F000
03F000
03F000
FFFFC0
FFFFC0
FFFFC0
03F000
03F000
03F000
FFFFC0
FFFFC0
FFFFC0
03F000
03F000
03F000
03F000
03F000
03F000
ENDCHAR
STARTCHAR U+01C3
ENCODING 451
SWIDTH 2880 0
DWIDTH 24 0
BBX 12 24 6 0
BITMAP
1F8000
1F8000
1F8000
FFF000
FFF000
FFF000
FFF000
FFF000
FFF000
1F8000
1F8000
1F8000
1F8000
1F8000
1F8000
000000
000000
000000
1F8000
1F8000
1F8000
1F8000
1F8000
1F8000
ENDCHAR
STARTCHAR U+01C4
ENCODING 452
SWIDTH 2880 0
DWIDTH 24 0
BBX 24 30 0 0
BITMAP
0001C7
0001C7
0001C7
000038
000038
000038
000000
000000
000000
FF81FF
FF81FF
FF81FF
FC703F
FC703F
FC703F
FC703F
FC703F
FC703F
FC71F8
FC71F8
FC71F8
FC71F8
FC71F8
FC71F8
FC71F8
FC71F8
FC71F8
FF81FF
FF81FF
FF81FF
ENDCHAR
STARTCHAR U+01C5
ENCODING 453
SWIDTH 2880 0
DWIDTH 24 0
BBX 24 24 0 0
BITMAP
0001C7
0001C7
0001C7
FF8038
FF8038
FF8038
FC7000
FC7000
FC7000
FC71FF
FC71FF
FC71FF
FC703F
FC703F
FC703F
FC7038
FC7038
FC7038
FC71F8
FC71F8
FC71F8
FF81FF
FF81FF
FF81FF
ENDCHAR
STARTCHAR U+01C6
ENCODING 454
SWIDTH 2880 0
DWIDTH 24 0
BBX 24 24 0 0
BITMAP
0001C7
0001C7
0001C7
03F038
03F038
03F038
03F000
03F000
03F000
1FF1FF
1FF1FF
1FF1FF
E3F03F
E3F03F
E3F03F
E3F038
E3F038
E3F038
E3F1F8
E3F1F8
E3F1F8
1FF1FF
1FF1FF
1FF1FF
ENDCHAR
STARTCHAR U+01C7
ENCODING 455
SWIDTH 2880 0
DWIDTH 24 0
BBX 24 27 0 -6
BITMAP
FC01FF
FC01FF
FC01FF
FC003F
FC003F
FC003F
FC003F
FC003F
FC003F
FC003F
FC003F
FC003F
FC003F
FC003F
FC003F
FC0E3F
FC0E3F
FC0E3F
FFFE3F
FFFE3F
FFFE3F
00003F
00003F
00003F
000FF8
000FF8
000FF8
ENDCHAR
STARTCHAR U+01C8
ENCODING 456
SWIDTH 2880 0
DWIDTH 24 0
BBX 24 30 0 -6
BITMAP
00003F
00003F
00003F
FC003F
FC003F
FC003F
FC0000
FC0000
FC0000
FC01FF
FC01FF
FC01FF
FC003F
FC003F
FC003F
FC003F
FC003F
FC003F
FC0E3F
FC0E3F
FC0E3F
FFFE3F
FFFE3F
FFFE3F
00003F
00003F
00003F
000FF8
000FF8
000FF8
ENDCHAR
STARTCHAR U+01C9
ENCODING 457
SWIDTH 2880 0
DWIDTH 24 0
BBX 24 30 0 -6
BITMAP
00003F
00003F
00003F
FF803F
FF803F
FF803F
1F8000
1F8000
1F8000
1F81FF
1F81FF
1F81FF
1F803F
1F803F
1F803F
1F803F
1F803F
1F803F
1F803F
1F803F
1F803F
03F03F
03F03F
03F03F
00003F
00003F
00003F
000FF8
000FF8
000FF8
ENDCHAR
STARTCHAR U+01CA
ENCODING 458
SWIDTH 2880 0
DWIDTH 24 0
BBX 24 27 0 -6
BITMAP
FFF03F
FFF03F
FFF03F
FC7E3F
FC7E3F
FC7E3F
FC7E3F
FC7E3F
FC7E3F
FC7E3F
FC7E3F
FC7E3F
FC7E3F
FC7E3F
FC7E3F
FC7E3F
FC7E3F
FC7E3F
FC7E3F
FC7E3F
FC7E3F
00003F
00003F
00003F
000FF8
000FF8
000FF8
ENDCHAR
STARTCHAR U+01CB
ENCODING 459
SWIDTH 2880 0
DWIDTH 24 0
BBX 24 30 0 -6
BITMAP
00003F
00003F
00003F
FFF03F
FFF03F
FFF03F
FC7E00
FC7E00
FC7E00
FC7E3F
FC7E3F
FC7E3F
FC7E3F
FC7E3F
FC7E3F
FC7E3F
FC7E3F
FC7E3F
FC7E3F
FC7E3F
FC7E3F
FC7E3F
FC7E3F
FC7E3F
00003F
00003F
00003F
000FF8
000FF8
000FF8
ENDCHAR
STARTCHAR U+01CC
ENCODING 460
SWIDTH 2880 0
DWIDTH 24 0
BBX 24 30 0 -6
BITMAP
00003F
00003F
00003F
00003F
00003F
00003F
000000
000000
000000
FFF03F
FFF03F
FFF03F
FC7E3F
FC7E3F
FC7E3F
FC7E3F
FC7E3F
FC7E3F
FC7E3F
FC7E3F
FC7E3F
FC7E3F
FC7E3F
FC7E3F
00003F
00003F
00003F
000FF8
000FF8
000FF8
ENDCHAR
STARTCHAR U+01CD
ENCODING 461
SWIDTH 2880 0
DWIDTH 24 0
BBX 18 30 3 0
BITMAP
1F8FC0
1F8FC0
1F8FC0
03FE00
03FE00
03FE00
000000
000000
000000
007000
007000
007000
038E00
038E00
038E00
1C0FC0
1C0FC0
1C0FC0
FFFFC0
FFFFC0
FFFFC0
FC0FC0
FC0FC0
FC0FC0
FC0FC0
FC0FC0
FC0FC0
FC0FC0
FC0FC0
FC0FC0
ENDCHAR
STARTCHAR U+01CE
ENCODING 462
SWIDTH 2880 0
DWIDTH 24 0
BBX 18 24 3 0
BITMAP
1F8FC0
1F8FC0
1F8FC0
03FE00
03FE00
03FE00
000000
000000
000000
1FFE00
1FFE00
1FFE00
000FC0
000FC0
000FC0
1FFFC0
1FFFC0
1FFFC0
FC0FC0
FC0FC0
FC0FC0
1F8FC0
1F8FC0
1F8FC0
ENDCHAR
STARTCHAR U+01CF
ENCODING 463
SWIDTH 2880 0
DWIDTH 24 0
BBX 18 30 3 0
BITMAP
1F8FC0
1F8FC0
1F8FC0
03FE00
03FE00
03FE00
000000
000000
000000
FFFFC0
FFFFC0
FFFFC0
03F000
03F000
03F000
03F000
03F000
03F000
03F000
03F000
03F000
03F000
03F000
03F000
03F000
03F000
03F000
FFFFC0
FFFFC0
FFFFC0
ENDCHAR
STARTCHAR U+01D0
ENCODING 464
SWIDTH 2880 0
DWIDTH 24 0
BBX 18 24 3 0
BITMAP
1F8FC0
1F8FC0
1F8FC0
03FE00
03FE00
03FE00
000000
000000
000000
FFF000
FFF000
FFF000
03F000
03F000
03F000
03F000
03F000
03F000
03F000
03F000
03F000
007FC0
007FC0
007FC0
ENDCHAR
STARTCHAR U+01D1
ENCODING 465
SWIDTH 2880 0
DWIDTH 24 0
BBX 18 30 3 0
BITMAP
1F8FC0
1F8FC0
1F8FC0
03FE00
03FE00
03FE00
000000
000000
000000
1FFE00
1FFE00
1FFE00
FC0FC0
FC0FC0
FC0FC0
FC0FC0
FC0FC0
FC0FC0
FC0FC0
FC0FC0
FC0FC0
FC0FC0
FC0FC0
FC0FC0
FC0FC0
FC0FC0
FC0FC0
1FFE00
1FFE00
1FFE00
ENDCHAR
STARTCHAR U+01D2
ENCODING 466
SWIDTH 2880 0
DWIDTH 24 0
BBX 18 24 3 0
BITMAP
1F8FC0
1F8FC0
1F8FC0
03FE00
03FE00
03FE00
000000
000000
000000
1FFE00
1FFE00
1FFE00
FC0FC0
FC0FC0
FC0FC0
FC0FC0
FC0FC0
FC0FC0
FC0FC0
FC0FC0
FC0FC0
1FFE00
1FFE00
1FFE00
ENDCHAR
STARTCHAR U+01D3
ENCODING 467
SWIDTH 2880 0
DWIDTH 24 0
BBX 18 30 3 0
BITMAP
1F8FC0
1F8FC0
1F8FC0
03FE00
03FE00
03FE00
000000
000000
000000
FC0FC0
FC0FC0
FC0FC0
FC0FC0
FC0FC0
FC0FC0
FC0FC0
FC0FC0
FC0FC0
FC0FC0
FC0FC0
FC0FC0
FC0FC0
FC0FC0
FC0FC0
FC0FC0
FC0FC0
FC0FC0
1FFE00
1FFE00
1FFE00
ENDCHAR
STARTCHAR U+01D4
ENCODING 468
SWIDTH 2880 0
DWIDTH 24 0
BBX 18 24 3 0
BITMAP
1F8FC0
1F8FC0
1F8FC0
03FE00
03FE00
03FE00
000000
000000
000000
FC0FC0
FC0FC0
FC0FC0
FC0FC0
FC0FC0
FC0FC0
FC0FC0
FC0FC0
FC0FC0
FC7FC0
FC7FC0
FC7FC0
1F8FC0
1F8FC0
1F8FC0
ENDCHAR
STARTCHAR U+01D5
ENCODING 469
SWIDTH 2880 0
DWIDTH 24 0
BBX 18 30 3 0
BITMAP
FFFFC0
FFFFC0
FFFFC0
000000
000000
000000
FC0FC0
FC0FC0
FC0FC0
000000
000000
000000
FC0FC0
FC0FC0
FC0FC0
FC0FC0
FC0FC0
FC0FC0
FC0FC0
FC0FC0
FC0FC0
FC0FC0
FC0FC0
FC0FC0
FC0FC0
FC0FC0
FC0FC0
1FFE00
1FFE00
1FFE00
ENDCHAR
STARTCHAR U+01D6
ENCODING 470
SWIDTH 2880 0
DWIDTH 24 0
BBX 18 27 3 0
BITMAP
FFFFC0
FFFFC0
FFFFC0
000000
000000
000000
FC0FC0
FC0FC0
FC0FC0
000000
000000
000000
FC0FC0
FC0FC0
FC0FC0
FC0FC0
FC0FC0
FC0FC0
FC0FC0
FC0FC0
FC0FC0
FC7FC0
FC7FC0
FC7FC0
1F8FC0
1F8FC0
1F8FC0
ENDCHAR
STARTCHAR U+01D7
ENCODING 471
SWIDTH 2880 0
DWIDTH 24 0
BBX 18 30 3 0
BITMAP
007E00
007E00
007E00
03F000
03F000
03F000
FC0FC0
FC0FC0
FC0FC0
000000
000000
000000
FC0FC0
FC0FC0
FC0FC0
FC0FC0
FC0FC0
FC0FC0
FC0FC0
FC0FC0
FC0FC0
FC0FC0
FC0FC0
FC0FC0
FC0FC0
FC0FC0
FC0FC0
1FFE00
1FFE00
1FFE00
ENDCHAR
STARTCHAR U+01D8
ENCODING 472
SWIDTH 2880 0
DWIDTH 24 0
BBX 18 27 3 0
BITMAP
007E00
007E00
007E00
03F000
03F000
03F000
FC0FC0
FC0FC0
FC0FC0
000000
000000
000000
FC0FC0
FC0FC0
FC0FC0
FC0FC0
FC0FC0
FC0FC0
FC0FC0
FC0FC0
FC0FC0
FC7FC0
FC7FC0
FC7FC0
1F8FC0
1F8FC0
1F8FC0
ENDCHAR
STARTCHAR U+01D9
ENCODING 473
SWIDTH 2880 0
DWIDTH 24 0
BBX 18 30 3 0
BITMAP
1F8FC0
1F8FC0
1F8FC0
03FE00
03FE00
03FE00
FC0FC0
FC0FC0
FC0FC0
000000
000000
000000
FC0FC0
FC0FC0
FC0FC0
FC0FC0
FC0FC0
FC0FC0
FC0FC0
FC0FC0
FC0FC0
FC0FC0
FC0FC0
FC0FC0
FC0FC0
FC0FC0
FC0FC0
1FFE00
1FFE00
1FFE00
ENDCHAR
STARTCHAR U+01DA
ENCODING 474
SWIDTH 2880 0
DWIDTH 24 0
BBX 18 27 3 0
BITMAP
1F8FC0
1F8FC0
1F8FC0
03FE00
03FE00
03FE00
FC0FC0
FC0FC0
FC0FC0
000000
000000
000000
FC0FC0
FC0FC0
FC0FC0
FC0FC0
FC0FC0
FC0FC0
FC0FC0
FC0FC0
FC0FC0
FC7FC0
FC7FC0
FC7FC0
1F8FC0
1F8FC0
1F8FC0
ENDCHAR
STARTCHAR U+01DB
ENCODING 475
SWIDTH 2880 0
DWIDTH 24 0
BBX 18 30 3 0
BITMAP
1F8000
1F8000
1F8000
03F000
03F000
03F000
FC0FC0
FC0FC0
FC0FC0
000000
000000
000000
FC0FC0
FC0FC0
FC0FC0
FC0FC0
FC0FC0
FC0FC0
FC0FC0
FC0FC0
FC0FC0
FC0FC0
FC0FC0
FC0FC0
FC0FC0
FC0FC0
FC0FC0
1FFE00
1FFE00
1FFE00
ENDCHAR
STARTCHAR U+01DC
ENCODING 476
SWIDTH 2880 0
DWIDTH 24 0
BBX 18 27 3 0
BITMAP
1F8000
1F8000
1F8000
03F000
03F000
03F000
FC0FC0
FC0FC0
FC0FC0
000000
000000
000000
FC0FC0
FC0FC0
FC0FC0
FC0FC0
FC0FC0
FC0FC0
FC0FC0
FC0FC0
FC0FC0
FC7FC0
FC7FC0
FC7FC0
1F8FC0
1F8FC0
1F8FC0
ENDCHAR
STARTCHAR U+01DD
ENCODING 477
SWIDTH 2880 0
DWIDTH 24 0
BBX 18 15 3 0
BITMAP
1FFE00
1FFE00
1FFE00
000FC0
000FC0
000FC0
FFFFC0
FFFFC0
FFFFC0
FC0FC0
FC0FC0
FC0FC0
1FFE00
1FFE00
1FFE00
ENDCHAR
STARTCHAR U+01DE
ENCODING 478
SWIDTH 2880 0
DWIDTH 24 0
BBX 18 30 3 0
BITMAP
FFFFC0
FFFFC0
FFFFC0
000000
000000
000000
FC0FC0
FC0FC0
FC0FC0
000000
000000
000000
007000
007000
007000
038E00
038E00
038E00
1C0FC0
1C0FC0
1C0FC0
FFFFC0
FFFFC0
FFFFC0
FC0FC0
FC0FC0
FC0FC0
FC0FC0
FC0FC0
FC0FC0
ENDCHAR
STARTCHAR U+01DF
ENCODING 479
SWIDTH 2880 0
DWIDTH 24 0
BBX 18 27 3 0
BITMAP
FFFFC0
FFFFC0
FFFFC0
000000
000000
000000
FC0FC0
FC0FC0
FC0FC0
000000
000000
000000
1FFE00
1FFE00
1FFE00
000FC0
000FC0
000FC0
1FFFC0
1FFFC0
1FFFC0
FC0FC0
FC0FC0
FC0FC0
1F8FC0
1F8FC0
1F8FC0
ENDCHAR
STARTCHAR U+01E0
ENCODING 480
SWIDTH 2880 0
DWIDTH 24 0
BBX 18 30 3 0
BITMAP
FFFFC0
FFFFC0
FFFFC0
000000
000000
000000
03F000
03F000
03F000
000000
000000
000000
007000
007000
007000
038E00
038E00
038E00
1C0FC0
1C0FC0
1C0FC0
FFFFC0
FFFFC0
FFFFC0
FC0FC0
FC0FC0
FC0FC0
FC0FC0
FC0FC0
FC0FC0
ENDCHAR
STARTCHAR U+01E1
ENCODING 481
SWIDTH 2880 0
DWIDTH 24 0
BBX 18 27 3 0
BITMAP
FFFFC0
FFFFC0
FFFFC0
000000
000000
000000
03F000
03F000
03F000
000000
000000
000000
1FFE00
1FFE00
1FFE00
000FC0
000FC0
000FC0
1FFFC0
1FFFC0
1FFFC0
FC0FC0
FC0FC0
FC0FC0
1F8FC0
1F8FC0
1F8FC0
ENDCHAR
STARTCHAR U+01E2
ENCODING 482
SWIDTH 2880 0
DWIDTH 24 0
BBX 21 27 3 0
BITMAP
1FFFC0
1FFFC0
1FFFC0
000000
000000
000000
03FFF8
03FFF8
03FFF8
1C7E00
1C7E00
1C7E00
FC7E00
FC7E00
FC7E00
FFFFC0
FFFFC0
FFFFC0
FC7E00
FC7E00
FC7E00
FC7E00
FC7E00
FC7E00
FC7FF8
FC7FF8
FC7FF8
ENDCHAR
STARTCHAR U+01E3
ENCODING 483
SWIDTH 2880 0
DWIDTH 24 0
BBX 24 21 0 0
BITMAP
03FFC0
03FFC0
03FFC0
000000
000000
000000
1FFFF8
1FFFF8
1FFFF8
007E3F
007E3F
007E3F
1FFFFF
1FFFFF
1FFFFF
FC7E00
FC7E00
FC7E00
1FFFF8
1FFFF8
1FFFF8
ENDCHAR
STARTCHAR U+01E4
ENCODING 484
SWIDTH 2880 0
DWIDTH 24 0
BBX 21 21 3 0
BITMAP
1FFE00
1FFE00
1FFE00
FC0FC0
FC0FC0
FC0FC0
FC0000
FC0000
FC0000
FC0FC0
FC0FC0
FC0FC0
FC7FF8
FC7FF8
FC7FF8
FC0FC0
FC0FC0
FC0FC0
1FFFC0
1FFFC0
1FFFC0
ENDCHAR
STARTCHAR U+01E5
ENCODING 485
SWIDTH 2880 0
DWIDTH 24 0
BBX 21 24 3 -6
BITMAP
000FC0
000FC0
000FC0
1FFE00
1FFE00
1FFE00
FC0FC0
FC0FC0
FC0FC0
1FFE00
1FFE00
1FFE00
FC0000
FC0000
FC0000
1FFE00
1FFE00
1FFE00
03FFF8
03FFF8
03FFF8
1FFE00
1FFE00
1FFE00
ENDCHAR
STARTCHAR U+01E6
ENCODING 486
SWIDTH 2880 0
DWIDTH 24 0
BBX 18 30 3 0
BITMAP
1F8FC0
1F8FC0
1F8FC0
03FE00
03FE00
03FE00
000000
000000
000000
1FFE00
1FFE00
1FFE00
FC0FC0
FC0FC0
FC0FC0
FC0000
FC0000
FC0000
FC7FC0
FC7FC0
FC7FC0
FC0FC0
FC0FC0
FC0FC0
FC0FC0
FC0FC0
FC0FC0
1F8FC0
1F8FC0
1F8FC0
ENDCHAR
STARTCHAR U+01E7
ENCODING 487
SWIDTH 2880 0
DWIDTH 24 0
BBX 18 30 3 -6
BITMAP
1F8FC0
1F8FC0
1F8FC0
03FE00
03FE00
03FE00
000000
000000
000000
1FFE00
1FFE00
1FFE00
FC0FC0
FC0FC0
FC0FC0
1FFE00
1FFE00
1FFE00
FC0000
FC0000
FC0000
1FFE00
1FFE00
1FFE00
000FC0
000FC0
000FC0
03FE00
03FE00
03FE00
ENDCHAR
STARTCHAR U+01E8
ENCODING 488
SWIDTH 2880 0
DWIDTH 24 0
BBX 18 30 3 0
BITMAP
1F8FC0
1F8FC0
1F8FC0
03FE00
03FE00
03FE00
000000
000000
000000
FC0FC0
FC0FC0
FC0FC0
FC0FC0
FC0FC0
FC0FC0
FC0E00
FC0E00
FC0E00
FC7000
FC7000
FC7000
FF8E00
FF8E00
FF8E00
FC0FC0
FC0FC0
FC0FC0
FC0FC0
FC0FC0
FC0FC0
ENDCHAR
STARTCHAR U+01E9
ENCODING 489
SWIDTH 2880 0
DWIDTH 24 0
BBX 18 30 3 0
BITMAP
1F8FC0
1F8FC0
1F8FC0
03FE00
03FE00
03FE00
000000
000000
000000
FC0000
FC0000
FC0000
FC0000
FC0000
FC0000
FC0FC0
FC0FC0
FC0FC0
FC0FC0
FC0FC0
FC0FC0
FC7E00
FC7E00
FC7E00
FF8FC0
FF8FC0
FF8FC0
FC0FC0
FC0FC0
FC0FC0
ENDCHAR
STARTCHAR U+01EA
ENCODING 490
SWIDTH 2880 0
DWIDTH 24 0
BBX 18 27 3 -6
BITMAP
1FFE00
1FFE00
1FFE00
FC0FC0
FC0FC0
FC0FC0
FC0FC0
FC0FC0
FC0FC0
FC0FC0
FC0FC0
FC0FC0
FC0FC0
FC0FC0
FC0FC0
FC0FC0
FC0FC0
FC0FC0
1FFE00
1FFE00
1FFE00
03F000
03F000
03F000
03FE00
03FE00
03FE00
ENDCHAR
STARTCHAR U+01EB
ENCODING 491
SWIDTH 2880 0
DWIDTH 24 0
BBX 18 21 3 -6
BITMAP
1FFE00
1FFE00
1FFE00
FC0FC0
FC0FC0
FC0FC0
FC0FC0
FC0FC0
FC0FC0
FC0FC0
FC0FC0
FC0FC0
1FFE00
1FFE00
1FFE00
03F000
03F000
03F000
03FE00
03FE00
03FE00
ENDCHAR
STARTCHAR U+01EC
ENCODING 492
SWIDTH 2880 0
DWIDTH 24 0
BBX 18 33 3 -6
BITMAP
1FFE00
1FFE00
1FFE00
000000
000000
000000
1FFE00
1FFE00
1FFE00
FC0FC0
FC0FC0
FC0FC0
FC0FC0
FC0FC0
FC0FC0
FC0FC0
FC0FC0
FC0FC0
FC0FC0
FC0FC0
FC0FC0
FC0FC0
FC0FC0
FC0FC0
1FFE00
1FFE00
1FFE00
03F000
03F000
03F000
03FE00
03FE00
03FE00
ENDCHAR
STARTCHAR U+01ED
ENCODING 493
SWIDTH 2880 0
DWIDTH 24 0
BBX 18 27 3 -6
BITMAP
1FFE00
1FFE00
1FFE00
000000
000000
000000
1FFE00
1FFE00
1FFE00
FC0FC0
FC0FC0
FC0FC0
FC0FC0
FC0FC0
FC0FC0
FC0FC0
FC0FC0
FC0FC0
1FFE00
1FFE00
1FFE00
03F000
03F000
03F000
03FE00
03FE00
03FE00
ENDCHAR
STARTCHAR U+01EE
ENCODING 494
SWIDTH 2880 0
DWIDTH 24 0
BBX 18 36 3 -6
BITMAP
1F8FC0
1F8FC0
1F8FC0
03FE00
03FE00
03FE00
000000
000000
000000
FFFFC0
FFFFC0
FFFFC0
E07E00
E07E00
E07E00
03F000
03F000
03F000
1FF000
1FF000
1FF000
007E00
007E00
007E00
000FC0
000FC0
000FC0
000FC0
000FC0
000FC0
FC0FC0
FC0FC0
FC0FC0
1FFE00
1FFE00
1FFE00
ENDCHAR
STARTCHAR U+01EF
ENCODING 495
SWIDTH 2880 0
DWIDTH 24 0
BBX 18 30 3 -6
BITMAP
1F8FC0
1F8FC0
1F8FC0
03FE00
03FE00
03FE00
000000
000000
000000
FFFFC0
FFFFC0
FFFFC0
E07E00
E07E00
E07E00
03F000
03F000
03F000
007E00
007E00
007E00
000FC0
000FC0
000FC0
FC0FC0
FC0FC0
FC0FC0
1FFE00
1FFE00
1FFE00
ENDCHAR
STARTCHAR U+01F0
ENCODING 496
SWIDTH 2880 0
DWIDTH 24 0
BBX 18 30 3 -6
BITMAP
1F8FC0
1F8FC0
1F8FC0
03FE00
03FE00
03FE00
000000
000000
000000
1FFE00
1FFE00
1FFE00
007E00
007E00
007E00
007E00
007E00
007E00
007E00
007E00
007E00
007E00
007E00
007E00
FC7E00
FC7E00
FC7E00
1FF000
1FF000
1FF000
ENDCHAR
STARTCHAR U+01F1
ENCODING 497
SWIDTH 2880 0
DWIDTH 24 0
BBX 24 21 0 0
BITMAP
FF81FF
FF81FF
FF81FF
FC703F
FC703F
FC703F
FC703F
FC703F
FC703F
FC71F8
FC71F8
FC71F8
FC71F8
FC71F8
FC71F8
FC71F8
FC71F8
FC71F8
FF81FF
FF81FF
FF81FF
ENDCHAR
STARTCHAR U+01F2
ENCODING 498
SWIDTH 2880 0
DWIDTH 24 0
BBX 24 21 0 0
BITMAP
FF8000
FF8000
FF8000
FC7000
FC7000
FC7000
FC71FF
FC71FF
FC71FF
FC703F
FC703F
FC703F
FC7038
FC7038
FC7038
FC71F8
FC71F8
FC71F8
FF81FF
FF81FF
FF81FF
ENDCHAR
STARTCHAR U+01F3
ENCODING 499
SWIDTH 2880 0
DWIDTH 24 0
BBX 24 21 0 0
BITMAP
03F000
03F000
03F000
03F000
03F000
03F000
1FF1FF
1FF1FF
1FF1FF
E3F03F
E3F03F
E3F03F
E3F038
E3F038
E3F038
E3F1F8
E3F1F8
E3F1F8
1FF1FF
1FF1FF
1FF1FF
ENDCHAR
STARTCHAR U+01F4
ENCODING 500
SWIDTH 2880 0
DWIDTH 24 0
BBX 18 30 3 0
BITMAP
007E00
007E00
007E00
03F000
03F000
03F000
000000
000000
000000
1FFE00
1FFE00
1FFE00
FC0FC0
FC0FC0
FC0FC0
FC0000
FC0000
FC0000
FC7FC0
FC7FC0
FC7FC0
FC0FC0
FC0FC0
FC0FC0
FC0FC0
FC0FC0
FC0FC0
1F8FC0
1F8FC0
1F8FC0
ENDCHAR
STARTCHAR U+01F5
ENCODING 501
SWIDTH 2880 0
DWIDTH 24 0
BBX 18 30 3 -6
BITMAP
007E00
007E00
007E00
03F000
03F000
03F000
000000
000000
000000
1FFE00
1FFE00
1FFE00
FC0FC0
FC0FC0
FC0FC0
1FFE00
1FFE00
1FFE00
FC0000
FC0000
FC0000
1FFE00
1FFE00
1FFE00
000FC0
000FC0
000FC0
03FE00
03FE00
03FE00
ENDCHAR
STARTCHAR U+01F6
ENCODING 502
SWIDTH 2880 0
DWIDTH 24 0
BBX 21 21 3 0
BITMAP
FC7E00
FC7E00
FC7E00
FC7E00
FC7E00
FC7E00
FFFE38
FFFE38
FFFE38
FC7E38
FC7E38
FC7E38
FC7E38
FC7E38
FC7E38
FC7E38
FC7E38
FC7E38
FC0FC0
FC0FC0
FC0FC0
ENDCHAR
STARTCHAR U+01F7
ENCODING 503
SWIDTH 2880 0
DWIDTH 24 0
BBX 18 21 3 -6
BITMAP
FC7E00
FC7E00
FC7E00
FF8FC0
FF8FC0
FF8FC0
FC0FC0
FC0FC0
FC0FC0
FC0E00
FC0E00
FC0E00
FC7000
FC7000
FC7000
FC0000
FC0000
FC0000
FC0000
FC0000
FC0000
ENDCHAR
STARTCHAR U+01F8
ENCODING 504
SWIDTH 2880 0
DWIDTH 24 0
BBX 18 30 3 0
BITMAP
1F8000
1F8000
1F8000
03F000
03F000
03F000
000000
000000
000000
E00FC0
E00FC0
E00FC0
FC0FC0
FC0FC0
FC0FC0
FF8FC0
FF8FC0
FF8FC0
FC7FC0
FC7FC0
FC7FC0
FC0FC0
FC0FC0
FC0FC0
FC0FC0
FC0FC0
FC0FC0
FC0FC0
FC0FC0
FC0FC0
ENDCHAR
STARTCHAR U+01F9
ENCODING 505
SWIDTH 2880 0
DWIDTH 24 0
BBX 18 24 3 0
BITMAP
1F8000
1F8000
1F8000
03F000
03F000
03F000
000000
000000
000000
FC7E00
FC7E00
FC7E00
FF8FC0
FF8FC0
FF8FC0
FC0FC0
FC0FC0
FC0FC0
FC0FC0
FC0FC0
FC0FC0
FC0FC0
FC0FC0
FC0FC0
ENDCHAR
STARTCHAR U+01FA
ENCODING 506
SWIDTH 2880 0
DWIDTH 24 0
BBX 18 30 3 0
BITMAP
000FC0
000FC0
000FC0
03FE00
03FE00
03FE00
038E00
038E00
038E00
03FE00
03FE00
03FE00
007000
007000
007000
038E00
038E00
038E00
1C0FC0
1C0FC0
1C0FC0
FFFFC0
FFFFC0
FFFFC0
FC0FC0
FC0FC0
FC0FC0
FC0FC0
FC0FC0
FC0FC0
ENDCHAR
STARTCHAR U+01FB
ENCODING 507
SWIDTH 2880 0
DWIDTH 24 0
BBX 18 30 3 0
BITMAP
000FC0
000FC0
000FC0
03FE00
03FE00
03FE00
038E00
038E00
038E00
03FE00
03FE00
03FE00
000000
000000
000000
1FFE00
1FFE00
1FFE00
000FC0
000FC0
000FC0
1FFFC0
1FFFC0
1FFFC0
FC0FC0
FC0FC0
FC0FC0
1F8FC0
1F8FC0
1F8FC0
ENDCHAR
STARTCHAR U+01FC
ENCODING 508
SWIDTH 2880 0
DWIDTH 24 0
BBX 21 30 3 0
BITMAP
000FC0
000FC0
000FC0
007E00
007E00
007E00
000000
000000
000000
03FFF8
03FFF8
03FFF8
1C7E00
1C7E00
1C7E00
FC7E00
FC7E00
FC7E00
FFFFC0
FFFFC0
FFFFC0
FC7E00
FC7E00
FC7E00
FC7E00
FC7E00
FC7E00
FC7FF8
FC7FF8
FC7FF8
ENDCHAR
STARTCHAR U+01FD
ENCODING 509
SWIDTH 2880 0
DWIDTH 24 0
BBX 24 24 0 0
BITMAP
000FC0
000FC0
000FC0
007E00
007E00
007E00
000000
000000
000000
1FFFF8
1FFFF8
1FFFF8
007E3F
007E3F
007E3F
1FFFFF
1FFFFF
1FFFFF
FC7E00
FC7E00
FC7E00
1FFFF8
1FFFF8
1FFFF8
ENDCHAR
STARTCHAR U+01FE
ENCODING 510
SWIDTH 2880 0
DWIDTH 24 0
BBX 18 33 3 -3
BITMAP
03F000
03F000
03F000
1F8000
1F8000
1F8000
000FC0
000FC0
000FC0
1FFE00
1FFE00
1FFE00
FC0FC0
FC0FC0
FC0FC0
FC7FC0
FC7FC0
FC7FC0
FFFFC0
FFFFC0
FFFFC0
FF8FC0
FF8FC0
FF8FC0
FC0FC0
FC0FC0
FC0FC0
1FFE00
1FFE00
1FFE00
FC0000
FC0000
FC0000
ENDCHAR
STARTCHAR U+01FF
ENCODING 511
SWIDTH 2880 0
DWIDTH 24 0
BBX 18 27 3 -3
BITMAP
03F000
03F000
03F000
1F8000
1F8000
1F8000
000FC0
000FC0
000FC0
1FFE00
1FFE00
1FFE00
FC7FC0
FC7FC0
FC7FC0
FFFFC0
FFFFC0
FFFFC0
FF8FC0
FF8FC0
FF8FC0
1FFE00
1FFE00
1FFE00
FC0000
FC0000
FC0000
ENDCHAR
STARTCHAR U+0200
ENCODING 512
SWIDTH 2880 0
DWIDTH 24 0
BBX 21 30 0 0
BITMAP
FC0FC0
FC0FC0
FC0FC0
1F81F8
1F81F8
1F81F8
000000
000000
000000
000E00
000E00
000E00
0071C0
0071C0
0071C0
0381F8
0381F8
0381F8
1FFFF8
1FFFF8
1FFFF8
1F81F8
1F81F8
1F81F8
1F81F8
1F81F8
1F81F8
1F81F8
1F81F8
1F81F8
ENDCHAR
STARTCHAR U+0201
ENCODING 513
SWIDTH 2880 0
DWIDTH 24 0
BBX 21 24 0 0
BITMAP
FC0FC0
FC0FC0
FC0FC0
1F81F8
1F81F8
1F81F8
000000
000000
000000
03FFC0
03FFC0
03FFC0
0001F8
0001F8
0001F8
03FFF8
03FFF8
03FFF8
1F81F8
1F81F8
1F81F8
03F1F8
03F1F8
03F1F8
ENDCHAR
STARTCHAR U+0202
ENCODING 514
SWIDTH 2880 0
DWIDTH 24 0
BBX 18 30 3 0
BITMAP
1FFE00
1FFE00
1FFE00
FC0FC0
FC0FC0
FC0FC0
000000
000000
000000
007000
007000
007000
038E00
038E00
038E00
1C0FC0
1C0FC0
1C0FC0
FFFFC0
FFFFC0
FFFFC0
FC0FC0
FC0FC0
FC0FC0
FC0FC0
FC0FC0
FC0FC0
FC0FC0
FC0FC0
FC0FC0
ENDCHAR
STARTCHAR U+0203
ENCODING 515
SWIDTH 2880 0
DWIDTH 24 0
BBX 18 24 3 0
BITMAP
1FFE00
1FFE00
1FFE00
FC0FC0
FC0FC0
FC0FC0
000000
000000
000000
1FFE00
1FFE00
1FFE00
000FC0
000FC0
000FC0
1FFFC0
1FFFC0
1FFFC0
FC0FC0
FC0FC0
FC0FC0
1F8FC0
1F8FC0
1F8FC0
ENDCHAR
STARTCHAR U+0204
ENCODING 516
SWIDTH 2880 0
DWIDTH 24 0
BBX 21 30 0 0
BITMAP
FC0FC0
FC0FC0
FC0FC0
1F81F8
1F81F8
1F81F8
000000
000000
000000
1FFFF8
1FFFF8
1FFFF8
1F8038
1F8038
1F8038
1F8000
1F8000
1F8000
1FFE00
1FFE00
1FFE00
1F8000
1F8000
1F8000
1F8038
1F8038
1F8038
1FFFF8
1FFFF8
1FFFF8
ENDCHAR
STARTCHAR U+0205
ENCODING 517
SWIDTH 2880 0
DWIDTH 24 0
BBX 21 24 0 0
BITMAP
FC0FC0
FC0FC0
FC0FC0
1F81F8
1F81F8
1F81F8
000000
000000
000000
03FFC0
03FFC0
03FFC0
1F81F8
1F81F8
1F81F8
1FFFF8
1FFFF8
1FFFF8
1F8000
1F8000
1F8000
03FFC0
03FFC0
03FFC0
ENDCHAR
STARTCHAR U+0206
ENCODING 518
SWIDTH 2880 0
DWIDTH 24 0
BBX 18 30 3 0
BITMAP
1FFE00
1FFE00
1FFE00
FC0FC0
FC0FC0
FC0FC0
000000
000000
000000
FFFFC0
FFFFC0
FFFFC0
FC01C0
FC01C0
FC01C0
FC0000
FC0000
FC0000
FFF000
FFF000
FFF000
FC0000
FC0000
FC0000
FC01C0
FC01C0
FC01C0
FFFFC0
FFFFC0
FFFFC0
ENDCHAR
STARTCHAR U+0207
ENCODING 519
SWIDTH 2880 0
DWIDTH 24 0
BBX 18 24 3 0
BITMAP
1FFE00
1FFE00
1FFE00
FC0FC0
FC0FC0
FC0FC0
000000
000000
000000
1FFE00
1FFE00
1FFE00
FC0FC0
FC0FC0
FC0FC0
FFFFC0
FFFFC0
FFFFC0
FC0000
FC0000
FC0000
1FFE00
1FFE00
1FFE00
ENDCHAR
STARTCHAR U+0208
ENCODING 520
SWIDTH 2880 0
DWIDTH 24 0
BBX 21 30 0 0
BITMAP
FC0FC0
FC0FC0
FC0FC0
1F81F8
1F81F8
1F81F8
000000
000000
000000
1FFFF8
1FFFF8
1FFFF8
007E00
007E00
007E00
007E00
007E00
007E00
007E00
007E00
007E00
007E00
007E00
007E00
007E00
007E00
007E00
1FFFF8
1FFFF8
1FFFF8
ENDCHAR
STARTCHAR U+0209
ENCODING 521
SWIDTH 2880 0
DWIDTH 24 0
BBX 21 24 0 0
BITMAP
FC0FC0
FC0FC0
FC0FC0
1F81F8
1F81F8
1F81F8
000000
000000
000000
1FFE00
1FFE00
1FFE00
007E00
007E00
007E00
007E00
007E00
007E00
007E00
007E00
007E00
000FF8
000FF8
000FF8
ENDCHAR
STARTCHAR U+020A
ENCODING 522
SWIDTH 2880 0
DWIDTH 24 0
BBX 18 30 3 0
BITMAP
1FFE00
1FFE00
1FFE00
FC0FC0
FC0FC0
FC0FC0
000000
000000
000000
FFFFC0
FFFFC0
FFFFC0
03F000
03F000
03F000
03F000
03F000
03F000
03F000
03F000
03F000
03F000
03F000
03F000
03F000
03F000
03F000
FFFFC0
FFFFC0
FFFFC0
ENDCHAR
STARTCHAR U+020B
ENCODING 523
SWIDTH 2880 0
DWIDTH 24 0
BBX 18 24 3 0
BITMAP
1FFE00
1FFE00
1FFE00
FC0FC0
FC0FC0
FC0FC0
000000
000000
000000
FFF000
FFF000
FFF000
03F000
03F000
03F000
03F000
03F000
03F000
03F000
03F000
03F000
007FC0
007FC0
007FC0
ENDCHAR
STARTCHAR U+020C
ENCODING 524
SWIDTH 2880 0
DWIDTH 24 0
BBX 21 30 0 0
BITMAP
FC0FC0
FC0FC0
FC0FC0
1F81F8
1F81F8
1F81F8
000000
000000
000000
03FFC0
03FFC0
03FFC0
1F81F8
1F81F8
1F81F8
1F81F8
1F81F8
1F81F8
1F81F8
1F81F8
1F81F8
1F81F8
1F81F8
1F81F8
1F81F8
1F81F8
1F81F8
03FFC0
03FFC0
03FFC0
ENDCHAR
STARTCHAR U+020D
ENCODING 525
SWIDTH 2880 0
DWIDTH 24 0
BBX 21 24 0 0
BITMAP
FC0FC0
FC0FC0
FC0FC0
1F81F8
1F81F8
1F81F8
000000
000000
000000
03FFC0
03FFC0
03FFC0
1F81F8
1F81F8
1F81F8
1F81F8
1F81F8
1F81F8
1F81F8
1F81F8
1F81F8
03FFC0
03FFC0
03FFC0
ENDCHAR
STARTCHAR U+020E
ENCODING 526
SWIDTH 2880 0
DWIDTH 24 0
BBX 18 30 3 0
BITMAP
1FFE00
1FFE00
1FFE00
FC0FC0
FC0FC0
FC0FC0
000000
000000
000000
1FFE00
1FFE00
1FFE00
FC0FC0
FC0FC0
FC0FC0
FC0FC0
FC0FC0
FC0FC0
FC0FC0
FC0FC0
FC0FC0
FC0FC0
FC0FC0
FC0FC0
FC0FC0
FC0FC0
FC0FC0
1FFE00
1FFE00
1FFE00
ENDCHAR
STARTCHAR U+020F
ENCODING 527
SWIDTH 2880 0
DWIDTH 24 0
BBX 18 24 3 0
BITMAP
1FFE00
1FFE00
1FFE00
FC0FC0
FC0FC0
FC0FC0
000000
000000
000000
1FFE00
1FFE00
1FFE00
FC0FC0
FC0FC0
FC0FC0
FC0FC0
FC0FC0
FC0FC0
FC0FC0
FC0FC0
FC0FC0
1FFE00
1FFE00
1FFE00
ENDCHAR
STARTCHAR U+0210
ENCODING 528
SWIDTH 2880 0
DWIDTH 24 0
BBX 21 30 0 0
BITMAP
FC0FC0
FC0FC0
FC0FC0
1F81F8
1F81F8
1F81F8
000000
000000
000000
1FFFC0
1FFFC0
1FFFC0
1F81F8
1F81F8
1F81F8
1F81F8
1F81F8
1F81F8
1F8FC0
1F8FC0
1F8FC0
1F81C0
1F81C0
1F81C0
1F81F8
1F81F8
1F81F8
1F81F8
1F81F8
1F81F8
ENDCHAR
STARTCHAR U+0211
ENCODING 529
SWIDTH 2880 0
DWIDTH 24 0
BBX 21 24 0 0
BITMAP
FC0FC0
FC0FC0
FC0FC0
1F81F8
1F81F8
1F81F8
000000
000000
000000
1FF1F8
1FF1F8
1FF1F8
03FE00
03FE00
03FE00
03F000
03F000
03F000
03F000
03F000
03F000
03F000
03F000
03F000
ENDCHAR
STARTCHAR U+0212
ENCODING 530
SWIDTH 2880 0
DWIDTH 24 0
BBX 18 30 3 0
BITMAP
1FFE00
1FFE00
1FFE00
FC0FC0
FC0FC0
FC0FC0
000000
000000
000000
FFFE00
FFFE00
FFFE00
FC0FC0
FC0FC0
FC0FC0
FC0FC0
FC0FC0
FC0FC0
FC7E00
FC7E00
FC7E00
FC0E00
FC0E00
FC0E00
FC0FC0
FC0FC0
FC0FC0
FC0FC0
FC0FC0
FC0FC0
ENDCHAR
STARTCHAR U+0213
ENCODING 531
SWIDTH 2880 0
DWIDTH 24 0
BBX 18 24 3 0
BITMAP
1FFE00
1FFE00
1FFE00
FC0FC0
FC0FC0
FC0FC0
000000
000000
000000
FF8FC0
FF8FC0
FF8FC0
1FF000
1FF000
1FF000
1F8000
1F8000
1F8000
1F8000
1F8000
1F8000
1F8000
1F8000
1F8000
ENDCHAR
STARTCHAR U+0214
ENCODING 532
SWIDTH 2880 0
DWIDTH 24 0
BBX 21 30 0 0
BITMAP
FC0FC0
FC0FC0
FC0FC0
1F81F8
1F81F8
1F81F8
000000
000000
000000
1F81F8
1F81F8
1F81F8
1F81F8
1F81F8
1F81F8
1F81F8
1F81F8
1F81F8
1F81F8
1F81F8
1F81F8
1F81F8
1F81F8
1F81F8
1F81F8
1F81F8
1F81F8
03FFC0
03FFC0
03FFC0
ENDCHAR
STARTCHAR U+0215
ENCODING 533
SWIDTH 2880 0
DWIDTH 24 0
BBX 21 24 0 0
BITMAP
FC0FC0
FC0FC0
FC0FC0
1F81F8
1F81F8
1F81F8
000000
000000
000000
1F81F8
1F81F8
1F81F8
1F81F8
1F81F8
1F81F8
1F81F8
1F81F8
1F81F8
1F8FF8
1F8FF8
1F8FF8
03F1F8
03F1F8
03F1F8
ENDCHAR
STARTCHAR U+0216
ENCODING 534
SWIDTH 2880 0
DWIDTH 24 0
BBX 18 30 3 0
BITMAP
1FFE00
1FFE00
1FFE00
FC0FC0
FC0FC0
FC0FC0
000000
000000
000000
FC0FC0
FC0FC0
FC0FC0
FC0FC0
FC0FC0
FC0FC0
FC0FC0
FC0FC0
FC0FC0
FC0FC0
FC0FC0
FC0FC0
FC0FC0
FC0FC0
FC0FC0
FC0FC0
FC0FC0
FC0FC0
1FFE00
1FFE00
1FFE00
ENDCHAR
STARTCHAR U+0217
ENCODING 535
SWIDTH 2880 0
DWIDTH 24 0
BBX 18 24 3 0
BITMAP
1FFE00
1FFE00
1FFE00
FC0FC0
FC0FC0
FC0FC0
000000
000000
000000
FC0FC0
FC0FC0
FC0FC0
FC0FC0
FC0FC0
FC0FC0
FC0FC0
FC0FC0
FC0FC0
FC7FC0
FC7FC0
FC7FC0
1F8FC0
1F8FC0
1F8FC0
ENDCHAR
STARTCHAR U+0218
ENCODING 536
SWIDTH 2880 0
DWIDTH 24 0
BBX 18 27 3 -6
BITMAP
1FFE00
1FFE00
1FFE00
FC0FC0
FC0FC0
FC0FC0
FC0000
FC0000
FC0000
1FFE00
1FFE00
1FFE00
000FC0
000FC0
000FC0
FC0FC0
FC0FC0
FC0FC0
1FFE00
1FFE00
1FFE00
007000
007000
007000
03F000
03F000
03F000
ENDCHAR
STARTCHAR U+0219
ENCODING 537
SWIDTH 2880 0
DWIDTH 24 0
BBX 18 21 3 -6
BITMAP
1FFE00
1FFE00
1FFE00
FC0000
FC0000
FC0000
1FFE00
1FFE00
1FFE00
000FC0
000FC0
000FC0
1FFE00
1FFE00
1FFE00
007000
007000
007000
03F000
03F000
03F000
ENDCHAR
STARTCHAR U+021A
ENCODING 538
SWIDTH 2880 0
DWIDTH 24 0
BBX 18 27 3 -6
BITMAP
FFFFC0
FFFFC0
FFFFC0
03F000
03F000
03F000
03F000
03F000
03F000
03F000
03F000
03F000
03F000
03F000
03F000
03F000
03F000
03F000
03F000
03F000
03F000
000E00
000E00
000E00
007E00
007E00
007E00
ENDCHAR
STARTCHAR U+021B
ENCODING 539
SWIDTH 2880 0
DWIDTH 24 0
BBX 18 27 3 -6
BITMAP
03F000
03F000
03F000
03F000
03F000
03F000
FFFFC0
FFFFC0
FFFFC0
03F000
03F000
03F000
03F000
03F000
03F000
03F000
03F000
03F000
007FC0
007FC0
007FC0
000E00
000E00
000E00
007E00
007E00
007E00
ENDCHAR
STARTCHAR U+021C
ENCODING 540
SWIDTH 2880 0
DWIDTH 24 0
BBX 18 27 3 -6
BITMAP
1FFE00
1FFE00
1FFE00
FC0FC0
FC0FC0
FC0FC0
007E00
007E00
007E00
03FE00
03FE00
03FE00
1F8FC0
1F8FC0
1F8FC0
000FC0
000FC0
000FC0
007E00
007E00
007E00
03F000
03F000
03F000
1F8000
1F8000
1F8000
ENDCHAR
STARTCHAR U+021D
ENCODING 541
SWIDTH 2880 0
DWIDTH 24 0
BBX 18 21 3 -6
BITMAP
1FFE00
1FFE00
1FFE00
FC0FC0
FC0FC0
FC0FC0
007E00
007E00
007E00
1F8FC0
1F8FC0
1F8FC0
000FC0
000FC0
000FC0
007E00
007E00
007E00
1FF000
1FF000
1FF000
ENDCHAR
STARTCHAR U+021E
ENCODING 542
SWIDTH 2880 0
DWIDTH 24 0
BBX 18 30 3 0
BITMAP
1F8FC0
1F8FC0
1F8FC0
03FE00
03FE00
03FE00
000000
000000
000000
FC0FC0
FC0FC0
FC0FC0
FC0FC0
FC0FC0
FC0FC0
FC0FC0
FC0FC0
FC0FC0
FFFFC0
FFFFC0
FFFFC0
FC0FC0
FC0FC0
FC0FC0
FC0FC0
FC0FC0
FC0FC0
FC0FC0
FC0FC0
FC0FC0
ENDCHAR
STARTCHAR U+021F
ENCODING 543
SWIDTH 2880 0
DWIDTH 24 0
BBX 18 30 3 0
BITMAP
1F8FC0
1F8FC0
1F8FC0
03FE00
03FE00
03FE00
000000
000000
000000
FC0000
FC0000
FC0000
FC0000
FC0000
FC0000
FC7E00
FC7E00
FC7E00
FF8FC0
FF8FC0
FF8FC0
FC0FC0
FC0FC0
FC0FC0
FC0FC0
FC0FC0
FC0FC0
FC0FC0
FC0FC0
FC0FC0
ENDCHAR
STARTCHAR U+0220
ENCODING 544
SWIDTH 2880 0
DWIDTH 24 0
BBX 18 27 3 -6
BITMAP
FC7E00
FC7E00
FC7E00
FF8FC0
FF8FC0
FF8FC0
FC0FC0
FC0FC0
FC0FC0
FC0FC0
FC0FC0
FC0FC0
FC0FC0
FC0FC0
FC0FC0
FC0FC0
FC0FC0
FC0FC0
FC0FC0
FC0FC0
FC0FC0
000FC0
000FC0
000FC0
000FC0
000FC0
000FC0
ENDCHAR
STARTCHAR U+0221
ENCODING 545
SWIDTH 2880 0
DWIDTH 24 0
BBX 24 27 0 -6
BITMAP
000FC0
000FC0
000FC0
000FC0
000FC0
000FC0
1F8FC0
1F8FC0
1F8FC0
FC7FC0
FC7FC0
FC7FC0
FC0FC0
FC0FC0
FC0FC0
FC0FFF
FC0FFF
FC0FFF
1F8FC7
1F8FC7
1F8FC7
0001FF
0001FF
0001FF
000FC0
000FC0
000FC0
ENDCHAR
STARTCHAR U+0222
ENCODING 546
SWIDTH 2880 0
DWIDTH 24 0
BBX 18 21 3 0
BITMAP
000E00
000E00
000E00
1F8FC0
1F8FC0
1F8FC0
FC0FC0
FC0FC0
FC0FC0
1FFE00
1FFE00
1FFE00
FC0FC0
FC0FC0
FC0FC0
FC0FC0
FC0FC0
FC0FC0
1FFE00
1FFE00
1FFE00
ENDCHAR
STARTCHAR U+0223
ENCODING 547
SWIDTH 2880 0
DWIDTH 24 0
BBX 18 21 3 0
BITMAP
1C0E00
1C0E00
1C0E00
FC0FC0
FC0FC0
FC0FC0
FC0FC0
FC0FC0
FC0FC0
1FFE00
1FFE00
1FFE00
FC0FC0
FC0FC0
FC0FC0
FC0FC0
FC0FC0
FC0FC0
1FFE00
1FFE00
1FFE00
ENDCHAR
STARTCHAR U+0224
ENCODING 548
SWIDTH 2880 0
DWIDTH 24 0
BBX 18 27 3 -6
BITMAP
FFFFC0
FFFFC0
FFFFC0
E00FC0
E00FC0
E00FC0
007E00
007E00
007E00
03F000
03F000
03F000
1F8000
1F8000
1F8000
FC01C0
FC01C0
FC01C0
FFFFC0
FFFFC0
FFFFC0
000FC0
000FC0
000FC0
007E00
007E00
007E00
ENDCHAR
STARTCHAR U+0225
ENCODING 549
SWIDTH 2880 0
DWIDTH 24 0
BBX 18 21 3 -6
BITMAP
FFFFC0
FFFFC0
FFFFC0
E07E00
E07E00
E07E00
03F000
03F000
03F000
1F81C0
1F81C0
1F81C0
FFFFC0
FFFFC0
FFFFC0
000FC0
000FC0
000FC0
007E00
007E00
007E00
ENDCHAR
STARTCHAR U+0226
ENCODING 550
SWIDTH 2880 0
DWIDTH 24 0
BBX 18 30 3 0
BITMAP
03F000
03F000
03F000
03F000
03F000
03F000
000000
000000
000000
007000
007000
007000
038E00
038E00
038E00
1C0FC0
1C0FC0
1C0FC0
FFFFC0
FFFFC0
FFFFC0
FC0FC0
FC0FC0
FC0FC0
FC0FC0
FC0FC0
FC0FC0
FC0FC0
FC0FC0
FC0FC0
ENDCHAR
STARTCHAR U+0227
ENCODING 551
SWIDTH 2880 0
DWIDTH 24 0
BBX 18 24 3 0
BITMAP
03F000
03F000
03F000
03F000
03F000
03F000
000000
000000
000000
1FFE00
1FFE00
1FFE00
000FC0
000FC0
000FC0
1FFFC0
1FFFC0
1FFFC0
FC0FC0
FC0FC0
FC0FC0
1F8FC0
1F8FC0
1F8FC0
ENDCHAR
STARTCHAR U+0228
ENCODING 552
SWIDTH 2880 0
DWIDTH 24 0
BBX 18 27 3 -6
BITMAP
FFFFC0
FFFFC0
FFFFC0
FC01C0
FC01C0
FC01C0
FC0000
FC0000
FC0000
FFF000
FFF000
FFF000
FC0000
FC0000
FC0000
FC01C0
FC01C0
FC01C0
FFFFC0
FFFFC0
FFFFC0
03F000
03F000
03F000
1FF000
1FF000
1FF000
ENDCHAR
STARTCHAR U+0229
ENCODING 553
SWIDTH 2880 0
DWIDTH 24 0
BBX 18 21 3 -6
BITMAP
1FFE00
1FFE00
1FFE00
FC0FC0
FC0FC0
FC0FC0
FFFFC0
FFFFC0
FFFFC0
FC0000
FC0000
FC0000
1FFE00
1FFE00
1FFE00
03F000
03F000
03F000
1FF000
1FF000
1FF000
ENDCHAR
STARTCHAR U+022A
ENCODING 554
SWIDTH 2880 0
DWIDTH 24 0
BBX 18 30 3 0
BITMAP
FFFFC0
FFFFC0
FFFFC0
000000
000000
000000
FC0FC0
FC0FC0
FC0FC0
000000
000000
000000
1FFE00
1FFE00
1FFE00
FC0FC0
FC0FC0
FC0FC0
FC0FC0
FC0FC0
FC0FC0
FC0FC0
FC0FC0
FC0FC0
FC0FC0
FC0FC0
FC0FC0
1FFE00
1FFE00
1FFE00
ENDCHAR
STARTCHAR U+022B
ENCODING 555
SWIDTH 2880 0
DWIDTH 24 0
BBX 18 27 3 0
BITMAP
FFFFC0
FFFFC0
FFFFC0
000000
000000
000000
FC0FC0
FC0FC0
FC0FC0
000000
000000
000000
1FFE00
1FFE00
1FFE00
FC0FC0
FC0FC0
FC0FC0
FC0FC0
FC0FC0
FC0FC0
FC0FC0
FC0FC0
FC0FC0
1FFE00
1FFE00
1FFE00
ENDCHAR
STARTCHAR U+022C
ENCODING 556
SWIDTH 2880 0
DWIDTH 24 0
BBX 21 30 3 0
BITMAP
FFFFF8
FFFFF8
FFFFF8
000000
000000
000000
1FF1F8
1FF1F8
1FF1F8
FC7FC0
FC7FC0
FC7FC0
000000
000000
000000
1FFE00
1FFE00
1FFE00
FC0FC0
FC0FC0
FC0FC0
FC0FC0
FC0FC0
FC0FC0
FC0FC0
FC0FC0
FC0FC0
1FFE00
1FFE00
1FFE00
ENDCHAR
STARTCHAR U+022D
ENCODING 557
SWIDTH 2880 0
DWIDTH 24 0
BBX 21 30 3 0
BITMAP
FFFFF8
FFFFF8
FFFFF8
000000
000000
000000
1FF1F8
1FF1F8
1FF1F8
FC7FC0
FC7FC0
FC7FC0
000000
000000
000000
1FFE00
1FFE00
1FFE00
FC0FC0
FC0FC0
FC0FC0
FC0FC0
FC0FC0
FC0FC0
FC0FC0
FC0FC0
FC0FC0
1FFE00
1FFE00
1FFE00
ENDCHAR
STARTCHAR U+022E
ENCODING 558
SWIDTH 2880 0
DWIDTH 24 0
BBX 18 30 3 0
BITMAP
03F000
03F000
03F000
03F000
03F000
03F000
000000
000000
000000
1FFE00
1FFE00
1FFE00
FC0FC0
FC0FC0
FC0FC0
FC0FC0
FC0FC0
FC0FC0
FC0FC0
FC0FC0
FC0FC0
FC0FC0
FC0FC0
FC0FC0
FC0FC0
FC0FC0
FC0FC0
1FFE00
1FFE00
1FFE00
ENDCHAR
STARTCHAR U+022F
ENCODING 559
SWIDTH 2880 0
DWIDTH 24 0
BBX 18 24 3 0
BITMAP
03F000
03F000
03F000
03F000
03F000
03F000
000000
000000
000000
1FFE00
1FFE00
1FFE00
FC0FC0
FC0FC0
FC0FC0
FC0FC0
FC0FC0
FC0FC0
FC0FC0
FC0FC0
FC0FC0
1FFE00
1FFE00
1FFE00
ENDCHAR
STARTCHAR U+0230
ENCODING 560
SWIDTH 2880 0
DWIDTH 24 0
BBX 18 30 3 0
BITMAP
FFFFC0
FFFFC0
FFFFC0
000000
000000
000000
03F000
03F000
03F000
000000
000000
000000
1FFE00
1FFE00
1FFE00
FC0FC0
FC0FC0
FC0FC0
FC0FC0
FC0FC0
FC0FC0
FC0FC0
FC0FC0
FC0FC0
FC0FC0
FC0FC0
FC0FC0
1FFE00
1FFE00
1FFE00
ENDCHAR
STARTCHAR U+0231
ENCODING 561
SWIDTH 2880 0
DWIDTH 24 0
BBX 18 27 3 0
BITMAP
FFFFC0
FFFFC0
FFFFC0
000000
000000
000000
03F000
03F000
03F000
000000
000000
000000
1FFE00
1FFE00
1FFE00
FC0FC0
FC0FC0
FC0FC0
FC0FC0
FC0FC0
FC0FC0
FC0FC0
FC0FC0
FC0FC0
1FFE00
1FFE00
1FFE00
ENDCHAR
STARTCHAR U+0232
ENCODING 562
SWIDTH 2880 0
DWIDTH 24 0
BBX 18 27 3 0
BITMAP
1FFE00
1FFE00
1FFE00
000000
000000
000000
FC0FC0
FC0FC0
FC0FC0
FC0FC0
FC0FC0
FC0FC0
1C0E00
1C0E00
1C0E00
03F000
03F000
03F000
03F000
03F000
03F000
03F000
03F000
03F000
03F000
03F000
03F000
ENDCHAR
STARTCHAR U+0233
ENCODING 563
SWIDTH 2880 0
DWIDTH 24 0
BBX 18 27 3 -6
BITMAP
1FFE00
1FFE00
1FFE00
000000
000000
000000
FC0FC0
FC0FC0
FC0FC0
FC0FC0
FC0FC0
FC0FC0
FC0FC0
FC0FC0
FC0FC0
FC7FC0
FC7FC0
FC7FC0
1F8FC0
1F8FC0
1F8FC0
000FC0
000FC0
000FC0
1FFE00
1FFE00
1FFE00
ENDCHAR
STARTCHAR U+0234
ENCODING 564
SWIDTH 2880 0
DWIDTH 24 0
BBX 18 27 3 -6
BITMAP
FFF000
FFF000
FFF000
03F000
03F000
03F000
03F000
03F000
03F000
03F000
03F000
03F000
03F000
03F000
03F000
03FFC0
03FFC0
03FFC0
03F1C0
03F1C0
03F1C0
007FC0
007FC0
007FC0
03F000
03F000
03F000
ENDCHAR
STARTCHAR U+0235
ENCODING 565
SWIDTH 2880 0
DWIDTH 24 0
BBX 21 21 3 -6
BITMAP
FFF000
FFF000
FFF000
FC7E00
FC7E00
FC7E00
FC7E00
FC7E00
FC7E00
FC7FF8
FC7FF8
FC7FF8
FC7E38
FC7E38
FC7E38
000FF8
000FF8
000FF8
007E00
007E00
007E00
ENDCHAR
STARTCHAR U+0236
ENCODING 566
SWIDTH 2880 0
DWIDTH 24 0
BBX 18 27 3 -6
BITMAP
03F000
03F000
03F000
03F000
03F000
03F000
FFFFC0
FFFFC0
FFFFC0
03F000
03F000
03F000
03F000
03F000
03F000
03FFC0
03FFC0
03FFC0
0071C0
0071C0
0071C0
007FC0
007FC0
007FC0
03F000
03F000
03F000
ENDCHAR
STARTCHAR U+0237
ENCODING 567
SWIDTH 2880 0
DWIDTH 24 0
BBX 15 21 3 -6
BITMAP
1FFE00
1FFE00
1FFE00
007E00
007E00
007E00
007E00
007E00
007E00
007E00
007E00
007E00
007E00
007E00
007E00
FC7E00
FC7E00
FC7E00
1FF000
1FF000
1FF000
ENDCHAR
STARTCHAR U+0238
ENCODING 568
SWIDTH 2880 0
DWIDTH 24 0
BBX 24 21 0 0
BITMAP
007E00
007E00
007E00
007E00
007E00
007E00
1FFFF8
1FFFF8
1FFFF8
FC7E3F
FC7E3F
FC7E3F
FC7E3F
FC7E3F
FC7E3F
FC7E3F
FC7E3F
FC7E3F
1F81F8
1F81F8
1F81F8
ENDCHAR
STARTCHAR U+0239
ENCODING 569
SWIDTH 2880 0
DWIDTH 24 0
BBX 24 21 0 -6
BITMAP
1F81F8
1F81F8
1F81F8
FC7E3F
FC7E3F
FC7E3F
FC7E3F
FC7E3F
FC7E3F
FC7E3F
FC7E3F
FC7E3F
1FFFF8
1FFFF8
1FFFF8
007E00
007E00
007E00
007E00
007E00
007E00
ENDCHAR
STARTCHAR U+023A
ENCODING 570
SWIDTH 2880 0
DWIDTH 24 0
BBX 24 27 0 -3
BITMAP
000007
000007
000007
000E3F
000E3F
000E3F
0071F8
0071F8
0071F8
038FF8
038FF8
038FF8
1FFFF8
1FFFF8
1FFFF8
1FF1F8
1FF1F8
1FF1F8
1F81F8
1F81F8
1F81F8
FF81F8
FF81F8
FF81F8
E00000
E00000
E00000
ENDCHAR
STARTCHAR U+023B
ENCODING 571
SWIDTH 2880 0
DWIDTH 24 0
BBX 24 27 0 -3
BITMAP
000007
000007
000007
03FFFF
03FFFF
03FFFF
1F81F8
1F81F8
1F81F8
1F8FC0
1F8FC0
1F8FC0
1FFE00
1FFE00
1FFE00
1FF000
1FF000
1FF000
1F81F8
1F81F8
1F81F8
FFFFC0
FFFFC0
FFFFC0
E00000
E00000
E00000
ENDCHAR
STARTCHAR U+023C
ENCODING 572
SWIDTH 2880 0
DWIDTH 24 0
BBX 18 21 3 -3
BITMAP
000FC0
000FC0
000FC0
1FFE00
1FFE00
1FFE00
FC0E00
FC0E00
FC0E00
FC0000
FC0000
FC0000
FC0FC0
FC0FC0
FC0FC0
1FFE00
1FFE00
1FFE00
FC0000
FC0000
FC0000
ENDCHAR
STARTCHAR U+023D
ENCODING 573
SWIDTH 2880 0
DWIDTH 24 0
BBX 21 21 0 0
BITMAP
1F8000
1F8000
1F8000
1F8000
1F8000
1F8000
1F8000
1F8000
1F8000
FFFE00
FFFE00
FFFE00
1F8000
1F8000
1F8000
1F8038
1F8038
1F8038
1FFFF8
1FFFF8
1FFFF8
ENDCHAR
STARTCHAR U+023E
ENCODING 574
SWIDTH 2880 0
DWIDTH 24 0
BBX 24 27 0 -3
BITMAP
000007
000007
000007
1FFFFF
1FFFFF
1FFFFF
007E38
007E38
007E38
007FC0
007FC0
007FC0
007E00
007E00
007E00
03FE00
03FE00
03FE00
1FFE00
1FFE00
1FFE00
FC7E00
FC7E00
FC7E00
E00000
E00000
E00000
ENDCHAR
STARTCHAR U+023F
ENCODING 575
SWIDTH 2880 0
DWIDTH 24 0
BBX 21 21 3 -6
BITMAP
1FFE00
1FFE00
1FFE00
FC0000
FC0000
FC0000
1FFE00
1FFE00
1FFE00
000FC0
000FC0
000FC0
1FFE00
1FFE00
1FFE00
03F038
03F038
03F038
007FC0
007FC0
007FC0
ENDCHAR
STARTCHAR U+0240
ENCODING 576
SWIDTH 2880 0
DWIDTH 24 0
BBX 21 21 3 -6
BITMAP
FFFFC0
FFFFC0
FFFFC0
E07E00
E07E00
E07E00
03F000
03F000
03F000
1F8000
1F8000
1F8000
FF8000
FF8000
FF8000
03F1F8
03F1F8
03F1F8
007FC0
007FC0
007FC0
ENDCHAR
STARTCHAR U+0241
ENCODING 577
SWIDTH 2880 0
DWIDTH 24 0
BBX 18 21 3 0
BITMAP
1FFE00
1FFE00
1FFE00
FC0FC0
FC0FC0
FC0FC0
000FC0
000FC0
000FC0
007E00
007E00
007E00
03F000
03F000
03F000
03F000
03F000
03F000
03F000
03F000
03F000
ENDCHAR
STARTCHAR U+0242
ENCODING 578
SWIDTH 2880 0
DWIDTH 24 0
BBX 18 15 3 0
BITMAP
1FFE00
1FFE00
1FFE00
FC0FC0
FC0FC0
FC0FC0
007E00
007E00
007E00
03F000
03F000
03F000
03F000
03F000
03F000
ENDCHAR
STARTCHAR U+0243
ENCODING 579
SWIDTH 2880 0
DWIDTH 24 0
BBX 21 21 0 0
BITMAP
1FFFC0
1FFFC0
1FFFC0
1F81F8
1F81F8
1F81F8
1FFFC0
1FFFC0
1FFFC0
1F81F8
1F81F8
1F81F8
FFF1F8
FFF1F8
FFF1F8
1F81F8
1F81F8
1F81F8
1FFFC0
1FFFC0
1FFFC0
ENDCHAR
STARTCHAR U+0244
ENCODING 580
SWIDTH 2880 0
DWIDTH 24 0
BBX 24 21 0 0
BITMAP
1F81F8
1F81F8
1F81F8
1F81F8
1F81F8
1F81F8
1F81F8
1F81F8
1F81F8
FFFFFF
FFFFFF
FFFFFF
1F81F8
1F81F8
1F81F8
1F81F8
1F81F8
1F81F8
03FFC0
03FFC0
03FFC0
ENDCHAR
STARTCHAR U+0245
ENCODING 581
SWIDTH 2880 0
DWIDTH 24 0
BBX 18 21 3 0
BITMAP
007000
007000
007000
038E00
038E00
038E00
1C0FC0
1C0FC0
1C0FC0
FC0FC0
FC0FC0
FC0FC0
FC0FC0
FC0FC0
FC0FC0
FC0FC0
FC0FC0
FC0FC0
FC0FC0
FC0FC0
FC0FC0
ENDCHAR
STARTCHAR U+0246
ENCODING 582
SWIDTH 2880 0
DWIDTH 24 0
BBX 24 27 0 -3
BITMAP
000007
000007
000007
1FFFFF
1FFFFF
1FFFFF
1F81F8
1F81F8
1F81F8
1F8FC0
1F8FC0
1F8FC0
1FFE00
1FFE00
1FFE00
1FF000
1FF000
1FF000
1F8038
1F8038
1F8038
FFFFF8
FFFFF8
FFFFF8
E00000
E00000
E00000
ENDCHAR
STARTCHAR U+0247
ENCODING 583
SWIDTH 2880 0
DWIDTH 24 0
BBX 18 21 3 -3
BITMAP
000FC0
000FC0
000FC0
1FFE00
1FFE00
1FFE00
FC0FC0
FC0FC0
FC0FC0
FFFFC0
FFFFC0
FFFFC0
FC0000
FC0000
FC0000
1FFE00
1FFE00
1FFE00
FC0000
FC0000
FC0000
ENDCHAR
STARTCHAR U+0248
ENCODING 584
SWIDTH 2880 0
DWIDTH 24 0
BBX 18 24 3 -3
BITMAP
1FFFC0
1FFFC0
1FFFC0
007E00
007E00
007E00
007E00
007E00
007E00
1FFFC0
1FFFC0
1FFFC0
007E00
007E00
007E00
007E00
007E00
007E00
FC7E00
FC7E00
FC7E00
1FF000
1FF000
1FF000
ENDCHAR
STARTCHAR U+0249
ENCODING 585
SWIDTH 2880 0
DWIDTH 24 0
BBX 18 30 3 -6
BITMAP
007E00
007E00
007E00
007E00
007E00
007E00
000000
000000
000000
1FFE00
1FFE00
1FFE00
007E00
007E00
007E00
1FFFC0
1FFFC0
1FFFC0
007E00
007E00
007E00
007E00
007E00
007E00
FC7E00
FC7E00
FC7E00
1FF000
1FF000
1FF000
ENDCHAR
STARTCHAR U+024A
ENCODING 586
SWIDTH 2880 0
DWIDTH 24 0
BBX 21 27 3 -6
BITMAP
1FF1C0
1FF1C0
1FF1C0
FC0FC0
FC0FC0
FC0FC0
FC0FC0
FC0FC0
FC0FC0
FC0FC0
FC0FC0
FC0FC0
FC0FC0
FC0FC0
FC0FC0
FC7FC0
FC7FC0
FC7FC0
1F8FC0
1F8FC0
1F8FC0
000FC0
000FC0
000FC0
0001F8
0001F8
0001F8
ENDCHAR
STARTCHAR U+024B
ENCODING 587
SWIDTH 2880 0
DWIDTH 24 0
BBX 21 21 3 -6
BITMAP
1FF1C0
1FF1C0
1FF1C0
FC0FC0
FC0FC0
FC0FC0
FC0FC0
FC0FC0
FC0FC0
FC7FC0
FC7FC0
FC7FC0
1F8FC0
1F8FC0
1F8FC0
000FC0
000FC0
000FC0
0001F8
0001F8
0001F8
ENDCHAR
STARTCHAR U+024C
ENCODING 588
SWIDTH 2880 0
DWIDTH 24 0
BBX 21 21 0 0
BITMAP
1FFFC0
1FFFC0
1FFFC0
1F81F8
1F81F8
1F81F8
1F81F8
1F81F8
1F81F8
FFFFC0
FFFFC0
FFFFC0
1F81C0
1F81C0
1F81C0
1F81F8
1F81F8
1F81F8
1F81F8
1F81F8
1F81F8
ENDCHAR
STARTCHAR U+024D
ENCODING 589
SWIDTH 2880 0
DWIDTH 24 0
BBX 18 15 3 0
BITMAP
FF8FC0
FF8FC0
FF8FC0
1FF000
1FF000
1FF000
FFFE00
FFFE00
FFFE00
1F8000
1F8000
1F8000
1F8000
1F8000
1F8000
ENDCHAR
STARTCHAR U+024E
ENCODING 590
SWIDTH 2880 0
DWIDTH 24 0
BBX 24 21 0 0
BITMAP
1F81F8
1F81F8
1F81F8
FFFFFF
FFFFFF
FFFFFF
0381C0
0381C0
0381C0
007E00
007E00
007E00
007E00
007E00
007E00
007E00
007E00
007E00
007E00
007E00
007E00
ENDCHAR
STARTCHAR U+024F
ENCODING 591
SWIDTH 2880 0
DWIDTH 24 0
BBX 24 21 0 -6
BITMAP
1F81F8
1F81F8
1F81F8
FFFFFF
FFFFFF
FFFFFF
1F81F8
1F81F8
1F81F8
1F8FF8
1F8FF8
1F8FF8
03F1F8
03F1F8
03F1F8
0001F8
0001F8
0001F8
03FFC0
03FFC0
03FFC0
ENDCHAR
STARTCHAR U+0260
ENCODING 608
SWIDTH 2880 0
DWIDTH 24 0
BBX 21 30 3 -6
BITMAP
0001F8
0001F8
0001F8
000FC0
000FC0
000FC0
000FC0
000FC0
000FC0
1F8FC0
1F8FC0
1F8FC0
FC7FC0
FC7FC0
FC7FC0
FC0FC0
FC0FC0
FC0FC0
FC0FC0
FC0FC0
FC0FC0
1F8FC0
1F8FC0
1F8FC0
000FC0
000FC0
000FC0
1FFE00
1FFE00
1FFE00
ENDCHAR
STARTCHAR U+026B
ENCODING 619
SWIDTH 2880 0
DWIDTH 24 0
BBX 24 21 0 0
BITMAP
1FFE00
1FFE00
1FFE00
007E00
007E00
007E00
1FFE3F
1FFE3F
1FFE3F
FC7FF8
FC7FF8
FC7FF8
007E00
007E00
007E00
007E00
007E00
007E00
000FF8
000FF8
000FF8
ENDCHAR
STARTCHAR U+027E
ENCODING 638
SWIDTH 2880 0
DWIDTH 24 0
BBX 18 15 3 0
BITMAP
03FE00
03FE00
03FE00
1F8FC0
1F8FC0
1F8FC0
1F8000
1F8000
1F8000
1F8000
1F8000
1F8000
FFF000
FFF000
FFF000
ENDCHAR
STARTCHAR U+0280
ENCODING 640
SWIDTH 2880 0
DWIDTH 24 0
BBX 18 15 3 0
BITMAP
FFFE00
FFFE00
FFFE00
FC0FC0
FC0FC0
FC0FC0
FC7E00
FC7E00
FC7E00
FC0E00
FC0E00
FC0E00
FC0FC0
FC0FC0
FC0FC0
ENDCHAR
STARTCHAR U+02C6
ENCODING 710
SWIDTH 2880 0
DWIDTH 24 0
BBX 15 6 6 15
BITMAP
1FF000
1FF000
1FF000
FC7E00
FC7E00
FC7E00
ENDCHAR
STARTCHAR U+02C7
ENCODING 711
SWIDTH 2880 0
DWIDTH 24 0
BBX 15 6 6 15
BITMAP
FC7E00
FC7E00
FC7E00
1FF000
1FF000
1FF000
ENDCHAR
STARTCHAR U+02C9
ENCODING 713
SWIDTH 2880 0
DWIDTH 24 0
BBX 12 3 6 18
BITMAP
FFF000
FFF000
FFF000
ENDCHAR
STARTCHAR U+02D8
ENCODING 728
SWIDTH 2880 0
DWIDTH 24 0
BBX 18 6 3 15
BITMAP
FC0FC0
FC0FC0
FC0FC0
1FFE00
1FFE00
1FFE00
ENDCHAR
STARTCHAR U+02D9
ENCODING 729
SWIDTH 2880 0
DWIDTH 24 0
BBX 6 6 9 15
BITMAP
FC0000
FC0000
FC0000
FC0000
FC0000
FC0000
ENDCHAR
STARTCHAR U+02DA
ENCODING 730
SWIDTH 2880 0
DWIDTH 24 0
BBX 9 9 9 12
BITMAP
FF8000
FF8000
FF8000
E38000
E38000
E38000
FF8000
FF8000
FF8000
ENDCHAR
STARTCHAR U+02DB
ENCODING 731
SWIDTH 2880 0
DWIDTH 24 0
BBX 12 9 6 -6
BITMAP
1F8000
1F8000
1F8000
FC0000
FC0000
FC0000
1FF000
1FF000
1FF000
ENDCHAR
STARTCHAR U+02DC
ENCODING 732
SWIDTH 2880 0
DWIDTH 24 0
BBX 21 6 3 15
BITMAP
1FF1F8
1FF1F8
1FF1F8
FC7FC0
FC7FC0
FC7FC0
ENDCHAR
STARTCHAR U+02DD
ENCODING 733
SWIDTH 2880 0
DWIDTH 24 0
BBX 21 6 3 15
BITMAP
1F81F8
1F81F8
1F81F8
FC0FC0
FC0FC0
FC0FC0
ENDCHAR
STARTCHAR U+0384
ENCODING 900
SWIDTH 2880 0
DWIDTH 24 0
BBX 9 9 9 21
BITMAP
1F8000
1F8000
1F8000
FC0000
FC0000
FC0000
E00000
E00000
E00000
ENDCHAR
STARTCHAR U+0385
ENCODING 901
SWIDTH 2880 0
DWIDTH 24 0
BBX 18 9 3 21
BITMAP
03F000
03F000
03F000
038000
038000
038000
FC0FC0
FC0FC0
FC0FC0
ENDCHAR
STARTCHAR U+0386
ENCODING 902
SWIDTH 2880 0
DWIDTH 24 0
BBX 21 27 3 0
BITMAP
1F8000
1F8000
1F8000
FC0000
FC0000
FC0000
007000
007000
007000
007000
007000
007000
03FE00
03FE00
03FE00
038E00
038E00
038E00
1FFFC0
1FFFC0
1FFFC0
1C01C0
1C01C0
1C01C0
FC01F8
FC01F8
FC01F8
ENDCHAR
STARTCHAR U+0387
ENCODING 903
SWIDTH 2880 0
DWIDTH 24 0
BBX 6 6 9 6
BITMAP
FC0000
FC0000
FC0000
FC0000
FC0000
FC0000
ENDCHAR
STARTCHAR U+0388
ENCODING 904
SWIDTH 2880 0
DWIDTH 24 0
BBX 21 27 0 0
BITMAP
1F8000
1F8000
1F8000
FC0000
FC0000
FC0000
03FFF8
03FFF8
03FFF8
1F8038
1F8038
1F8038
1F8000
1F8000
1F8000
1FFE00
1FFE00
1FFE00
1F8000
1F8000
1F8000
1F8038
1F8038
1F8038
1FFFF8
1FFFF8
1FFFF8
ENDCHAR
STARTCHAR U+0389
ENCODING 905
SWIDTH 2880 0
DWIDTH 24 0
BBX 21 27 0 0
BITMAP
1F8000
1F8000
1F8000
FC0000
FC0000
FC0000
0381F8
0381F8
0381F8
1F81F8
1F81F8
1F81F8
1F81F8
1F81F8
1F81F8
1FFFF8
1FFFF8
1FFFF8
1F81F8
1F81F8
1F81F8
1F81F8
1F81F8
1F81F8
1F81F8
1F81F8
1F81F8
ENDCHAR
STARTCHAR U+038A
ENCODING 906
SWIDTH 2880 0
DWIDTH 24 0
BBX 21 27 0 0
BITMAP
1F8000
1F8000
1F8000
FC0000
FC0000
FC0000
03FFF8
03FFF8
03FFF8
007E00
007E00
007E00
007E00
007E00
007E00
007E00
007E00
007E00
007E00
007E00
007E00
007E00
007E00
007E00
1FFFF8
1FFFF8
1FFFF8
ENDCHAR
STARTCHAR U+038C
ENCODING 908
SWIDTH 2880 0
DWIDTH 24 0
BBX 21 27 0 0
BITMAP
1F8000
1F8000
1F8000
FC0000
FC0000
FC0000
03FFC0
03FFC0
03FFC0
1F81F8
1F81F8
1F81F8
1F81F8
1F81F8
1F81F8
1F81F8
1F81F8
1F81F8
1F81F8
1F81F8
1F81F8
1F81F8
1F81F8
1F81F8
03FFC0
03FFC0
03FFC0
ENDCHAR
STARTCHAR U+038E
ENCODING 910
SWIDTH 2880 0
DWIDTH 24 0
BBX 21 27 0 0
BITMAP
1F8000
1F8000
1F8000
FC0000
FC0000
FC0000
0381F8
0381F8
0381F8
1F81F8
1F81F8
1F81F8
0381C0
0381C0
0381C0
007E00
007E00
007E00
007E00
007E00
007E00
007E00
007E00
007E00
007E00
007E00
007E00
ENDCHAR
STARTCHAR U+038F
ENCODING 911
SWIDTH 2880 0
DWIDTH 24 0
BBX 24 27 0 0
BITMAP
1F8000
1F8000
1F8000
FC0000
FC0000
FC0000
03FFF8
03FFF8
03FFF8
1F803F
1F803F
1F803F
1F803F
1F803F
1F803F
1F803F
1F803F
1F803F
1F803F
1F803F
1F803F
03F1F8
03F1F8
03F1F8
1FF1FF
1FF1FF
1FF1FF
ENDCHAR
STARTCHAR U+0390
ENCODING 912
SWIDTH 2880 0
DWIDTH 24 0
BBX 18 27 3 0
BITMAP
03F000
03F000
03F000
038000
038000
038000
FC0FC0
FC0FC0
FC0FC0
000000
000000
000000
FFF000
FFF000
FFF000
03F000
03F000
03F000
03F000
03F000
03F000
03F000
03F000
03F000
007FC0
007FC0
007FC0
ENDCHAR
STARTCHAR U+0391
ENCODING 913
SWIDTH 2880 0
DWIDTH 24 0
BBX 21 21 3 0
BITMAP
007000
007000
007000
007000
007000
007000
03FE00
03FE00
03FE00
038E00
038E00
038E00
1FFFC0
1FFFC0
1FFFC0
1C01C0
1C01C0
1C01C0
FC01F8
FC01F8
FC01F8
ENDCHAR
STARTCHAR U+0392
ENCODING 914
SWIDTH 2880 0
DWIDTH 24 0
BBX 18 21 3 0
BITMAP
FFFE00
FFFE00
FFFE00
FC0FC0
FC0FC0
FC0FC0
FC0FC0
FC0FC0
FC0FC0
FC7E00
FC7E00
FC7E00
FC0FC0
FC0FC0
FC0FC0
FC0FC0
FC0FC0
FC0FC0
FC7E00
FC7E00
FC7E00
ENDCHAR
STARTCHAR U+0393
ENCODING 915
SWIDTH 2880 0
DWIDTH 24 0
BBX 18 21 3 0
BITMAP
FFFFC0
FFFFC0
FFFFC0
FC01C0
FC01C0
FC01C0
FC0000
FC0000
FC0000
FC0000
FC0000
FC0000
FC0000
FC0000
FC0000
FC0000
FC0000
FC0000
FC0000
FC0000
FC0000
ENDCHAR
STARTCHAR U+0394
ENCODING 916
SWIDTH 2880 0
DWIDTH 24 0
BBX 21 21 3 0
BITMAP
007000
007000
007000
007000
007000
007000
03FE00
03FE00
03FE00
038E00
038E00
038E00
1F8FC0
1F8FC0
1F8FC0
1C01C0
1C01C0
1C01C0
FFFFF8
FFFFF8
FFFFF8
ENDCHAR
STARTCHAR U+0395
ENCODING 917
SWIDTH 2880 0
DWIDTH 24 0
BBX 18 21 3 0
BITMAP
FFFFC0
FFFFC0
FFFFC0
FC01C0
FC01C0
FC01C0
FC0000
FC0000
FC0000
FFF000
FFF000
FFF000
FC0000
FC0000
FC0000
FC01C0
FC01C0
FC01C0
FFFFC0
FFFFC0
FFFFC0
ENDCHAR
STARTCHAR U+0396
ENCODING 918
SWIDTH 2880 0
DWIDTH 24 0
BBX 18 21 3 0
BITMAP
FFFFC0
FFFFC0
FFFFC0
E00FC0
E00FC0
E00FC0
007E00
007E00
007E00
03F000
03F000
03F000
1F8000
1F8000
1F8000
FC01C0
FC01C0
FC01C0
FFFFC0
FFFFC0
FFFFC0
ENDCHAR
STARTCHAR U+0397
ENCODING 919
SWIDTH 2880 0
DWIDTH 24 0
BBX 18 21 3 0
BITMAP
FC0FC0
FC0FC0
FC0FC0
FC0FC0
FC0FC0
FC0FC0
FC0FC0
FC0FC0
FC0FC0
FFFFC0
FFFFC0
FFFFC0
FC0FC0
FC0FC0
FC0FC0
FC0FC0
FC0FC0
FC0FC0
FC0FC0
FC0FC0
FC0FC0
ENDCHAR
STARTCHAR U+0398
ENCODING 920
SWIDTH 2880 0
DWIDTH 24 0
BBX 21 21 3 0
BITMAP
1FFFC0
1FFFC0
1FFFC0
FC01F8
FC01F8
FC01F8
FC01F8
FC01F8
FC01F8
FFFFF8
FFFFF8
FFFFF8
FC01F8
FC01F8
FC01F8
FC01F8
FC01F8
FC01F8
1FFFC0
1FFFC0
1FFFC0
ENDCHAR
STARTCHAR U+0399
ENCODING 921
SWIDTH 2880 0
DWIDTH 24 0
BBX 18 21 3 0
BITMAP
FFFFC0
FFFFC0
FFFFC0
03F000
03F000
03F000
03F000
03F000
03F000
03F000
03F000
03F000
03F000
03F000
03F000
03F000
03F000
03F000
FFFFC0
FFFFC0
FFFFC0
ENDCHAR
STARTCHAR U+039A
ENCODING 922
SWIDTH 2880 0
DWIDTH 24 0
BBX 18 21 3 0
BITMAP
FC0FC0
FC0FC0
FC0FC0
FC0FC0
FC0FC0
FC0FC0
FC0E00
FC0E00
FC0E00
FC7000
FC7000
FC7000
FF8E00
FF8E00
FF8E00
FC0FC0
FC0FC0
FC0FC0
FC0FC0
FC0FC0
FC0FC0
ENDCHAR
STARTCHAR U+039B
ENCODING 923
SWIDTH 2880 0
DWIDTH 24 0
BBX 21 21 3 0
BITMAP
007000
007000
007000
007000
007000
007000
03FE00
03FE00
03FE00
038E00
038E00
038E00
1F8FC0
1F8FC0
1F8FC0
1C01C0
1C01C0
1C01C0
FC01F8
FC01F8
FC01F8
ENDCHAR
STARTCHAR U+039C
ENCODING 924
SWIDTH 2880 0
DWIDTH 24 0
BBX 21 21 3 0
BITMAP
E00038
E00038
E00038
FC01F8
FC01F8
FC01F8
FF8FF8
FF8FF8
FF8FF8
FC71F8
FC71F8
FC71F8
FC01F8
FC01F8
FC01F8
FC01F8
FC01F8
FC01F8
FC01F8
FC01F8
FC01F8
ENDCHAR
STARTCHAR U+039D
ENCODING 925
SWIDTH 2880 0
DWIDTH 24 0
BBX 18 21 3 0
BITMAP
E00FC0
E00FC0
E00FC0
FC0FC0
FC0FC0
FC0FC0
FF8FC0
FF8FC0
FF8FC0
FC7FC0
FC7FC0
FC7FC0
FC0FC0
FC0FC0
FC0FC0
FC0FC0
FC0FC0
FC0FC0
FC0FC0
FC0FC0
FC0FC0
ENDCHAR
STARTCHAR U+039E
ENCODING 926
SWIDTH 2880 0
DWIDTH 24 0
BBX 18 21 3 0
BITMAP
FFFFC0
FFFFC0
FFFFC0
000000
000000
000000
000000
000000
000000
1FFE00
1FFE00
1FFE00
000000
000000
000000
000000
000000
000000
FFFFC0
FFFFC0
FFFFC0
ENDCHAR
STARTCHAR U+039F
ENCODING 927
SWIDTH 2880 0
DWIDTH 24 0
BBX 18 21 3 0
BITMAP
1FFE00
1FFE00
1FFE00
FC0FC0
FC0FC0
FC0FC0
FC0FC0
FC0FC0
FC0FC0
FC0FC0
FC0FC0
FC0FC0
FC0FC0
FC0FC0
FC0FC0
FC0FC0
FC0FC0
FC0FC0
1FFE00
1FFE00
1FFE00
ENDCHAR
STARTCHAR U+03A0
ENCODING 928
SWIDTH 2880 0
DWIDTH 24 0
BBX 21 21 3 0
BITMAP
FFFFF8
FFFFF8
FFFFF8
1F8FC0
1F8FC0
1F8FC0
1F8FC0
1F8FC0
1F8FC0
1F8FC0
1F8FC0
1F8FC0
1F8FC0
1F8FC0
1F8FC0
1F8FC0
1F8FC0
1F8FC0
1F8FC0
1F8FC0
1F8FC0
ENDCHAR
STARTCHAR U+03A1
ENCODING 929
SWIDTH 2880 0
DWIDTH 24 0
BBX 18 21 3 0
BITMAP
FFFE00
FFFE00
FFFE00
FC0FC0
FC0FC0
FC0FC0
FC0FC0
FC0FC0
FC0FC0
FC7E00
FC7E00
FC7E00
FC0000
FC0000
FC0000
FC0000
FC0000
FC0000
FC0000
FC0000
FC0000
ENDCHAR
STARTCHAR U+03A3
ENCODING 931
SWIDTH 2880 0
DWIDTH 24 0
BBX 18 21 3 0
BITMAP
FFFFC0
FFFFC0
FFFFC0
FC01C0
FC01C0
FC01C0
1F8000
1F8000
1F8000
03F000
03F000
03F000
1F8000
1F8000
1F8000
FC01C0
FC01C0
FC01C0
FFFFC0
FFFFC0
FFFFC0
ENDCHAR
STARTCHAR U+03A4
ENCODING 932
SWIDTH 2880 0
DWIDTH 24 0
BBX 18 21 3 0
BITMAP
FFFFC0
FFFFC0
FFFFC0
03F000
03F000
03F000
03F000
03F000
03F000
03F000
03F000
03F000
03F000
03F000
03F000
03F000
03F000
03F000
03F000
03F000
03F000
ENDCHAR
STARTCHAR U+03A5
ENCODING 933
SWIDTH 2880 0
DWIDTH 24 0
BBX 18 21 3 0
BITMAP
FC0FC0
FC0FC0
FC0FC0
FC0FC0
FC0FC0
FC0FC0
1C0E00
1C0E00
1C0E00
03F000
03F000
03F000
03F000
03F000
03F000
03F000
03F000
03F000
03F000
03F000
03F000
ENDCHAR
STARTCHAR U+03A6
ENCODING 934
SWIDTH 2880 0
DWIDTH 24 0
BBX 21 21 3 0
BITMAP
007000
007000
007000
1FFFC0
1FFFC0
1FFFC0
FC71F8
FC71F8
FC71F8
FC71F8
FC71F8
FC71F8
1FFFC0
1FFFC0
1FFFC0
007000
007000
007000
007000
007000
007000
ENDCHAR
STARTCHAR U+03A7
ENCODING 935
SWIDTH 2880 0
DWIDTH 24 0
BBX 18 21 3 0
BITMAP
FC0FC0
FC0FC0
FC0FC0
FC0FC0
FC0FC0
FC0FC0
1C0E00
1C0E00
1C0E00
03F000
03F000
03F000
1C0E00
1C0E00
1C0E00
FC0FC0
FC0FC0
FC0FC0
FC0FC0
FC0FC0
FC0FC0
ENDCHAR
STARTCHAR U+03A8
ENCODING 936
SWIDTH 2880 0
DWIDTH 24 0
BBX 21 21 3 0
BITMAP
FC71F8
FC71F8
FC71F8
FC71F8
FC71F8
FC71F8
FC71F8
FC71F8
FC71F8
FC71F8
FC71F8
FC71F8
1FFFC0
1FFFC0
1FFFC0
007000
007000
007000
007000
007000
007000
ENDCHAR
STARTCHAR U+03A9
ENCODING 937
SWIDTH 2880 0
DWIDTH 24 0
BBX 21 21 3 0
BITMAP
1FFFC0
1FFFC0
1FFFC0
FC01F8
FC01F8
FC01F8
FC01F8
FC01F8
FC01F8
FC01F8
FC01F8
FC01F8
FC01F8
FC01F8
FC01F8
1F8FC0
1F8FC0
1F8FC0
FF8FF8
FF8FF8
FF8FF8
ENDCHAR
STARTCHAR U+03AA
ENCODING 938
SWIDTH 2880 0
DWIDTH 24 0
BBX 18 30 3 0
BITMAP
FC0FC0
FC0FC0
FC0FC0
FC0FC0
FC0FC0
FC0FC0
000000
000000
000000
FFFFC0
FFFFC0
FFFFC0
03F000
03F000
03F000
03F000
03F000
03F000
03F000
03F000
03F000
03F000
03F000
03F000
03F000
03F000
03F000
FFFFC0
FFFFC0
FFFFC0
ENDCHAR
STARTCHAR U+03AB
ENCODING 939
SWIDTH 2880 0
DWIDTH 24 0
BBX 18 30 3 0
BITMAP
FC0FC0
FC0FC0
FC0FC0
FC0FC0
FC0FC0
FC0FC0
000000
000000
000000
FC0FC0
FC0FC0
FC0FC0
FC0FC0
FC0FC0
FC0FC0
1C0E00
1C0E00
1C0E00
03F000
03F000
03F000
03F000
03F000
03F000
03F000
03F000
03F000
03F000
03F000
03F000
ENDCHAR
STARTCHAR U+03AC
ENCODING 940
SWIDTH 2880 0
DWIDTH 24 0
BBX 18 24 3 0
BITMAP
007E00
007E00
007E00
03F000
03F000
03F000
000000
000000
000000
1F8FC0
1F8FC0
1F8FC0
FC7E00
FC7E00
FC7E00
FC7E00
FC7E00
FC7E00
FC7E00
FC7E00
FC7E00
1F8FC0
1F8FC0
1F8FC0
ENDCHAR
STARTCHAR U+03AD
ENCODING 941
SWIDTH 2880 0
DWIDTH 24 0
BBX 18 24 3 0
BITMAP
007E00
007E00
007E00
03F000
03F000
03F000
000000
000000
000000
1FFE00
1FFE00
1FFE00
FC0000
FC0000
FC0000
1F8000
1F8000
1F8000
FC0FC0
FC0FC0
FC0FC0
1FFE00
1FFE00
1FFE00
ENDCHAR
STARTCHAR U+03AE
ENCODING 942
SWIDTH 2880 0
DWIDTH 24 0
BBX 18 30 3 -6
BITMAP
007E00
007E00
007E00
03F000
03F000
03F000
000000
000000
000000
FC7E00
FC7E00
FC7E00
FF8FC0
FF8FC0
FF8FC0
FC0FC0
FC0FC0
FC0FC0
FC0FC0
FC0FC0
FC0FC0
FC0FC0
FC0FC0
FC0FC0
000FC0
000FC0
000FC0
000FC0
000FC0
000FC0
ENDCHAR
STARTCHAR U+03AF
ENCODING 943
SWIDTH 2880 0
DWIDTH 24 0
BBX 18 24 3 0
BITMAP
007E00
007E00
007E00
03F000
03F000
03F000
000000
000000
000000
FFF000
FFF000
FFF000
03F000
03F000
03F000
03F000
03F000
03F000
03F000
03F000
03F000
007FC0
007FC0
007FC0
ENDCHAR
STARTCHAR U+03B0
ENCODING 944
SWIDTH 2880 0
DWIDTH 24 0
BBX 18 27 3 0
BITMAP
03F000
03F000
03F000
038000
038000
038000
FC0FC0
FC0FC0
FC0FC0
000000
000000
000000
FC7E00
FC7E00
FC7E00
FC0FC0
FC0FC0
FC0FC0
FC0FC0
FC0FC0
FC0FC0
FC0FC0
FC0FC0
FC0FC0
1FFE00
1FFE00
1FFE00
ENDCHAR
STARTCHAR U+03B1
ENCODING 945
SWIDTH 2880 0
DWIDTH 24 0
BBX 18 15 3 0
BITMAP
1F8FC0
1F8FC0
1F8FC0
FC7E00
FC7E00
FC7E00
FC7E00
FC7E00
FC7E00
FC7E00
FC7E00
FC7E00
1F8FC0
1F8FC0
1F8FC0
ENDCHAR
STARTCHAR U+03B2
ENCODING 946
SWIDTH 2880 0
DWIDTH 24 0
BBX 18 27 3 -6
BITMAP
1FFE00
1FFE00
1FFE00
FC0FC0
FC0FC0
FC0FC0
FC0FC0
FC0FC0
FC0FC0
FC7E00
FC7E00
FC7E00
FC0FC0
FC0FC0
FC0FC0
FC0FC0
FC0FC0
FC0FC0
FC7E00
FC7E00
FC7E00
FC0000
FC0000
FC0000
FC0000
FC0000
FC0000
ENDCHAR
STARTCHAR U+03B3
ENCODING 947
SWIDTH 2880 0
DWIDTH 24 0
BBX 18 21 3 -6
BITMAP
FC0FC0
FC0FC0
FC0FC0
1F8FC0
1F8FC0
1F8FC0
1F8E00
1F8E00
1F8E00
03F000
03F000
03F000
03F000
03F000
03F000
03F000
03F000
03F000
03F000
03F000
03F000
ENDCHAR
STARTCHAR U+03B4
ENCODING 948
SWIDTH 2880 0
DWIDTH 24 0
BBX 18 21 3 0
BITMAP
1FFE00
1FFE00
1FFE00
FC0000
FC0000
FC0000
1FFE00
1FFE00
1FFE00
FC0FC0
FC0FC0
FC0FC0
FC0FC0
FC0FC0
FC0FC0
FC0FC0
FC0FC0
FC0FC0
1FFE00
1FFE00
1FFE00
ENDCHAR
STARTCHAR U+03B5
ENCODING 949
SWIDTH 2880 0
DWIDTH 24 0
BBX 18 15 3 0
BITMAP
1FFE00
1FFE00
1FFE00
FC0000
FC0000
FC0000
1F8000
1F8000
1F8000
FC0FC0
FC0FC0
FC0FC0
1FFE00
1FFE00
1FFE00
ENDCHAR
STARTCHAR U+03B6
ENCODING 950
SWIDTH 2880 0
DWIDTH 24 0
BBX 18 30 3 -6
BITMAP
FC0000
FC0000
FC0000
1FFFC0
1FFFC0
1FFFC0
007E00
007E00
007E00
03F000
03F000
03F000
1F8000
1F8000
1F8000
FC0000
FC0000
FC0000
FC0000
FC0000
FC0000
1FFE00
1FFE00
1FFE00
000FC0
000FC0
000FC0
007E00
007E00
007E00
ENDCHAR
STARTCHAR U+03B7
ENCODING 951
SWIDTH 2880 0
DWIDTH 24 0
BBX 18 21 3 -6
BITMAP
FC7E00
FC7E00
FC7E00
FF8FC0
FF8FC0
FF8FC0
FC0FC0
FC0FC0
FC0FC0
FC0FC0
FC0FC0
FC0FC0
FC0FC0
FC0FC0
FC0FC0
000FC0
000FC0
000FC0
000FC0
000FC0
000FC0
ENDCHAR
STARTCHAR U+03B8
ENCODING 952
SWIDTH 2880 0
DWIDTH 24 0
BBX 18 21 3 0
BITMAP
1FFE00
1FFE00
1FFE00
FC0FC0
FC0FC0
FC0FC0
FC0FC0
FC0FC0
FC0FC0
FFFFC0
FFFFC0
FFFFC0
FC0FC0
FC0FC0
FC0FC0
FC0FC0
FC0FC0
FC0FC0
1FFE00
1FFE00
1FFE00
ENDCHAR
STARTCHAR U+03B9
ENCODING 953
SWIDTH 2880 0
DWIDTH 24 0
BBX 18 15 3 0
BITMAP
FFF000
FFF000
FFF000
03F000
03F000
03F000
03F000
03F000
03F000
03F000
03F000
03F000
007FC0
007FC0
007FC0
ENDCHAR
STARTCHAR U+03BA
ENCODING 954
SWIDTH 2880 0
DWIDTH 24 0
BBX 18 15 3 0
BITMAP
FC0FC0
FC0FC0
FC0FC0
FC7E00
FC7E00
FC7E00
FFF000
FFF000
FFF000
FC7E00
FC7E00
FC7E00
FC0FC0
FC0FC0
FC0FC0
ENDCHAR
STARTCHAR U+03BB
ENCODING 955
SWIDTH 2880 0
DWIDTH 24 0
BBX 21 21 3 0
BITMAP
1FF000
1FF000
1FF000
007E00
007E00
007E00
007E00
007E00
007E00
03FE00
03FE00
03FE00
1FFE00
1FFE00
1FFE00
FC7E00
FC7E00
FC7E00
FC0FF8
FC0FF8
FC0FF8
ENDCHAR
STARTCHAR U+03BC
ENCODING 956
SWIDTH 2880 0
DWIDTH 24 0
BBX 21 21 3 -6
BITMAP
FC0FC0
FC0FC0
FC0FC0
FC0FC0
FC0FC0
FC0FC0
FC0FC0
FC0FC0
FC0FC0
FC0FC0
FC0FC0
FC0FC0
FFF1F8
FFF1F8
FFF1F8
FC0000
FC0000
FC0000
FC0000
FC0000
FC0000
ENDCHAR
STARTCHAR U+03BD
ENCODING 957
SWIDTH 2880 0
DWIDTH 24 0
BBX 18 15 3 0
BITMAP
FC0FC0
FC0FC0
FC0FC0
FC0FC0
FC0FC0
FC0FC0
FC0E00
FC0E00
FC0E00
1C7000
1C7000
1C7000
038000
038000
038000
ENDCHAR
STARTCHAR U+03BE
ENCODING 958
SWIDTH 2880 0
DWIDTH 24 0
BBX 18 30 3 -6
BITMAP
1F8000
1F8000
1F8000
03FE00
03FE00
03FE00
1F8000
1F8000
1F8000
1F8000
1F8000
1F8000
1FFE00
1FFE00
1FFE00
FC0000
FC0000
FC0000
FC0000
FC0000
FC0000
1FFE00
1FFE00
1FFE00
000FC0
000FC0
000FC0
007E00
007E00
007E00
ENDCHAR
STARTCHAR U+03BF
ENCODING 959
SWIDTH 2880 0
DWIDTH 24 0
BBX 18 15 3 0
BITMAP
1FFE00
1FFE00
1FFE00
FC0FC0
FC0FC0
FC0FC0
FC0FC0
FC0FC0
FC0FC0
FC0FC0
FC0FC0
FC0FC0
1FFE00
1FFE00
1FFE00
ENDCHAR
STARTCHAR U+03C0
ENCODING 960
SWIDTH 2880 0
DWIDTH 24 0
BBX 21 15 3 0
BITMAP
FFFFF8
FFFFF8
FFFFF8
1F8FC0
1F8FC0
1F8FC0
1F8FC0
1F8FC0
1F8FC0
1F8FC0
1F8FC0
1F8FC0
FC0FF8
FC0FF8
FC0FF8
ENDCHAR
STARTCHAR U+03C1
ENCODING 961
SWIDTH 2880 0
DWIDTH 24 0
BBX 18 21 3 -6
BITMAP
1FFE00
1FFE00
1FFE00
FC0FC0
FC0FC0
FC0FC0
FC0FC0
FC0FC0
FC0FC0
FC0FC0
FC0FC0
FC0FC0
FC7E00
FC7E00
FC7E00
FC0000
FC0000
FC0000
FC0000
FC0000
FC0000
ENDCHAR
STARTCHAR U+03C2
ENCODING 962
SWIDTH 2880 0
DWIDTH 24 0
BBX 18 21 3 -6
BITMAP
1FFE00
1FFE00
1FFE00
FC0FC0
FC0FC0
FC0FC0
FC0000
FC0000
FC0000
FC0000
FC0000
FC0000
1FFE00
1FFE00
1FFE00
000FC0
000FC0
000FC0
007E00
007E00
007E00
ENDCHAR
STARTCHAR U+03C3
ENCODING 963
SWIDTH 2880 0
DWIDTH 24 0
BBX 21 15 3 0
BITMAP
1FFFF8
1FFFF8
1FFFF8
FC0E00
FC0E00
FC0E00
FC0FC0
FC0FC0
FC0FC0
FC0FC0
FC0FC0
FC0FC0
1FFE00
1FFE00
1FFE00
ENDCHAR
STARTCHAR U+03C4
ENCODING 964
SWIDTH 2880 0
DWIDTH 24 0
BBX 18 15 3 0
BITMAP
FFFFC0
FFFFC0
FFFFC0
03F000
03F000
03F000
03F000
03F000
03F000
03F000
03F000
03F000
007E00
007E00
007E00
ENDCHAR
STARTCHAR U+03C5
ENCODING 965
SWIDTH 2880 0
DWIDTH 24 0
BBX 18 15 3 0
BITMAP
FC7E00
FC7E00
FC7E00
FC0FC0
FC0FC0
FC0FC0
FC0FC0
FC0FC0
FC0FC0
FC0FC0
FC0FC0
FC0FC0
1FFE00
1FFE00
1FFE00
ENDCHAR
STARTCHAR U+03C6
ENCODING 966
SWIDTH 2880 0
DWIDTH 24 0
BBX 21 21 3 -6
BITMAP
007FC0
007FC0
007FC0
E3F1F8
E3F1F8
E3F1F8
E3F1F8
E3F1F8
E3F1F8
E3F1F8
E3F1F8
E3F1F8
1FFFC0
1FFFC0
1FFFC0
03F000
03F000
03F000
03F000
03F000
03F000
ENDCHAR
STARTCHAR U+03C7
ENCODING 967
SWIDTH 2880 0
DWIDTH 24 0
BBX 18 21 3 -6
BITMAP
FC0FC0
FC0FC0
FC0FC0
1F8FC0
1F8FC0
1F8FC0
03FE00
03FE00
03FE00
03F000
03F000
03F000
1FF000
1FF000
1FF000
FC7E00
FC7E00
FC7E00
FC0FC0
FC0FC0
FC0FC0
ENDCHAR
STARTCHAR U+03C8
ENCODING 968
SWIDTH 2880 0
DWIDTH 24 0
BBX 21 21 3 -6
BITMAP
FC71F8
FC71F8
FC71F8
FC71F8
FC71F8
FC71F8
FC71F8
FC71F8
FC71F8
FC71F8
FC71F8
FC71F8
1FFFC0
1FFFC0
1FFFC0
007000
007000
007000
007000
007000
007000
ENDCHAR
STARTCHAR U+03C9
ENCODING 969
SWIDTH 2880 0
DWIDTH 24 0
BBX 21 15 3 0
BITMAP
1F8FC0
1F8FC0
1F8FC0
FC01F8
FC01F8
FC01F8
FC71F8
FC71F8
FC71F8
FC71F8
FC71F8
FC71F8
1F8FC0
1F8FC0
1F8FC0
ENDCHAR
STARTCHAR U+03CA
ENCODING 970
SWIDTH 2880 0
DWIDTH 24 0
BBX 18 24 3 0
BITMAP
FC0FC0
FC0FC0
FC0FC0
FC0FC0
FC0FC0
FC0FC0
000000
000000
000000
FFF000
FFF000
FFF000
03F000
03F000
03F000
03F000
03F000
03F000
03F000
03F000
03F000
007FC0
007FC0
007FC0
ENDCHAR
STARTCHAR U+03CB
ENCODING 971
SWIDTH 2880 0
DWIDTH 24 0
BBX 18 24 3 0
BITMAP
FC0FC0
FC0FC0
FC0FC0
FC0FC0
FC0FC0
FC0FC0
000000
000000
000000
FC7E00
FC7E00
FC7E00
FC0FC0
FC0FC0
FC0FC0
FC0FC0
FC0FC0
FC0FC0
FC0FC0
FC0FC0
FC0FC0
1FFE00
1FFE00
1FFE00
ENDCHAR
STARTCHAR U+03CC
ENCODING 972
SWIDTH 2880 0
DWIDTH 24 0
BBX 18 24 3 0
BITMAP
007E00
007E00
007E00
03F000
03F000
03F000
000000
000000
000000
1FFE00
1FFE00
1FFE00
FC0FC0
FC0FC0
FC0FC0
FC0FC0
FC0FC0
FC0FC0
FC0FC0
FC0FC0
FC0FC0
1FFE00
1FFE00
1FFE00
ENDCHAR
STARTCHAR U+03CD
ENCODING 973
SWIDTH 2880 0
DWIDTH 24 0
BBX 18 24 3 0
BITMAP
007E00
007E00
007E00
03F000
03F000
03F000
000000
000000
000000
FC7E00
FC7E00
FC7E00
FC0FC0
FC0FC0
FC0FC0
FC0FC0
FC0FC0
FC0FC0
FC0FC0
FC0FC0
FC0FC0
1FFE00
1FFE00
1FFE00
ENDCHAR
STARTCHAR U+03CE
ENCODING 974
SWIDTH 2880 0
DWIDTH 24 0
BBX 21 24 3 0
BITMAP
007E00
007E00
007E00
03F000
03F000
03F000
000000
000000
000000
1F8FC0
1F8FC0
1F8FC0
FC01F8
FC01F8
FC01F8
FC71F8
FC71F8
FC71F8
FC71F8
FC71F8
FC71F8
1F8FC0
1F8FC0
1F8FC0
ENDCHAR
STARTCHAR U+03FC
ENCODING 1020
SWIDTH 2880 0
DWIDTH 24 0
BBX 21 21 0 -6
BITMAP
03FFC0
03FFC0
03FFC0
1F81F8
1F81F8
1F81F8
1F81F8
1F81F8
1F81F8
1F8FC0
1F8FC0
1F8FC0
1F8000
1F8000
1F8000
FFFE00
FFFE00
FFFE00
1F8000
1F8000
1F8000
ENDCHAR
STARTCHAR U+0400
ENCODING 1024
SWIDTH 2880 0
DWIDTH 24 0
BBX 18 30 3 0
BITMAP
1F8000
1F8000
1F8000
03F000
03F000
03F000
000000
000000
000000
FFFFC0
FFFFC0
FFFFC0
FC01C0
FC01C0
FC01C0
FC0000
FC0000
FC0000
FFF000
FFF000
FFF000
FC0000
FC0000
FC0000
FC01C0
FC01C0
FC01C0
FFFFC0
FFFFC0
FFFFC0
ENDCHAR
STARTCHAR U+0401
ENCODING 1025
SWIDTH 2880 0
DWIDTH 24 0
BBX 18 30 3 0
BITMAP
FC0FC0
FC0FC0
FC0FC0
FC0FC0
FC0FC0
FC0FC0
000000
000000
000000
FFFFC0
FFFFC0
FFFFC0
FC01C0
FC01C0
FC01C0
FC0000
FC0000
FC0000
FFF000
FFF000
FFF000
FC0000
FC0000
FC0000
FC01C0
FC01C0
FC01C0
FFFFC0
FFFFC0
FFFFC0
ENDCHAR
STARTCHAR U+0402
ENCODING 1026
SWIDTH 2880 0
DWIDTH 24 0
BBX 21 21 0 0
BITMAP
FFFE00
FFFE00
FFFE00
1F8000
1F8000
1F8000
1F8FC0
1F8FC0
1F8FC0
1FF1F8
1FF1F8
1FF1F8
1F81F8
1F81F8
1F81F8
1F81F8
1F81F8
1F81F8
1F8FC0
1F8FC0
1F8FC0
ENDCHAR
STARTCHAR U+0403
ENCODING 1027
SWIDTH 2880 0
DWIDTH 24 0
BBX 18 30 3 0
BITMAP
007E00
007E00
007E00
03F000
03F000
03F000
000000
000000
000000
FFFFC0
FFFFC0
FFFFC0
FC01C0
FC01C0
FC01C0
FC0000
FC0000
FC0000
FC0000
FC0000
FC0000
FC0000
FC0000
FC0000
FC0000
FC0000
FC0000
FC0000
FC0000
FC0000
ENDCHAR
STARTCHAR U+0404
ENCODING 1028
SWIDTH 2880 0
DWIDTH 24 0
BBX 18 21 3 0
BITMAP
1FFE00
1FFE00
1FFE00
FC0FC0
FC0FC0
FC0FC0
FC0000
FC0000
FC0000
FFF000
FFF000
FFF000
FC0000
FC0000
FC0000
FC0FC0
FC0FC0
FC0FC0
1FFE00
1FFE00
1FFE00
ENDCHAR
STARTCHAR U+0405
ENCODING 1029
SWIDTH 2880 0
DWIDTH 24 0
BBX 18 21 3 0
BITMAP
1FFE00
1FFE00
1FFE00
FC0FC0
FC0FC0
FC0FC0
FC0000
FC0000
FC0000
1FFE00
1FFE00
1FFE00
000FC0
000FC0
000FC0
FC0FC0
FC0FC0
FC0FC0
1FFE00
1FFE00
1FFE00
ENDCHAR
STARTCHAR U+0406
ENCODING 1030
SWIDTH 2880 0
DWIDTH 24 0
BBX 18 21 3 0
BITMAP
FFFFC0
FFFFC0
FFFFC0
03F000
03F000
03F000
03F000
03F000
03F000
03F000
03F000
03F000
03F000
03F000
03F000
03F000
03F000
03F000
FFFFC0
FFFFC0
FFFFC0
ENDCHAR
STARTCHAR U+0407
ENCODING 1031
SWIDTH 2880 0
DWIDTH 24 0
BBX 18 30 3 0
BITMAP
FC0FC0
FC0FC0
FC0FC0
FC0FC0
FC0FC0
FC0FC0
000000
000000
000000
FFFFC0
FFFFC0
FFFFC0
03F000
03F000
03F000
03F000
03F000
03F000
03F000
03F000
03F000
03F000
03F000
03F000
03F000
03F000
03F000
FFFFC0
FFFFC0
FFFFC0
ENDCHAR
STARTCHAR U+0408
ENCODING 1032
SWIDTH 2880 0
DWIDTH 24 0
BBX 18 21 3 0
BITMAP
1FFFC0
1FFFC0
1FFFC0
007E00
007E00
007E00
007E00
007E00
007E00
007E00
007E00
007E00
007E00
007E00
007E00
FC7E00
FC7E00
FC7E00
1FF000
1FF000
1FF000
ENDCHAR
STARTCHAR U+0409
ENCODING 1033
SWIDTH 2880 0
DWIDTH 24 0
BBX 24 21 0 0
BITMAP
1FFFC0
1FFFC0
1FFFC0
1F8FC0
1F8FC0
1F8FC0
1F8FC0
1F8FC0
1F8FC0
1F8FF8
1F8FF8
1F8FF8
1F8FC7
1F8FC7
1F8FC7
1F8FC7
1F8FC7
1F8FC7
FC0FF8
FC0FF8
FC0FF8
ENDCHAR
STARTCHAR U+040A
ENCODING 1034
SWIDTH 2880 0
DWIDTH 24 0
BBX 21 21 3 0
BITMAP
FC7E00
FC7E00
FC7E00
FC7E00
FC7E00
FC7E00
FC7E00
FC7E00
FC7E00
FFFFC0
FFFFC0
FFFFC0
FC7E38
FC7E38
FC7E38
FC7E38
FC7E38
FC7E38
FC7FC0
FC7FC0
FC7FC0
ENDCHAR
STARTCHAR U+040B
ENCODING 1035
SWIDTH 2880 0
DWIDTH 24 0
BBX 21 21 0 0
BITMAP
FFFE00
FFFE00
FFFE00
1F8000
1F8000
1F8000
1F8FC0
1F8FC0
1F8FC0
1FF1F8
1FF1F8
1FF1F8
1F81F8
1F81F8
1F81F8
1F81F8
1F81F8
1F81F8
1F81F8
1F81F8
1F81F8
ENDCHAR
STARTCHAR U+040C
ENCODING 1036
SWIDTH 2880 0
DWIDTH 24 0
BBX 18 30 3 0
BITMAP
007E00
007E00
007E00
03F000
03F000
03F000
000000
000000
000000
FC0FC0
FC0FC0
FC0FC0
FC7E00
FC7E00
FC7E00
FC7E00
FC7E00
FC7E00
FFF000
FFF000
FFF000
FC7E00
FC7E00
FC7E00
FC7E00
FC7E00
FC7E00
FC0FC0
FC0FC0
FC0FC0
ENDCHAR
STARTCHAR U+040D
ENCODING 1037
SWIDTH 2880 0
DWIDTH 24 0
BBX 18 30 3 0
BITMAP
1F8000
1F8000
1F8000
03F000
03F000
03F000
000000
000000
000000
FC0FC0
FC0FC0
FC0FC0
FC0FC0
FC0FC0
FC0FC0
FC7FC0
FC7FC0
FC7FC0
FFFFC0
FFFFC0
FFFFC0
FF8FC0
FF8FC0
FF8FC0
FC0FC0
FC0FC0
FC0FC0
FC0FC0
FC0FC0
FC0FC0
ENDCHAR
STARTCHAR U+040E
ENCODING 1038
SWIDTH 2880 0
DWIDTH 24 0
BBX 18 30 3 0
BITMAP
FC0FC0
FC0FC0
FC0FC0
1FFE00
1FFE00
1FFE00
000000
000000
000000
FC0FC0
FC0FC0
FC0FC0
FC0FC0
FC0FC0
FC0FC0
FC0FC0
FC0FC0
FC0FC0
1C0FC0
1C0FC0
1C0FC0
038E00
038E00
038E00
007000
007000
007000
1F8000
1F8000
1F8000
ENDCHAR
STARTCHAR U+040F
ENCODING 1039
SWIDTH 2880 0
DWIDTH 24 0
BBX 21 27 3 -6
BITMAP
FC01F8
FC01F8
FC01F8
FC01F8
FC01F8
FC01F8
FC01F8
FC01F8
FC01F8
FC01F8
FC01F8
FC01F8
FC01F8
FC01F8
FC01F8
FC01F8
FC01F8
FC01F8
FFFFF8
FFFFF8
FFFFF8
007000
007000
007000
007000
007000
007000
ENDCHAR
STARTCHAR U+0410
ENCODING 1040
SWIDTH 2880 0
DWIDTH 24 0
BBX 18 21 3 0
BITMAP
007000
007000
007000
038E00
038E00
038E00
1C0FC0
1C0FC0
1C0FC0
FFFFC0
FFFFC0
FFFFC0
FC0FC0
FC0FC0
FC0FC0
FC0FC0
FC0FC0
FC0FC0
FC0FC0
FC0FC0
FC0FC0
ENDCHAR
STARTCHAR U+0411
ENCODING 1041
SWIDTH 2880 0
DWIDTH 24 0
BBX 18 21 3 0
BITMAP
FFFE00
FFFE00
FFFE00
FC0E00
FC0E00
FC0E00
FC0000
FC0000
FC0000
FFFE00
FFFE00
FFFE00
FC0FC0
FC0FC0
FC0FC0
FC0FC0
FC0FC0
FC0FC0
FFFE00
FFFE00
FFFE00
ENDCHAR
STARTCHAR U+0412
ENCODING 1042
SWIDTH 2880 0
DWIDTH 24 0
BBX 18 21 3 0
BITMAP
FFFE00
FFFE00
FFFE00
FC0FC0
FC0FC0
FC0FC0
FC0FC0
FC0FC0
FC0FC0
FFFE00
FFFE00
FFFE00
FC0FC0
FC0FC0
FC0FC0
FC0FC0
FC0FC0
FC0FC0
FFFE00
FFFE00
FFFE00
ENDCHAR
STARTCHAR U+0413
ENCODING 1043
SWIDTH 2880 0
DWIDTH 24 0
BBX 18 21 3 0
BITMAP
FFFFC0
FFFFC0
FFFFC0
FC01C0
FC01C0
FC01C0
FC0000
FC0000
FC0000
FC0000
FC0000
FC0000
FC0000
FC0000
FC0000
FC0000
FC0000
FC0000
FC0000
FC0000
FC0000
ENDCHAR
STARTCHAR U+0414
ENCODING 1044
SWIDTH 2880 0
DWIDTH 24 0
BBX 21 27 3 -6
BITMAP
1FFFC0
1FFFC0
1FFFC0
1F8FC0
1F8FC0
1F8FC0
1F8FC0
1F8FC0
1F8FC0
1F8FC0
1F8FC0
1F8FC0
1F8FC0
1F8FC0
1F8FC0
FC0FC0
FC0FC0
FC0FC0
FFFFF8
FFFFF8
FFFFF8
E00038
E00038
E00038
E00038
E00038
E00038
ENDCHAR
STARTCHAR U+0415
ENCODING 1045
SWIDTH 2880 0
DWIDTH 24 0
BBX 18 21 3 0
BITMAP
FFFFC0
FFFFC0
FFFFC0
FC01C0
FC01C0
FC01C0
FC0000
FC0000
FC0000
FFF000
FFF000
FFF000
FC0000
FC0000
FC0000
FC01C0
FC01C0
FC01C0
FFFFC0
FFFFC0
FFFFC0
ENDCHAR
STARTCHAR U+0416
ENCODING 1046
SWIDTH 2880 0
DWIDTH 24 0
BBX 21 21 3 0
BITMAP
FC71F8
FC71F8
FC71F8
FC71F8
FC71F8
FC71F8
1C71C0
1C71C0
1C71C0
03FE00
03FE00
03FE00
1C71C0
1C71C0
1C71C0
FC71F8
FC71F8
FC71F8
FC71F8
FC71F8
FC71F8
ENDCHAR
STARTCHAR U+0417
ENCODING 1047
SWIDTH 2880 0
DWIDTH 24 0
BBX 18 21 3 0
BITMAP
1FFE00
1FFE00
1FFE00
1C0FC0
1C0FC0
1C0FC0
000FC0
000FC0
000FC0
03FE00
03FE00
03FE00
000FC0
000FC0
000FC0
FC0FC0
FC0FC0
FC0FC0
1FFE00
1FFE00
1FFE00
ENDCHAR
STARTCHAR U+0418
ENCODING 1048
SWIDTH 2880 0
DWIDTH 24 0
BBX 18 21 3 0
BITMAP
FC0FC0
FC0FC0
FC0FC0
FC0FC0
FC0FC0
FC0FC0
FC7FC0
FC7FC0
FC7FC0
FFFFC0
FFFFC0
FFFFC0
FF8FC0
FF8FC0
FF8FC0
FC0FC0
FC0FC0
FC0FC0
FC0FC0
FC0FC0
FC0FC0
ENDCHAR
STARTCHAR U+0419
ENCODING 1049
SWIDTH 2880 0
DWIDTH 24 0
BBX 18 30 3 0
BITMAP
FC0FC0
FC0FC0
FC0FC0
1FFE00
1FFE00
1FFE00
000000
000000
000000
FC0FC0
FC0FC0
FC0FC0
FC0FC0
FC0FC0
FC0FC0
FC7FC0
FC7FC0
FC7FC0
FFFFC0
FFFFC0
FFFFC0
FF8FC0
FF8FC0
FF8FC0
FC0FC0
FC0FC0
FC0FC0
FC0FC0
FC0FC0
FC0FC0
ENDCHAR
STARTCHAR U+041A
ENCODING 1050
SWIDTH 2880 0
DWIDTH 24 0
BBX 18 21 3 0
BITMAP
FC0FC0
FC0FC0
FC0FC0
FC7E00
FC7E00
FC7E00
FC7E00
FC7E00
FC7E00
FFF000
FFF000
FFF000
FC7E00
FC7E00
FC7E00
FC7E00
FC7E00
FC7E00
FC0FC0
FC0FC0
FC0FC0
ENDCHAR
STARTCHAR U+041B
ENCODING 1051
SWIDTH 2880 0
DWIDTH 24 0
BBX 21 21 0 0
BITMAP
1FFFF8
1FFFF8
1FFFF8
1F81F8
1F81F8
1F81F8
1F81F8
1F81F8
1F81F8
1F81F8
1F81F8
1F81F8
1F81F8
1F81F8
1F81F8
1F81F8
1F81F8
1F81F8
FC01F8
FC01F8
FC01F8
ENDCHAR
STARTCHAR U+041C
ENCODING 1052
SWIDTH 2880 0
DWIDTH 24 0
BBX 21 21 3 0
BITMAP
E00038
E00038
E00038
FC01F8
FC01F8
FC01F8
FF8FF8
FF8FF8
FF8FF8
FC71F8
FC71F8
FC71F8
FC01F8
FC01F8
FC01F8
FC01F8
FC01F8
FC01F8
FC01F8
FC01F8
FC01F8
ENDCHAR
STARTCHAR U+041D
ENCODING 1053
SWIDTH 2880 0
DWIDTH 24 0
BBX 18 21 3 0
BITMAP
FC0FC0
FC0FC0
FC0FC0
FC0FC0
FC0FC0
FC0FC0
FC0FC0
FC0FC0
FC0FC0
FFFFC0
FFFFC0
FFFFC0
FC0FC0
FC0FC0
FC0FC0
FC0FC0
FC0FC0
FC0FC0
FC0FC0
FC0FC0
FC0FC0
ENDCHAR
STARTCHAR U+041E
ENCODING 1054
SWIDTH 2880 0
DWIDTH 24 0
BBX 18 21 3 0
BITMAP
1FFE00
1FFE00
1FFE00
FC0FC0
FC0FC0
FC0FC0
FC0FC0
FC0FC0
FC0FC0
FC0FC0
FC0FC0
FC0FC0
FC0FC0
FC0FC0
FC0FC0
FC0FC0
FC0FC0
FC0FC0
1FFE00
1FFE00
1FFE00
ENDCHAR
STARTCHAR U+041F
ENCODING 1055
SWIDTH 2880 0
DWIDTH 24 0
BBX 18 21 3 0
BITMAP
FFFFC0
FFFFC0
FFFFC0
FC0FC0
FC0FC0
FC0FC0
FC0FC0
FC0FC0
FC0FC0
FC0FC0
FC0FC0
FC0FC0
FC0FC0
FC0FC0
FC0FC0
FC0FC0
FC0FC0
FC0FC0
FC0FC0
FC0FC0
FC0FC0
ENDCHAR
STARTCHAR U+0420
ENCODING 1056
SWIDTH 2880 0
DWIDTH 24 0
BBX 18 21 3 0
BITMAP
FFFE00
FFFE00
FFFE00
FC0FC0
FC0FC0
FC0FC0
FC0FC0
FC0FC0
FC0FC0
FFFE00
FFFE00
FFFE00
FC0000
FC0000
FC0000
FC0000
FC0000
FC0000
FC0000
FC0000
FC0000
ENDCHAR
STARTCHAR U+0421
ENCODING 1057
SWIDTH 2880 0
DWIDTH 24 0
BBX 18 21 3 0
BITMAP
1FFE00
1FFE00
1FFE00
FC0FC0
FC0FC0
FC0FC0
FC0000
FC0000
FC0000
FC0000
FC0000
FC0000
FC0000
FC0000
FC0000
FC0FC0
FC0FC0
FC0FC0
1FFE00
1FFE00
1FFE00
ENDCHAR
STARTCHAR U+0422
ENCODING 1058
SWIDTH 2880 0
DWIDTH 24 0
BBX 18 21 3 0
BITMAP
FFFFC0
FFFFC0
FFFFC0
03F000
03F000
03F000
03F000
03F000
03F000
03F000
03F000
03F000
03F000
03F000
03F000
03F000
03F000
03F000
03F000
03F000
03F000
ENDCHAR
STARTCHAR U+0423
ENCODING 1059
SWIDTH 2880 0
DWIDTH 24 0
BBX 18 21 3 0
BITMAP
FC0FC0
FC0FC0
FC0FC0
FC0FC0
FC0FC0
FC0FC0
FC0FC0
FC0FC0
FC0FC0
1C0FC0
1C0FC0
1C0FC0
038E00
038E00
038E00
007000
007000
007000
1F8000
1F8000
1F8000
ENDCHAR
STARTCHAR U+0424
ENCODING 1060
SWIDTH 2880 0
DWIDTH 24 0
BBX 21 21 3 0
BITMAP
007000
007000
007000
1FFFC0
1FFFC0
1FFFC0
FC71F8
FC71F8
FC71F8
FC71F8
FC71F8
FC71F8
1FFFC0
1FFFC0
1FFFC0
007000
007000
007000
007000
007000
007000
ENDCHAR
STARTCHAR U+0425
ENCODING 1061
SWIDTH 2880 0
DWIDTH 24 0
BBX 18 21 3 0
BITMAP
FC0FC0
FC0FC0
FC0FC0
FC0FC0
FC0FC0
FC0FC0
1C0E00
1C0E00
1C0E00
03F000
03F000
03F000
1C0E00
1C0E00
1C0E00
FC0FC0
FC0FC0
FC0FC0
FC0FC0
FC0FC0
FC0FC0
ENDCHAR
STARTCHAR U+0426
ENCODING 1062
SWIDTH 2880 0
DWIDTH 24 0
BBX 21 27 3 -6
BITMAP
FC0FC0
FC0FC0
FC0FC0
FC0FC0
FC0FC0
FC0FC0
FC0FC0
FC0FC0
FC0FC0
FC0FC0
FC0FC0
FC0FC0
FC0FC0
FC0FC0
FC0FC0
FC0FC0
FC0FC0
FC0FC0
FFFFF8
FFFFF8
FFFFF8
000038
000038
000038
000038
000038
000038
ENDCHAR
STARTCHAR U+0427
ENCODING 1063
SWIDTH 2880 0
DWIDTH 24 0
BBX 18 21 3 0
BITMAP
FC0FC0
FC0FC0
FC0FC0
FC0FC0
FC0FC0
FC0FC0
FC0FC0
FC0FC0
FC0FC0
FC7FC0
FC7FC0
FC7FC0
1F8FC0
1F8FC0
1F8FC0
000FC0
000FC0
000FC0
000FC0
000FC0
000FC0
ENDCHAR
STARTCHAR U+0428
ENCODING 1064
SWIDTH 2880 0
DWIDTH 24 0
BBX 21 21 3 0
BITMAP
FC71F8
FC71F8
FC71F8
FC71F8
FC71F8
FC71F8
FC71F8
FC71F8
FC71F8
FC71F8
FC71F8
FC71F8
FC71F8
FC71F8
FC71F8
FC71F8
FC71F8
FC71F8
FFFFF8
FFFFF8
FFFFF8
ENDCHAR
STARTCHAR U+0429
ENCODING 1065
SWIDTH 2880 0
DWIDTH 24 0
BBX 21 27 3 -6
BITMAP
FC71C0
FC71C0
FC71C0
FC71C0
FC71C0
FC71C0
FC71C0
FC71C0
FC71C0
FC71C0
FC71C0
FC71C0
FC71C0
FC71C0
FC71C0
FC71C0
FC71C0
FC71C0
FFFFF8
FFFFF8
FFFFF8
000038
000038
000038
000038
000038
000038
ENDCHAR
STARTCHAR U+042A
ENCODING 1066
SWIDTH 2880 0
DWIDTH 24 0
BBX 21 21 0 0
BITMAP
FFF000
FFF000
FFF000
03F000
03F000
03F000
03F000
03F000
03F000
03FFC0
03FFC0
03FFC0
03F1F8
03F1F8
03F1F8
03F1F8
03F1F8
03F1F8
03FFC0
03FFC0
03FFC0
ENDCHAR
STARTCHAR U+042B
ENCODING 1067
SWIDTH 2880 0
DWIDTH 24 0
BBX 18 21 3 0
BITMAP
FC0FC0
FC0FC0
FC0FC0
FC0FC0
FC0FC0
FC0FC0
FC0FC0
FC0FC0
FC0FC0
FF8FC0
FF8FC0
FF8FC0
FC7FC0
FC7FC0
FC7FC0
FC7FC0
FC7FC0
FC7FC0
FF8FC0
FF8FC0
FF8FC0
ENDCHAR
STARTCHAR U+042C
ENCODING 1068
SWIDTH 2880 0
DWIDTH 24 0
BBX 18 21 3 0
BITMAP
FC0000
FC0000
FC0000
FC0000
FC0000
FC0000
FC0000
FC0000
FC0000
FFFE00
FFFE00
FFFE00
FC0FC0
FC0FC0
FC0FC0
FC0FC0
FC0FC0
FC0FC0
FFFE00
FFFE00
FFFE00
ENDCHAR
STARTCHAR U+042D
ENCODING 1069
SWIDTH 2880 0
DWIDTH 24 0
BBX 18 21 3 0
BITMAP
1FFE00
1FFE00
1FFE00
FC0FC0
FC0FC0
FC0FC0
000FC0
000FC0
000FC0
03FFC0
03FFC0
03FFC0
000FC0
000FC0
000FC0
FC0FC0
FC0FC0
FC0FC0
1FFE00
1FFE00
1FFE00
ENDCHAR
STARTCHAR U+042E
ENCODING 1070
SWIDTH 2880 0
DWIDTH 24 0
BBX 21 21 3 0
BITMAP
FC0FC0
FC0FC0
FC0FC0
FC71F8
FC71F8
FC71F8
FC71F8
FC71F8
FC71F8
FFF1F8
FFF1F8
FFF1F8
FC71F8
FC71F8
FC71F8
FC71F8
FC71F8
FC71F8
FC0FC0
FC0FC0
FC0FC0
ENDCHAR
STARTCHAR U+042F
ENCODING 1071
SWIDTH 2880 0
DWIDTH 24 0
BBX 18 21 3 0
BITMAP
1FFFC0
1FFFC0
1FFFC0
FC0FC0
FC0FC0
FC0FC0
FC0FC0
FC0FC0
FC0FC0
1FFFC0
1FFFC0
1FFFC0
1F8FC0
1F8FC0
1F8FC0
1F8FC0
1F8FC0
1F8FC0
FC0FC0
FC0FC0
FC0FC0
ENDCHAR
STARTCHAR U+0430
ENCODING 1072
SWIDTH 2880 0
DWIDTH 24 0
BBX 18 15 3 0
BITMAP
1FFE00
1FFE00
1FFE00
000FC0
000FC0
000FC0
1FFFC0
1FFFC0
1FFFC0
FC0FC0
FC0FC0
FC0FC0
1F8FC0
1F8FC0
1F8FC0
ENDCHAR
STARTCHAR U+0431
ENCODING 1073
SWIDTH 2880 0
DWIDTH 24 0
BBX 18 24 3 0
BITMAP
000FC0
000FC0
000FC0
1FFE00
1FFE00
1FFE00
FC0000
FC0000
FC0000
FC7E00
FC7E00
FC7E00
FC0FC0
FC0FC0
FC0FC0
FC0FC0
FC0FC0
FC0FC0
FC0FC0
FC0FC0
FC0FC0
1FFE00
1FFE00
1FFE00
ENDCHAR
STARTCHAR U+0432
ENCODING 1074
SWIDTH 2880 0
DWIDTH 24 0
BBX 18 15 3 0
BITMAP
FFFE00
FFFE00
FFFE00
FC0FC0
FC0FC0
FC0FC0
FFFE00
FFFE00
FFFE00
FC0FC0
FC0FC0
FC0FC0
FFFE00
FFFE00
FFFE00
ENDCHAR
STARTCHAR U+0433
ENCODING 1075
SWIDTH 2880 0
DWIDTH 24 0
BBX 18 15 3 0
BITMAP
FFFFC0
FFFFC0
FFFFC0
FC01C0
FC01C0
FC01C0
FC0000
FC0000
FC0000
FC0000
FC0000
FC0000
FC0000
FC0000
FC0000
ENDCHAR
STARTCHAR U+0434
ENCODING 1076
SWIDTH 2880 0
DWIDTH 24 0
BBX 21 18 3 -3
BITMAP
1FFFC0
1FFFC0
1FFFC0
1F8FC0
1F8FC0
1F8FC0
1F8FC0
1F8FC0
1F8FC0
FC0FC0
FC0FC0
FC0FC0
FFFFF8
FFFFF8
FFFFF8
E00038
E00038
E00038
ENDCHAR
STARTCHAR U+0435
ENCODING 1077
SWIDTH 2880 0
DWIDTH 24 0
BBX 18 15 3 0
BITMAP
1FFE00
1FFE00
1FFE00
FC0FC0
FC0FC0
FC0FC0
FFFFC0
FFFFC0
FFFFC0
FC0000
FC0000
FC0000
1FFE00
1FFE00
1FFE00
ENDCHAR
STARTCHAR U+0436
ENCODING 1078
SWIDTH 2880 0
DWIDTH 24 0
BBX 21 15 3 0
BITMAP
FC71F8
FC71F8
FC71F8
FC71F8
FC71F8
FC71F8
1FFFC0
1FFFC0
1FFFC0
FC71F8
FC71F8
FC71F8
FC71F8
FC71F8
FC71F8
ENDCHAR
STARTCHAR U+0437
ENCODING 1079
SWIDTH 2880 0
DWIDTH 24 0
BBX 18 15 3 0
BITMAP
1FFE00
1FFE00
1FFE00
1C0FC0
1C0FC0
1C0FC0
007E00
007E00
007E00
FC0FC0
FC0FC0
FC0FC0
1FFE00
1FFE00
1FFE00
ENDCHAR
STARTCHAR U+0438
ENCODING 1080
SWIDTH 2880 0
DWIDTH 24 0
BBX 18 15 3 0
BITMAP
FC0FC0
FC0FC0
FC0FC0
FC7FC0
FC7FC0
FC7FC0
FFFFC0
FFFFC0
FFFFC0
FF8FC0
FF8FC0
FF8FC0
FC0FC0
FC0FC0
FC0FC0
ENDCHAR
STARTCHAR U+0439
ENCODING 1081
SWIDTH 2880 0
DWIDTH 24 0
BBX 18 24 3 0
BITMAP
FC0FC0
FC0FC0
FC0FC0
1FFE00
1FFE00
1FFE00
000000
000000
000000
FC0FC0
FC0FC0
FC0FC0
FC7FC0
FC7FC0
FC7FC0
FFFFC0
FFFFC0
FFFFC0
FF8FC0
FF8FC0
FF8FC0
FC0FC0
FC0FC0
FC0FC0
ENDCHAR
STARTCHAR U+043A
ENCODING 1082
SWIDTH 2880 0
DWIDTH 24 0
BBX 18 15 3 0
BITMAP
FC0FC0
FC0FC0
FC0FC0
FC7E00
FC7E00
FC7E00
FFF000
FFF000
FFF000
FC7E00
FC7E00
FC7E00
FC0FC0
FC0FC0
FC0FC0
ENDCHAR
STARTCHAR U+043B
ENCODING 1083
SWIDTH 2880 0
DWIDTH 24 0
BBX 21 15 0 0
BITMAP
1FFFF8
1FFFF8
1FFFF8
1F81F8
1F81F8
1F81F8
1F81F8
1F81F8
1F81F8
1F81F8
1F81F8
1F81F8
FC01F8
FC01F8
FC01F8
ENDCHAR
STARTCHAR U+043C
ENCODING 1084
SWIDTH 2880 0
DWIDTH 24 0
BBX 18 15 3 0
BITMAP
E001C0
E001C0
E001C0
FC0FC0
FC0FC0
FC0FC0
FFFFC0
FFFFC0
FFFFC0
FC71C0
FC71C0
FC71C0
FC01C0
FC01C0
FC01C0
ENDCHAR
STARTCHAR U+043D
ENCODING 1085
SWIDTH 2880 0
DWIDTH 24 0
BBX 18 15 3 0
BITMAP
FC0FC0
FC0FC0
FC0FC0
FC0FC0
FC0FC0
FC0FC0
FFFFC0
FFFFC0
FFFFC0
FC0FC0
FC0FC0
FC0FC0
FC0FC0
FC0FC0
FC0FC0
ENDCHAR
STARTCHAR U+043E
ENCODING 1086
SWIDTH 2880 0
DWIDTH 24 0
BBX 18 15 3 0
BITMAP
1FFE00
1FFE00
1FFE00
FC0FC0
FC0FC0
FC0FC0
FC0FC0
FC0FC0
FC0FC0
FC0FC0
FC0FC0
FC0FC0
1FFE00
1FFE00
1FFE00
ENDCHAR
STARTCHAR U+043F
ENCODING 1087
SWIDTH 2880 0
DWIDTH 24 0
BBX 18 15 3 0
BITMAP
FFFFC0
FFFFC0
FFFFC0
FC0FC0
FC0FC0
FC0FC0
FC0FC0
FC0FC0
FC0FC0
FC0FC0
FC0FC0
FC0FC0
FC0FC0
FC0FC0
FC0FC0
ENDCHAR
STARTCHAR U+0440
ENCODING 1088
SWIDTH 2880 0
DWIDTH 24 0
BBX 18 21 3 -6
BITMAP
FC7E00
FC7E00
FC7E00
FF8FC0
FF8FC0
FF8FC0
FC0FC0
FC0FC0
FC0FC0
FC0FC0
FC0FC0
FC0FC0
FC7E00
FC7E00
FC7E00
FC0000
FC0000
FC0000
FC0000
FC0000
FC0000
ENDCHAR
STARTCHAR U+0441
ENCODING 1089
SWIDTH 2880 0
DWIDTH 24 0
BBX 18 15 3 0
BITMAP
1FFE00
1FFE00
1FFE00
FC0E00
FC0E00
FC0E00
FC0000
FC0000
FC0000
FC0FC0
FC0FC0
FC0FC0
1FFE00
1FFE00
1FFE00
ENDCHAR
STARTCHAR U+0442
ENCODING 1090
SWIDTH 2880 0
DWIDTH 24 0
BBX 18 15 3 0
BITMAP
FFFFC0
FFFFC0
FFFFC0
03F000
03F000
03F000
03F000
03F000
03F000
03F000
03F000
03F000
03F000
03F000
03F000
ENDCHAR
STARTCHAR U+0443
ENCODING 1091
SWIDTH 2880 0
DWIDTH 24 0
BBX 18 21 3 -6
BITMAP
FC0FC0
FC0FC0
FC0FC0
FC0FC0
FC0FC0
FC0FC0
FC0FC0
FC0FC0
FC0FC0
1C0FC0
1C0FC0
1C0FC0
038E00
038E00
038E00
007000
007000
007000
1F8000
1F8000
1F8000
ENDCHAR
STARTCHAR U+0444
ENCODING 1092
SWIDTH 2880 0
DWIDTH 24 0
BBX 21 27 3 -6
BITMAP
007000
007000
007000
007000
007000
007000
1FFFC0
1FFFC0
1FFFC0
FC71F8
FC71F8
FC71F8
FC71F8
FC71F8
FC71F8
FC71F8
FC71F8
FC71F8
1FFFC0
1FFFC0
1FFFC0
007000
007000
007000
007000
007000
007000
ENDCHAR
STARTCHAR U+0445
ENCODING 1093
SWIDTH 2880 0
DWIDTH 24 0
BBX 18 15 3 0
BITMAP
FC0FC0
FC0FC0
FC0FC0
FC0FC0
FC0FC0
FC0FC0
1FFE00
1FFE00
1FFE00
FC0FC0
FC0FC0
FC0FC0
FC0FC0
FC0FC0
FC0FC0
ENDCHAR
STARTCHAR U+0446
ENCODING 1094
SWIDTH 2880 0
DWIDTH 24 0
BBX 21 18 3 -3
BITMAP
FC0FC0
FC0FC0
FC0FC0
FC0FC0
FC0FC0
FC0FC0
FC0FC0
FC0FC0
FC0FC0
FC0FC0
FC0FC0
FC0FC0
FFFFF8
FFFFF8
FFFFF8
000038
000038
000038
ENDCHAR
STARTCHAR U+0447
ENCODING 1095
SWIDTH 2880 0
DWIDTH 24 0
BBX 18 15 3 0
BITMAP
FC0FC0
FC0FC0
FC0FC0
FC0FC0
FC0FC0
FC0FC0
FC7FC0
FC7FC0
FC7FC0
1F8FC0
1F8FC0
1F8FC0
000FC0
000FC0
000FC0
ENDCHAR
STARTCHAR U+0448
ENCODING 1096
SWIDTH 2880 0
DWIDTH 24 0
BBX 18 15 3 0
BITMAP
FC71C0
FC71C0
FC71C0
FC71C0
FC71C0
FC71C0
FC71C0
FC71C0
FC71C0
FC71C0
FC71C0
FC71C0
FFFFC0
FFFFC0
FFFFC0
ENDCHAR
STARTCHAR U+0449
ENCODING 1097
SWIDTH 2880 0
DWIDTH 24 0
BBX 21 18 3 -3
BITMAP
FC71C0
FC71C0
FC71C0
FC71C0
FC71C0
FC71C0
FC71C0
FC71C0
FC71C0
FC71C0
FC71C0
FC71C0
FFFFF8
FFFFF8
FFFFF8
000038
000038
000038
ENDCHAR
STARTCHAR U+044A
ENCODING 1098
SWIDTH 2880 0
DWIDTH 24 0
BBX 21 15 0 0
BITMAP
FFF000
FFF000
FFF000
03F000
03F000
03F000
03FFC0
03FFC0
03FFC0
03F1F8
03F1F8
03F1F8
03FFC0
03FFC0
03FFC0
ENDCHAR
STARTCHAR U+044B
ENCODING 1099
SWIDTH 2880 0
DWIDTH 24 0
BBX 18 15 3 0
BITMAP
FC0FC0
FC0FC0
FC0FC0
FC0FC0
FC0FC0
FC0FC0
FF8FC0
FF8FC0
FF8FC0
FC7FC0
FC7FC0
FC7FC0
FF8FC0
FF8FC0
FF8FC0
ENDCHAR
STARTCHAR U+044C
ENCODING 1100
SWIDTH 2880 0
DWIDTH 24 0
BBX 18 15 3 0
BITMAP
FC0000
FC0000
FC0000
FC0000
FC0000
FC0000
FFFE00
FFFE00
FFFE00
FC0FC0
FC0FC0
FC0FC0
FFFE00
FFFE00
FFFE00
ENDCHAR
STARTCHAR U+044D
ENCODING 1101
SWIDTH 2880 0
DWIDTH 24 0
BBX 18 15 3 0
BITMAP
1FFE00
1FFE00
1FFE00
1C0FC0
1C0FC0
1C0FC0
007FC0
007FC0
007FC0
FC0FC0
FC0FC0
FC0FC0
1FFE00
1FFE00
1FFE00
ENDCHAR
STARTCHAR U+044E
ENCODING 1102
SWIDTH 2880 0
DWIDTH 24 0
BBX 21 15 3 0
BITMAP
FC0FC0
FC0FC0
FC0FC0
FC71F8
FC71F8
FC71F8
FFF1F8
FFF1F8
FFF1F8
FC71F8
FC71F8
FC71F8
FC0FC0
FC0FC0
FC0FC0
ENDCHAR
STARTCHAR U+044F
ENCODING 1103
SWIDTH 2880 0
DWIDTH 24 0
BBX 18 15 3 0
BITMAP
1FFFC0
1FFFC0
1FFFC0
FC0FC0
FC0FC0
FC0FC0
1FFFC0
1FFFC0
1FFFC0
1F8FC0
1F8FC0
1F8FC0
FC0FC0
FC0FC0
FC0FC0
ENDCHAR
STARTCHAR U+0450
ENCODING 1104
SWIDTH 2880 0
DWIDTH 24 0
BBX 18 24 3 0
BITMAP
1F8000
1F8000
1F8000
03F000
03F000
03F000
000000
000000
000000
1FFE00
1FFE00
1FFE00
FC0FC0
FC0FC0
FC0FC0
FFFFC0
FFFFC0
FFFFC0
FC0000
FC0000
FC0000
1FFE00
1FFE00
1FFE00
ENDCHAR
STARTCHAR U+0451
ENCODING 1105
SWIDTH 2880 0
DWIDTH 24 0
BBX 18 24 3 0
BITMAP
FC0FC0
FC0FC0
FC0FC0
FC0FC0
FC0FC0
FC0FC0
000000
000000
000000
1FFE00
1FFE00
1FFE00
FC0FC0
FC0FC0
FC0FC0
FFFFC0
FFFFC0
FFFFC0
FC0000
FC0000
FC0000
1FFE00
1FFE00
1FFE00
ENDCHAR
STARTCHAR U+0452
ENCODING 1106
SWIDTH 2880 0
DWIDTH 24 0
BBX 21 30 0 -6
BITMAP
1F8000
1F8000
1F8000
FFFE00
FFFE00
FFFE00
1F8000
1F8000
1F8000
1F8FC0
1F8FC0
1F8FC0
1FF1F8
1FF1F8
1FF1F8
1F81F8
1F81F8
1F81F8
1F81F8
1F81F8
1F81F8
1F81F8
1F81F8
1F81F8
0001F8
0001F8
0001F8
000FC0
000FC0
000FC0
ENDCHAR
STARTCHAR U+0453
ENCODING 1107
SWIDTH 2880 0
DWIDTH 24 0
BBX 18 24 3 0
BITMAP
007E00
007E00
007E00
03F000
03F000
03F000
000000
000000
000000
FFFFC0
FFFFC0
FFFFC0
FC01C0
FC01C0
FC01C0
FC0000
FC0000
FC0000
FC0000
FC0000
FC0000
FC0000
FC0000
FC0000
ENDCHAR
STARTCHAR U+0454
ENCODING 1108
SWIDTH 2880 0
DWIDTH 24 0
BBX 18 15 3 0
BITMAP
1FFE00
1FFE00
1FFE00
FC0E00
FC0E00
FC0E00
FF8000
FF8000
FF8000
FC0FC0
FC0FC0
FC0FC0
1FFE00
1FFE00
1FFE00
ENDCHAR
STARTCHAR U+0455
ENCODING 1109
SWIDTH 2880 0
DWIDTH 24 0
BBX 18 15 3 0
BITMAP
1FFE00
1FFE00
1FFE00
FC0000
FC0000
FC0000
1FFE00
1FFE00
1FFE00
000FC0
000FC0
000FC0
1FFE00
1FFE00
1FFE00
ENDCHAR
STARTCHAR U+0456
ENCODING 1110
SWIDTH 2880 0
DWIDTH 24 0
BBX 18 24 3 0
BITMAP
03F000
03F000
03F000
03F000
03F000
03F000
000000
000000
000000
FFF000
FFF000
FFF000
03F000
03F000
03F000
03F000
03F000
03F000
03F000
03F000
03F000
FFFFC0
FFFFC0
FFFFC0
ENDCHAR
STARTCHAR U+0457
ENCODING 1111
SWIDTH 2880 0
DWIDTH 24 0
BBX 18 24 3 0
BITMAP
FC0FC0
FC0FC0
FC0FC0
FC0FC0
FC0FC0
FC0FC0
000000
000000
000000
FFF000
FFF000
FFF000
03F000
03F000
03F000
03F000
03F000
03F000
03F000
03F000
03F000
FFFFC0
FFFFC0
FFFFC0
ENDCHAR
STARTCHAR U+0458
ENCODING 1112
SWIDTH 2880 0
DWIDTH 24 0
BBX 15 30 3 -6
BITMAP
007E00
007E00
007E00
007E00
007E00
007E00
000000
000000
000000
1FFE00
1FFE00
1FFE00
007E00
007E00
007E00
007E00
007E00
007E00
007E00
007E00
007E00
007E00
007E00
007E00
FC7E00
FC7E00
FC7E00
1FF000
1FF000
1FF000
ENDCHAR
STARTCHAR U+0459
ENCODING 1113
SWIDTH 2880 0
DWIDTH 24 0
BBX 24 15 0 0
BITMAP
1FFFC0
1FFFC0
1FFFC0
1F8FC0
1F8FC0
1F8FC0
1F8FF8
1F8FF8
1F8FF8
1F8FC7
1F8FC7
1F8FC7
FC0FF8
FC0FF8
FC0FF8
ENDCHAR
STARTCHAR U+045A
ENCODING 1114
SWIDTH 2880 0
DWIDTH 24 0
BBX 21 15 3 0
BITMAP
FC7E00
FC7E00
FC7E00
FC7E00
FC7E00
FC7E00
FFFFC0
FFFFC0
FFFFC0
FC7E38
FC7E38
FC7E38
FC7FC0
FC7FC0
FC7FC0
ENDCHAR
STARTCHAR U+045B
ENCODING 1115
SWIDTH 2880 0
DWIDTH 24 0
BBX 21 24 0 0
BITMAP
1F8000
1F8000
1F8000
FFFE00
FFFE00
FFFE00
1F8000
1F8000
1F8000
1F8FC0
1F8FC0
1F8FC0
1FF1F8
1FF1F8
1FF1F8
1F81F8
1F81F8
1F81F8
1F81F8
1F81F8
1F81F8
1F81F8
1F81F8
1F81F8
ENDCHAR
STARTCHAR U+045C
ENCODING 1116
SWIDTH 2880 0
DWIDTH 24 0
BBX 18 24 3 0
BITMAP
007E00
007E00
007E00
03F000
03F000
03F000
000000
000000
000000
FC0FC0
FC0FC0
FC0FC0
FC7E00
FC7E00
FC7E00
FFF000
FFF000
FFF000
FC7E00
FC7E00
FC7E00
FC0FC0
FC0FC0
FC0FC0
ENDCHAR
STARTCHAR U+045D
ENCODING 1117
SWIDTH 2880 0
DWIDTH 24 0
BBX 18 24 3 0
BITMAP
1F8000
1F8000
1F8000
03F000
03F000
03F000
000000
000000
000000
FC0FC0
FC0FC0
FC0FC0
FC7FC0
FC7FC0
FC7FC0
FFFFC0
FFFFC0
FFFFC0
FF8FC0
FF8FC0
FF8FC0
FC0FC0
FC0FC0
FC0FC0
ENDCHAR
STARTCHAR U+045E
ENCODING 1118
SWIDTH 2880 0
DWIDTH 24 0
BBX 18 30 3 -6
BITMAP
FC0FC0
FC0FC0
FC0FC0
1FFE00
1FFE00
1FFE00
000000
000000
000000
FC0FC0
FC0FC0
FC0FC0
FC0FC0
FC0FC0
FC0FC0
FC0FC0
FC0FC0
FC0FC0
1C0FC0
1C0FC0
1C0FC0
038E00
038E00
038E00
007000
007000
007000
1F8000
1F8000
1F8000
ENDCHAR
STARTCHAR U+045F
ENCODING 1119
SWIDTH 2880 0
DWIDTH 24 0
BBX 21 21 3 -6
BITMAP
FC01F8
FC01F8
FC01F8
FC01F8
FC01F8
FC01F8
FC01F8
FC01F8
FC01F8
FC01F8
FC01F8
FC01F8
FFFFF8
FFFFF8
FFFFF8
007000
007000
007000
007000
007000
007000
ENDCHAR
STARTCHAR U+0490
ENCODING 1168
SWIDTH 2880 0
DWIDTH 24 0
BBX 18 24 3 0
BITMAP
0001C0
0001C0
0001C0
FFFFC0
FFFFC0
FFFFC0
FC0000
FC0000
FC0000
FC0000
FC0000
FC0000
FC0000
FC0000
FC0000
FC0000
FC0000
FC0000
FC0000
FC0000
FC0000
FC0000
FC0000
FC0000
ENDCHAR
STARTCHAR U+0491
ENCODING 1169
SWIDTH 2880 0
DWIDTH 24 0
BBX 18 18 3 0
BITMAP
0001C0
0001C0
0001C0
FFFFC0
FFFFC0
FFFFC0
FC0000
FC0000
FC0000
FC0000
FC0000
FC0000
FC0000
FC0000
FC0000
FC0000
FC0000
FC0000
ENDCHAR
STARTCHAR U+1DB2
ENCODING 7602
SWIDTH 2880 0
DWIDTH 24 0
BBX 15 18 3 9
BITMAP
038000
038000
038000
1FF000
1FF000
1FF000
E38E00
E38E00
E38E00
E38E00
E38E00
E38E00
1FF000
1FF000
1FF000
038000
038000
038000
ENDCHAR
STARTCHAR U+1DBF
ENCODING 7615
SWIDTH 2880 0
DWIDTH 24 0
BBX 15 15 3 12
BITMAP
1FF000
1FF000
1FF000
FC7E00
FC7E00
FC7E00
FFFE00
FFFE00
FFFE00
FC7E00
FC7E00
FC7E00
1FF000
1FF000
1FF000
ENDCHAR
STARTCHAR U+1E02
ENCODING 7682
SWIDTH 2880 0
DWIDTH 24 0
BBX 18 30 3 0
BITMAP
03F000
03F000
03F000
03F000
03F000
03F000
000000
000000
000000
FFFE00
FFFE00
FFFE00
FC0FC0
FC0FC0
FC0FC0
FC0FC0
FC0FC0
FC0FC0
FC7E00
FC7E00
FC7E00
FC0FC0
FC0FC0
FC0FC0
FC0FC0
FC0FC0
FC0FC0
FC7E00
FC7E00
FC7E00
ENDCHAR
STARTCHAR U+1E03
ENCODING 7683
SWIDTH 2880 0
DWIDTH 24 0
BBX 18 24 3 0
BITMAP
007E00
007E00
007E00
FC7E00
FC7E00
FC7E00
FC0000
FC0000
FC0000
FC7E00
FC7E00
FC7E00
FF8FC0
FF8FC0
FF8FC0
FC0FC0
FC0FC0
FC0FC0
FC0FC0
FC0FC0
FC0FC0
FC7E00
FC7E00
FC7E00
ENDCHAR
STARTCHAR U+1E04
ENCODING 7684
SWIDTH 2880 0
DWIDTH 24 0
BBX 18 27 3 -6
BITMAP
FFFE00
FFFE00
FFFE00
FC0FC0
FC0FC0
FC0FC0
FC0FC0
FC0FC0
FC0FC0
FC7E00
FC7E00
FC7E00
FC0FC0
FC0FC0
FC0FC0
FC0FC0
FC0FC0
FC0FC0
FC7E00
FC7E00
FC7E00
000000
000000
000000
03F000
03F000
03F000
ENDCHAR
STARTCHAR U+1E0A
ENCODING 7690
SWIDTH 2880 0
DWIDTH 24 0
BBX 18 30 3 0
BITMAP
03F000
03F000
03F000
03F000
03F000
03F000
000000
000000
000000
FFF000
FFF000
FFF000
FC0E00
FC0E00
FC0E00
FC0FC0
FC0FC0
FC0FC0
FC0FC0
FC0FC0
FC0FC0
FC0FC0
FC0FC0
FC0FC0
FC0E00
FC0E00
FC0E00
FFF000
FFF000
FFF000
ENDCHAR
STARTCHAR U+1E0B
ENCODING 7691
SWIDTH 2880 0
DWIDTH 24 0
BBX 18 24 3 0
BITMAP
1F8000
1F8000
1F8000
1F8FC0
1F8FC0
1F8FC0
000FC0
000FC0
000FC0
1F8FC0
1F8FC0
1F8FC0
FC7FC0
FC7FC0
FC7FC0
FC0FC0
FC0FC0
FC0FC0
FC0FC0
FC0FC0
FC0FC0
1F8FC0
1F8FC0
1F8FC0
ENDCHAR
STARTCHAR U+1E0C
ENCODING 7692
SWIDTH 2880 0
DWIDTH 24 0
BBX 18 27 3 -6
BITMAP
FFF000
FFF000
FFF000
FC0E00
FC0E00
FC0E00
FC0FC0
FC0FC0
FC0FC0
FC0FC0
FC0FC0
FC0FC0
FC0FC0
FC0FC0
FC0FC0
FC0E00
FC0E00
FC0E00
FFF000
FFF000
FFF000
000000
000000
000000
03F000
03F000
03F000
ENDCHAR
STARTCHAR U+1E1E
ENCODING 7710
SWIDTH 2880 0
DWIDTH 24 0
BBX 18 30 3 0
BITMAP
03F000
03F000
03F000
03F000
03F000
03F000
000000
000000
000000
FFFFC0
FFFFC0
FFFFC0
FC01C0
FC01C0
FC01C0
FC0000
FC0000
FC0000
FFF000
FFF000
FFF000
FC0000
FC0000
FC0000
FC0000
FC0000
FC0000
FC0000
FC0000
FC0000
ENDCHAR
STARTCHAR U+1E1F
ENCODING 7711
SWIDTH 2880 0
DWIDTH 24 0
BBX 18 30 3 0
BITMAP
03F000
03F000
03F000
03F000
03F000
03F000
000000
000000
000000
007FC0
007FC0
007FC0
03F000
03F000
03F000
FFFFC0
FFFFC0
FFFFC0
03F000
03F000
03F000
03F000
03F000
03F000
03F000
03F000
03F000
03F000
03F000
03F000
ENDCHAR
STARTCHAR U+1E22
ENCODING 7714
SWIDTH 2880 0
DWIDTH 24 0
BBX 18 30 3 0
BITMAP
03F000
03F000
03F000
03F000
03F000
03F000
000000
000000
000000
FC0FC0
FC0FC0
FC0FC0
FC0FC0
FC0FC0
FC0FC0
FC0FC0
FC0FC0
FC0FC0
FFFFC0
FFFFC0
FFFFC0
FC0FC0
FC0FC0
FC0FC0
FC0FC0
FC0FC0
FC0FC0
FC0FC0
FC0FC0
FC0FC0
ENDCHAR
STARTCHAR U+1E23
ENCODING 7715
SWIDTH 2880 0
DWIDTH 24 0
BBX 18 24 3 0
BITMAP
007E00
007E00
007E00
FC7E00
FC7E00
FC7E00
FC0000
FC0000
FC0000
FC7E00
FC7E00
FC7E00
FF8FC0
FF8FC0
FF8FC0
FC0FC0
FC0FC0
FC0FC0
FC0FC0
FC0FC0
FC0FC0
FC0FC0
FC0FC0
FC0FC0
ENDCHAR
STARTCHAR U+1E24
ENCODING 7716
SWIDTH 2880 0
DWIDTH 24 0
BBX 18 27 3 -6
BITMAP
FC0FC0
FC0FC0
FC0FC0
FC0FC0
FC0FC0
FC0FC0
FC0FC0
FC0FC0
FC0FC0
FFFFC0
FFFFC0
FFFFC0
FC0FC0
FC0FC0
FC0FC0
FC0FC0
FC0FC0
FC0FC0
FC0FC0
FC0FC0
FC0FC0
000000
000000
000000
03F000
03F000
03F000
ENDCHAR
STARTCHAR U+1E36
ENCODING 7734
SWIDTH 2880 0
DWIDTH 24 0
BBX 18 27 3 -6
BITMAP
FC0000
FC0000
FC0000
FC0000
FC0000
FC0000
FC0000
FC0000
FC0000
FC0000
FC0000
FC0000
FC0000
FC0000
FC0000
FC01C0
FC01C0
FC01C0
FFFFC0
FFFFC0
FFFFC0
000000
000000
000000
03F000
03F000
03F000
ENDCHAR
STARTCHAR U+1E40
ENCODING 7744
SWIDTH 2880 0
DWIDTH 24 0
BBX 21 30 3 0
BITMAP
03F000
03F000
03F000
03F000
03F000
03F000
000000
000000
000000
E00038
E00038
E00038
FC01F8
FC01F8
FC01F8
FF8FF8
FF8FF8
FF8FF8
FC71F8
FC71F8
FC71F8
FC01F8
FC01F8
FC01F8
FC01F8
FC01F8
FC01F8
FC01F8
FC01F8
FC01F8
ENDCHAR
STARTCHAR U+1E41
ENCODING 7745
SWIDTH 2880 0
DWIDTH 24 0
BBX 18 24 3 0
BITMAP
03F000
03F000
03F000
03F000
03F000
03F000
000000
000000
000000
FF8E00
FF8E00
FF8E00
FC71C0
FC71C0
FC71C0
FC71C0
FC71C0
FC71C0
FC71C0
FC71C0
FC71C0
FC71C0
FC71C0
FC71C0
ENDCHAR
STARTCHAR U+1E42
ENCODING 7746
SWIDTH 2880 0
DWIDTH 24 0
BBX 21 27 3 -6
BITMAP
E00038
E00038
E00038
FC01F8
FC01F8
FC01F8
FF8FF8
FF8FF8
FF8FF8
FC71F8
FC71F8
FC71F8
FC01F8
FC01F8
FC01F8
FC01F8
FC01F8
FC01F8
FC01F8
FC01F8
FC01F8
000000
000000
000000
03F000
03F000
03F000
ENDCHAR
STARTCHAR U+1E44
ENCODING 7748
SWIDTH 2880 0
DWIDTH 24 0
BBX 18 30 3 0
BITMAP
03F000
03F000
03F000
03F000
03F000
03F000
000000
000000
000000
E00FC0
E00FC0
E00FC0
FC0FC0
FC0FC0
FC0FC0
FF8FC0
FF8FC0
FF8FC0
FC7FC0
FC7FC0
FC7FC0
FC0FC0
FC0FC0
FC0FC0
FC0FC0
FC0FC0
FC0FC0
FC0FC0
FC0FC0
FC0FC0
ENDCHAR
STARTCHAR U+1E45
ENCODING 7749
SWIDTH 2880 0
DWIDTH 24 0
BBX 18 24 3 0
BITMAP
03F000
03F000
03F000
03F000
03F000
03F000
000000
000000
000000
FC7E00
FC7E00
FC7E00
FF8FC0
FF8FC0
FF8FC0
FC0FC0
FC0FC0
FC0FC0
FC0FC0
FC0FC0
FC0FC0
FC0FC0
FC0FC0
FC0FC0
ENDCHAR
STARTCHAR U+1E46
ENCODING 7750
SWIDTH 2880 0
DWIDTH 24 0
BBX 18 27 3 -6
BITMAP
E00FC0
E00FC0
E00FC0
FC0FC0
FC0FC0
FC0FC0
FF8FC0
FF8FC0
FF8FC0
FC7FC0
FC7FC0
FC7FC0
FC0FC0
FC0FC0
FC0FC0
FC0FC0
FC0FC0
FC0FC0
FC0FC0
FC0FC0
FC0FC0
000000
000000
000000
03F000
03F000
03F000
ENDCHAR
STARTCHAR U+1E56
ENCODING 7766
SWIDTH 2880 0
DWIDTH 24 0
BBX 18 30 3 0
BITMAP
03F000
03F000
03F000
03F000
03F000
03F000
000000
000000
000000
FFFE00
FFFE00
FFFE00
FC0FC0
FC0FC0
FC0FC0
FC0FC0
FC0FC0
FC0FC0
FC7E00
FC7E00
FC7E00
FC0000
FC0000
FC0000
FC0000
FC0000
FC0000
FC0000
FC0000
FC0000
ENDCHAR
STARTCHAR U+1E57
ENCODING 7767
SWIDTH 2880 0
DWIDTH 24 0
BBX 18 30 3 -6
BITMAP
03F000
03F000
03F000
03F000
03F000
03F000
000000
000000
000000
FC7E00
FC7E00
FC7E00
FF8FC0
FF8FC0
FF8FC0
FC0FC0
FC0FC0
FC0FC0
FC0FC0
FC0FC0
FC0FC0
FC7E00
FC7E00
FC7E00
FC0000
FC0000
FC0000
FC0000
FC0000
FC0000
ENDCHAR
STARTCHAR U+1E58
ENCODING 7768
SWIDTH 2880 0
DWIDTH 24 0
BBX 18 30 3 0
BITMAP
03F000
03F000
03F000
03F000
03F000
03F000
000000
000000
000000
FFFE00
FFFE00
FFFE00
FC0FC0
FC0FC0
FC0FC0
FC0FC0
FC0FC0
FC0FC0
FC7E00
FC7E00
FC7E00
FC0E00
FC0E00
FC0E00
FC0FC0
FC0FC0
FC0FC0
FC0FC0
FC0FC0
FC0FC0
ENDCHAR
STARTCHAR U+1E59
ENCODING 7769
SWIDTH 2880 0
DWIDTH 24 0
BBX 18 24 3 0
BITMAP
03F000
03F000
03F000
03F000
03F000
03F000
000000
000000
000000
FF8FC0
FF8FC0
FF8FC0
1FF000
1FF000
1FF000
1F8000
1F8000
1F8000
1F8000
1F8000
1F8000
1F8000
1F8000
1F8000
ENDCHAR
STARTCHAR U+1E5A
ENCODING 7770
SWIDTH 2880 0
DWIDTH 24 0
BBX 18 27 3 -6
BITMAP
FFFE00
FFFE00
FFFE00
FC0FC0
FC0FC0
FC0FC0
FC0FC0
FC0FC0
FC0FC0
FC7E00
FC7E00
FC7E00
FC0E00
FC0E00
FC0E00
FC0FC0
FC0FC0
FC0FC0
FC0FC0
FC0FC0
FC0FC0
000000
000000
000000
03F000
03F000
03F000
ENDCHAR
STARTCHAR U+1E60
ENCODING 7776
SWIDTH 2880 0
DWIDTH 24 0
BBX 18 30 3 0
BITMAP
03F000
03F000
03F000
03F000
03F000
03F000
000000
000000
000000
1FFE00
1FFE00
1FFE00
FC0FC0
FC0FC0
FC0FC0
FC0000
FC0000
FC0000
1FFE00
1FFE00
1FFE00
000FC0
000FC0
000FC0
FC0FC0
FC0FC0
FC0FC0
1FFE00
1FFE00
1FFE00
ENDCHAR
STARTCHAR U+1E61
ENCODING 7777
SWIDTH 2880 0
DWIDTH 24 0
BBX 18 24 3 0
BITMAP
03F000
03F000
03F000
03F000
03F000
03F000
000000
000000
000000
1FFE00
1FFE00
1FFE00
FC0000
FC0000
FC0000
1FFE00
1FFE00
1FFE00
000FC0
000FC0
000FC0
1FFE00
1FFE00
1FFE00
ENDCHAR
STARTCHAR U+1E62
ENCODING 7778
SWIDTH 2880 0
DWIDTH 24 0
BBX 18 27 3 -6
BITMAP
1FFE00
1FFE00
1FFE00
FC0FC0
FC0FC0
FC0FC0
FC0000
FC0000
FC0000
1FFE00
1FFE00
1FFE00
000FC0
000FC0
000FC0
FC0FC0
FC0FC0
FC0FC0
1FFE00
1FFE00
1FFE00
000000
000000
000000
03F000
03F000
03F000
ENDCHAR
STARTCHAR U+1E6A
ENCODING 7786
SWIDTH 2880 0
DWIDTH 24 0
BBX 18 30 3 0
BITMAP
03F000
03F000
03F000
03F000
03F000
03F000
000000
000000
000000
FFFFC0
FFFFC0
FFFFC0
03F000
03F000
03F000
03F000
03F000
03F000
03F000
03F000
03F000
03F000
03F000
03F000
03F000
03F000
03F000
03F000
03F000
03F000
ENDCHAR
STARTCHAR U+1E6B
ENCODING 7787
SWIDTH 2880 0
DWIDTH 24 0
BBX 18 30 3 0
BITMAP
03F000
03F000
03F000
03F000
03F000
03F000
000000
000000
000000
03F000
03F000
03F000
03F000
03F000
03F000
FFFFC0
FFFFC0
FFFFC0
03F000
03F000
03F000
03F000
03F000
03F000
03F000
03F000
03F000
007FC0
007FC0
007FC0
ENDCHAR
STARTCHAR U+1E6C
ENCODING 7788
SWIDTH 2880 0
DWIDTH 24 0
BBX 18 27 3 -6
BITMAP
FFFFC0
FFFFC0
FFFFC0
03F000
03F000
03F000
03F000
03F000
03F000
03F000
03F000
03F000
03F000
03F000
03F000
03F000
03F000
03F000
03F000
03F000
03F000
000000
000000
000000
03F000
03F000
03F000
ENDCHAR
STARTCHAR U+1E80
ENCODING 7808
SWIDTH 2880 0
DWIDTH 24 0
BBX 21 30 3 0
BITMAP
1F8000
1F8000
1F8000
03F000
03F000
03F000
000000
000000
000000
FC01F8
FC01F8
FC01F8
FC01F8
FC01F8
FC01F8
FC71F8
FC71F8
FC71F8
FC71F8
FC71F8
FC71F8
FC71F8
FC71F8
FC71F8
FC71F8
FC71F8
FC71F8
1F8FC0
1F8FC0
1F8FC0
ENDCHAR
STARTCHAR U+1E81
ENCODING 7809
SWIDTH 2880 0
DWIDTH 24 0
BBX 18 24 3 0
BITMAP
1F8000
1F8000
1F8000
03F000
03F000
03F000
000000
000000
000000
FC71C0
FC71C0
FC71C0
FC71C0
FC71C0
FC71C0
FC71C0
FC71C0
FC71C0
FC71C0
FC71C0
FC71C0
1F8E00
1F8E00
1F8E00
ENDCHAR
STARTCHAR U+1E82
ENCODING 7810
SWIDTH 2880 0
DWIDTH 24 0
BBX 21 30 3 0
BITMAP
007E00
007E00
007E00
03F000
03F000
03F000
000000
000000
000000
FC01F8
FC01F8
FC01F8
FC01F8
FC01F8
FC01F8
FC71F8
FC71F8
FC71F8
FC71F8
FC71F8
FC71F8
FC71F8
FC71F8
FC71F8
FC71F8
FC71F8
FC71F8
1F8FC0
1F8FC0
1F8FC0
ENDCHAR
STARTCHAR U+1E83
ENCODING 7811
SWIDTH 2880 0
DWIDTH 24 0
BBX 18 24 3 0
BITMAP
007E00
007E00
007E00
03F000
03F000
03F000
000000
000000
000000
FC71C0
FC71C0
FC71C0
FC71C0
FC71C0
FC71C0
FC71C0
FC71C0
FC71C0
FC71C0
FC71C0
FC71C0
1F8E00
1F8E00
1F8E00
ENDCHAR
STARTCHAR U+1E84
ENCODING 7812
SWIDTH 2880 0
DWIDTH 24 0
BBX 21 30 3 0
BITMAP
FC01F8
FC01F8
FC01F8
FC01F8
FC01F8
FC01F8
000000
000000
000000
FC01F8
FC01F8
FC01F8
FC01F8
FC01F8
FC01F8
FC71F8
FC71F8
FC71F8
FC71F8
FC71F8
FC71F8
FC71F8
FC71F8
FC71F8
FC71F8
FC71F8
FC71F8
1F8FC0
1F8FC0
1F8FC0
ENDCHAR
STARTCHAR U+1E85
ENCODING 7813
SWIDTH 2880 0
DWIDTH 24 0
BBX 18 24 3 0
BITMAP
FC0FC0
FC0FC0
FC0FC0
FC0FC0
FC0FC0
FC0FC0
000000
000000
000000
FC71C0
FC71C0
FC71C0
FC71C0
FC71C0
FC71C0
FC71C0
FC71C0
FC71C0
FC71C0
FC71C0
FC71C0
1F8E00
1F8E00
1F8E00
ENDCHAR
STARTCHAR U+1E86
ENCODING 7814
SWIDTH 2880 0
DWIDTH 24 0
BBX 21 30 3 0
BITMAP
03F000
03F000
03F000
03F000
03F000
03F000
000000
000000
000000
FC01F8
FC01F8
FC01F8
FC01F8
FC01F8
FC01F8
FC71F8
FC71F8
FC71F8
FC71F8
FC71F8
FC71F8
FC71F8
FC71F8
FC71F8
FC71F8
FC71F8
FC71F8
1F8FC0
1F8FC0
1F8FC0
ENDCHAR
STARTCHAR U+1E8A
ENCODING 7818
SWIDTH 2880 0
DWIDTH 24 0
BBX 18 30 3 0
BITMAP
03F000
03F000
03F000
03F000
03F000
03F000
000000
000000
000000
FC0FC0
FC0FC0
FC0FC0
FC0FC0
FC0FC0
FC0FC0
1C0E00
1C0E00
1C0E00
03F000
03F000
03F000
1C0E00
1C0E00
1C0E00
FC0FC0
FC0FC0
FC0FC0
FC0FC0
FC0FC0
FC0FC0
ENDCHAR
STARTCHAR U+1E8B
ENCODING 7819
SWIDTH 2880 0
DWIDTH 24 0
BBX 18 24 3 0
BITMAP
03F000
03F000
03F000
03F000
03F000
03F000
000000
000000
000000
FC0FC0
FC0FC0
FC0FC0
FC0FC0
FC0FC0
FC0FC0
1FFE00
1FFE00
1FFE00
FC0FC0
FC0FC0
FC0FC0
FC0FC0
FC0FC0
FC0FC0
ENDCHAR
STARTCHAR U+1EA0
ENCODING 7840
SWIDTH 2880 0
DWIDTH 24 0
BBX 18 27 3 -6
BITMAP
007000
007000
007000
038E00
038E00
038E00
1C0FC0
1C0FC0
1C0FC0
FFFFC0
FFFFC0
FFFFC0
FC0FC0
FC0FC0
FC0FC0
FC0FC0
FC0FC0
FC0FC0
FC0FC0
FC0FC0
FC0FC0
000000
000000
000000
03F000
03F000
03F000
ENDCHAR
STARTCHAR U+1ECA
ENCODING 7882
SWIDTH 2880 0
DWIDTH 24 0
BBX 18 27 3 -6
BITMAP
FFFFC0
FFFFC0
FFFFC0
03F000
03F000
03F000
03F000
03F000
03F000
03F000
03F000
03F000
03F000
03F000
03F000
03F000
03F000
03F000
FFFFC0
FFFFC0
FFFFC0
000000
000000
000000
03F000
03F000
03F000
ENDCHAR
STARTCHAR U+1ECC
ENCODING 7884
SWIDTH 2880 0
DWIDTH 24 0
BBX 18 27 3 -6
BITMAP
1FFE00
1FFE00
1FFE00
FC0FC0
FC0FC0
FC0FC0
FC0FC0
FC0FC0
FC0FC0
FC0FC0
FC0FC0
FC0FC0
FC0FC0
FC0FC0
FC0FC0
FC0FC0
FC0FC0
FC0FC0
1FFE00
1FFE00
1FFE00
000000
000000
000000
03F000
03F000
03F000
ENDCHAR
STARTCHAR U+1EF2
ENCODING 7922
SWIDTH 2880 0
DWIDTH 24 0
BBX 18 30 3 0
BITMAP
1F8000
1F8000
1F8000
03F000
03F000
03F000
000000
000000
000000
FC0FC0
FC0FC0
FC0FC0
FC0FC0
FC0FC0
FC0FC0
1C0E00
1C0E00
1C0E00
03F000
03F000
03F000
03F000
03F000
03F000
03F000
03F000
03F000
03F000
03F000
03F000
ENDCHAR
STARTCHAR U+1EF3
ENCODING 7923
SWIDTH 2880 0
DWIDTH 24 0
BBX 18 30 3 -6
BITMAP
1F8000
1F8000
1F8000
03F000
03F000
03F000
000000
000000
000000
FC0FC0
FC0FC0
FC0FC0
FC0FC0
FC0FC0
FC0FC0
FC0FC0
FC0FC0
FC0FC0
FC7FC0
FC7FC0
FC7FC0
1F8FC0
1F8FC0
1F8FC0
000FC0
000FC0
000FC0
1FFE00
1FFE00
1FFE00
ENDCHAR
STARTCHAR U+2013
ENCODING 8211
SWIDTH 2880 0
DWIDTH 24 0
BBX 18 3 3 9
BITMAP
FFFFC0
FFFFC0
FFFFC0
ENDCHAR
STARTCHAR U+2014
ENCODING 8212
SWIDTH 2880 0
DWIDTH 24 0
BBX 24 3 0 9
BITMAP
FFFFFF
FFFFFF
FFFFFF
ENDCHAR
STARTCHAR U+2015
ENCODING 8213
SWIDTH 2880 0
DWIDTH 24 0
BBX 24 3 0 9
BITMAP
FFFFFF
FFFFFF
FFFFFF
ENDCHAR
STARTCHAR U+2017
ENCODING 8215
SWIDTH 2880 0
DWIDTH 24 0
BBX 18 9 3 -6
BITMAP
FFFFC0
FFFFC0
FFFFC0
000000
000000
000000
FFFFC0
FFFFC0
FFFFC0
ENDCHAR
STARTCHAR U+2018
ENCODING 8216
SWIDTH 2880 0
DWIDTH 24 0
BBX 6 12 9 15
BITMAP
1C0000
1C0000
1C0000
E00000
E00000
E00000
FC0000
FC0000
FC0000
FC0000
FC0000
FC0000
ENDCHAR
STARTCHAR U+2019
ENCODING 8217
SWIDTH 2880 0
DWIDTH 24 0
BBX 6 12 9 15
BITMAP
FC0000
FC0000
FC0000
FC0000
FC0000
FC0000
1C0000
1C0000
1C0000
E00000
E00000
E00000
ENDCHAR
STARTCHAR U+201A
ENCODING 8218
SWIDTH 2880 0
DWIDTH 24 0
BBX 6 12 9 -6
BITMAP
FC0000
FC0000
FC0000
FC0000
FC0000
FC0000
1C0000
1C0000
1C0000
E00000
E00000
E00000
ENDCHAR
STARTCHAR U+201B
ENCODING 8219
SWIDTH 2880 0
DWIDTH 24 0
BBX 6 12 9 15
BITMAP
FC0000
FC0000
FC0000
FC0000
FC0000
FC0000
E00000
E00000
E00000
1C0000
1C0000
1C0000
ENDCHAR
STARTCHAR U+201C
ENCODING 8220
SWIDTH 2880 0
DWIDTH 24 0
BBX 15 12 6 15
BITMAP
1C0E00
1C0E00
1C0E00
E07000
E07000
E07000
FC7E00
FC7E00
FC7E00
FC7E00
FC7E00
FC7E00
ENDCHAR
STARTCHAR U+201D
ENCODING 8221
SWIDTH 2880 0
DWIDTH 24 0
BBX 15 12 3 15
BITMAP
FC7E00
FC7E00
FC7E00
FC7E00
FC7E00
FC7E00
1C0E00
1C0E00
1C0E00
E07000
E07000
E07000
ENDCHAR
STARTCHAR U+201E
ENCODING 8222
SWIDTH 2880 0
DWIDTH 24 0
BBX 15 12 3 -6
BITMAP
FC7E00
FC7E00
FC7E00
FC7E00
FC7E00
FC7E00
1C0E00
1C0E00
1C0E00
E07000
E07000
E07000
ENDCHAR
STARTCHAR U+2020
ENCODING 8224
SWIDTH 2880 0
DWIDTH 24 0
BBX 18 24 3 -3
BITMAP
03F000
03F000
03F000
03F000
03F000
03F000
FFFFC0
FFFFC0
FFFFC0
03F000
03F000
03F000
03F000
03F000
03F000
03F000
03F000
03F000
03F000
03F000
03F000
03F000
03F000
03F000
ENDCHAR
STARTCHAR U+2021
ENCODING 8225
SWIDTH 2880 0
DWIDTH 24 0
BBX 18 24 3 -3
BITMAP
03F000
03F000
03F000
03F000
03F000
03F000
FFFFC0
FFFFC0
FFFFC0
03F000
03F000
03F000
03F000
03F000
03F000
FFFFC0
FFFFC0
FFFFC0
03F000
03F000
03F000
03F000
03F000
03F000
ENDCHAR
STARTCHAR U+2022
ENCODING 8226
SWIDTH 2880 0
DWIDTH 24 0
BBX 12 12 6 3
BITMAP
1F8000
1F8000
1F8000
FFF000
FFF000
FFF000
FFF000
FFF000
FFF000
1F8000
1F8000
1F8000
ENDCHAR
STARTCHAR U+2026
ENCODING 8230
SWIDTH 2880 0
DWIDTH 24 0
BBX 24 6 0 0
BITMAP
FC7E3F
FC7E3F
FC7E3F
FC7E3F
FC7E3F
FC7E3F
ENDCHAR
STARTCHAR U+2030
ENCODING 8240
SWIDTH 2880 0
DWIDTH 24 0
BBX 24 21 0 0
BITMAP
FC01C0
FC01C0
FC01C0
FC0FC0
FC0FC0
FC0FC0
007E00
007E00
007E00
03F000
03F000
03F000
1F8000
1F8000
1F8000
FC7E3F
FC7E3F
FC7E3F
E07E3F
E07E3F
E07E3F
ENDCHAR
STARTCHAR U+2032
ENCODING 8242
SWIDTH 2880 0
DWIDTH 24 0
BBX 9 9 6 12
BITMAP
1F8000
1F8000
1F8000
FC0000
FC0000
FC0000
E00000
E00000
E00000
ENDCHAR
STARTCHAR U+2033
ENCODING 8243
SWIDTH 2880 0
DWIDTH 24 0
BBX 18 9 3 12
BITMAP
1F8FC0
1F8FC0
1F8FC0
FC7E00
FC7E00
FC7E00
E07000
E07000
E07000
ENDCHAR
STARTCHAR U+2039
ENCODING 8249
SWIDTH 2880 0
DWIDTH 24 0
BBX 9 15 9 3
BITMAP
038000
038000
038000
1F8000
1F8000
1F8000
FC0000
FC0000
FC0000
1F8000
1F8000
1F8000
038000
038000
038000
ENDCHAR
STARTCHAR U+203A
ENCODING 8250
SWIDTH 2880 0
DWIDTH 24 0
BBX 9 15 6 3
BITMAP
E00000
E00000
E00000
FC0000
FC0000
FC0000
1F8000
1F8000
1F8000
FC0000
FC0000
FC0000
E00000
E00000
E00000
ENDCHAR
STARTCHAR U+203C
ENCODING 8252
SWIDTH 2880 0
DWIDTH 24 0
BBX 18 24 3 0
BITMAP
FC0FC0
FC0FC0
FC0FC0
FC0FC0
FC0FC0
FC0FC0
FC0FC0
FC0FC0
FC0FC0
FC0FC0
FC0FC0
FC0FC0
FC0FC0
FC0FC0
FC0FC0
000000
000000
000000
FC0FC0
FC0FC0
FC0FC0
FC0FC0
FC0FC0
FC0FC0
ENDCHAR
STARTCHAR U+203E
ENCODING 8254
SWIDTH 2880 0
DWIDTH 24 0
BBX 18 3 3 21
BITMAP
FFFFC0
FFFFC0
FFFFC0
ENDCHAR
STARTCHAR U+203F
ENCODING 8255
SWIDTH 2880 0
DWIDTH 24 0
BBX 24 6 0 -6
BITMAP
FC003F
FC003F
FC003F
1FFFF8
1FFFF8
1FFFF8
ENDCHAR
STARTCHAR U+2044
ENCODING 8260
SWIDTH 2880 0
DWIDTH 24 0
BBX 18 21 3 0
BITMAP
0001C0
0001C0
0001C0
000FC0
000FC0
000FC0
007E00
007E00
007E00
03F000
03F000
03F000
1F8000
1F8000
1F8000
FC0000
FC0000
FC0000
E00000
E00000
E00000
ENDCHAR
STARTCHAR U+2045
ENCODING 8261
SWIDTH 2880 0
DWIDTH 24 0
BBX 12 27 6 -3
BITMAP
FFF000
FFF000
FFF000
FC0000
FC0000
FC0000
FC0000
FC0000
FC0000
FC0000
FC0000
FC0000
FFF000
FFF000
FFF000
FC0000
FC0000
FC0000
FC0000
FC0000
FC0000
FC0000
FC0000
FC0000
FFF000
FFF000
FFF000
ENDCHAR
STARTCHAR U+2070
ENCODING 8304
SWIDTH 2880 0
DWIDTH 24 0
BBX 12 15 3 9
BITMAP
1F8000
1F8000
1F8000
E3F000
E3F000
E3F000
E3F000
E3F000
E3F000
E3F000
E3F000
E3F000
1F8000
1F8000
1F8000
ENDCHAR
STARTCHAR U+207A
ENCODING 8314
SWIDTH 2880 0
DWIDTH 24 0
BBX 18 15 3 9
BITMAP
03F000
03F000
03F000
03F000
03F000
03F000
FFFFC0
FFFFC0
FFFFC0
03F000
03F000
03F000
03F000
03F000
03F000
ENDCHAR
STARTCHAR U+207B
ENCODING 8315
SWIDTH 2880 0
DWIDTH 24 0
BBX 12 3 3 15
BITMAP
FFF000
FFF000
FFF000
ENDCHAR
STARTCHAR U+207C
ENCODING 8316
SWIDTH 2880 0
DWIDTH 24 0
BBX 12 9 6 15
BITMAP
FFF000
FFF000
FFF000
000000
000000
000000
FFF000
FFF000
FFF000
ENDCHAR
STARTCHAR U+207E
ENCODING 8318
SWIDTH 2880 0
DWIDTH 24 0
BBX 9 15 6 9
BITMAP
FC0000
FC0000
FC0000
1F8000
1F8000
1F8000
1F8000
1F8000
1F8000
1F8000
1F8000
1F8000
FC0000
FC0000
FC0000
ENDCHAR
STARTCHAR U+207F
ENCODING 8319
SWIDTH 2880 0
DWIDTH 24 0
BBX 15 12 3 12
BITMAP
FFF000
FFF000
FFF000
FC7E00
FC7E00
FC7E00
FC7E00
FC7E00
FC7E00
FC7E00
FC7E00
FC7E00
ENDCHAR
STARTCHAR U+2080
ENCODING 8320
SWIDTH 2880 0
DWIDTH 24 0
BBX 12 15 3 -6
BITMAP
1F8000
1F8000
1F8000
FC7000
FC7000
FC7000
FC7000
FC7000
FC7000
FC7000
FC7000
FC7000
1F8000
1F8000
1F8000
ENDCHAR
STARTCHAR U+2081
ENCODING 8321
SWIDTH 2880 0
DWIDTH 24 0
BBX 12 15 3 -6
BITMAP
038000
038000
038000
FF8000
FF8000
FF8000
1F8000
1F8000
1F8000
1F8000
1F8000
1F8000
FFF000
FFF000
FFF000
ENDCHAR
STARTCHAR U+2082
ENCODING 8322
SWIDTH 2880 0
DWIDTH 24 0
BBX 12 15 3 -6
BITMAP
FF8000
FF8000
FF8000
E3F000
E3F000
E3F000
03F000
03F000
03F000
1F8000
1F8000
1F8000
FFF000
FFF000
FFF000
ENDCHAR
STARTCHAR U+2083
ENCODING 8323
SWIDTH 2880 0
DWIDTH 24 0
BBX 12 15 3 -6
BITMAP
FF8000
FF8000
FF8000
03F000
03F000
03F000
1F8000
1F8000
1F8000
03F000
03F000
03F000
FF8000
FF8000
FF8000
ENDCHAR
STARTCHAR U+2084
ENCODING 8324
SWIDTH 2880 0
DWIDTH 24 0
BBX 12 15 3 -6
BITMAP
03F000
03F000
03F000
1FF000
1FF000
1FF000
FFF000
FFF000
FFF000
03F000
03F000
03F000
03F000
03F000
03F000
ENDCHAR
STARTCHAR U+2085
ENCODING 8325
SWIDTH 2880 0
DWIDTH 24 0
BBX 12 15 3 -6
BITMAP
FFF000
FFF000
FFF000
FC0000
FC0000
FC0000
FF8000
FF8000
FF8000
03F000
03F000
03F000
FF8000
FF8000
FF8000
ENDCHAR
STARTCHAR U+2086
ENCODING 8326
SWIDTH 2880 0
DWIDTH 24 0
BBX 12 15 3 -6
BITMAP
1F8000
1F8000
1F8000
FC0000
FC0000
FC0000
FF8000
FF8000
FF8000
FC7000
FC7000
FC7000
1F8000
1F8000
1F8000
ENDCHAR
STARTCHAR U+2087
ENCODING 8327
SWIDTH 2880 0
DWIDTH 24 0
BBX 12 15 3 -6
BITMAP
FFF000
FFF000
FFF000
E3F000
E3F000
E3F000
03F000
03F000
03F000
1F8000
1F8000
1F8000
1F8000
1F8000
1F8000
ENDCHAR
STARTCHAR U+2088
ENCODING 8328
SWIDTH 2880 0
DWIDTH 24 0
BBX 12 15 3 -6
BITMAP
1F8000
1F8000
1F8000
FC7000
FC7000
FC7000
1F8000
1F8000
1F8000
FC7000
FC7000
FC7000
1F8000
1F8000
1F8000
ENDCHAR
STARTCHAR U+2089
ENCODING 8329
SWIDTH 2880 0
DWIDTH 24 0
BBX 12 15 3 -6
BITMAP
1F8000
1F8000
1F8000
E3F000
E3F000
E3F000
1FF000
1FF000
1FF000
03F000
03F000
03F000
1F8000
1F8000
1F8000
ENDCHAR
STARTCHAR U+208C
ENCODING 8332
SWIDTH 2880 0
DWIDTH 24 0
BBX 12 9 6 -6
BITMAP
FFF000
FFF000
FFF000
000000
000000
000000
FFF000
FFF000
FFF000
ENDCHAR
STARTCHAR U+2099
ENCODING 8345
SWIDTH 2880 0
DWIDTH 24 0
BBX 15 12 3 -6
BITMAP
FFF000
FFF000
FFF000
FC7E00
FC7E00
FC7E00
FC7E00
FC7E00
FC7E00
FC7E00
FC7E00
FC7E00
ENDCHAR
STARTCHAR U+20A3
ENCODING 8355
SWIDTH 2880 0
DWIDTH 24 0
BBX 18 21 3 0
BITMAP
FFFFC0
FFFFC0
FFFFC0
1F81C0
1F81C0
1F81C0
1F8000
1F8000
1F8000
1FFE00
1FFE00
1FFE00
1F8000
1F8000
1F8000
FFF000
FFF000
FFF000
1F8000
1F8000
1F8000
ENDCHAR
STARTCHAR U+20A4
ENCODING 8356
SWIDTH 2880 0
DWIDTH 24 0
BBX 18 21 3 0
BITMAP
03FE00
03FE00
03FE00
1F81C0
1F81C0
1F81C0
FFF000
FFF000
FFF000
1F8000
1F8000
1F8000
FFF000
FFF000
FFF000
1F81C0
1F81C0
1F81C0
FC7FC0
FC7FC0
FC7FC0
ENDCHAR
STARTCHAR U+20A7
ENCODING 8359
SWIDTH 2880 0
DWIDTH 24 0
BBX 21 21 3 0
BITMAP
FFF000
FFF000
FFF000
FC7E00
FC7E00
FC7E00
FFF000
FFF000
FFF000
FC0FC0
FC0FC0
FC0FC0
FC7FF8
FC7FF8
FC7FF8
FC0FC0
FC0FC0
FC0FC0
FC0FF8
FC0FF8
FC0FF8
ENDCHAR
STARTCHAR U+20AC
ENCODING 8364
SWIDTH 2880 0
DWIDTH 24 0
BBX 21 21 3 0
BITMAP
03FFC0
03FFC0
03FFC0
1F8038
1F8038
1F8038
FFFE00
FFFE00
FFFE00
1F8000
1F8000
1F8000
FFFE00
FFFE00
FFFE00
1F8038
1F8038
1F8038
03FFC0
03FFC0
03FFC0
ENDCHAR
STARTCHAR U+20B3
ENCODING 8371
SWIDTH 2880 0
DWIDTH 24 0
BBX 24 21 0 0
BITMAP
000E00
000E00
000E00
0071C0
0071C0
0071C0
FFFFFF
FFFFFF
FFFFFF
1F81F8
1F81F8
1F81F8
FFFFFF
FFFFFF
FFFFFF
1F81F8
1F81F8
1F81F8
1F81F8
1F81F8
1F81F8
ENDCHAR
STARTCHAR U+2102
ENCODING 8450
SWIDTH 2880 0
DWIDTH 24 0
BBX 18 21 3 0
BITMAP
1FFE00
1FFE00
1FFE00
E38FC0
E38FC0
E38FC0
E38000
E38000
E38000
E38000
E38000
E38000
E38000
E38000
E38000
E38FC0
E38FC0
E38FC0
1FFE00
1FFE00
1FFE00
ENDCHAR
STARTCHAR U+2105
ENCODING 8453
SWIDTH 2880 0
DWIDTH 24 0
BBX 24 27 0 -3
BITMAP
1FF000
1FF000
1FF000
FC7000
FC7000
FC7000
FC0000
FC0000
FC0000
1FF000
1FF000
1FF000
000000
000000
000000
000FF8
000FF8
000FF8
007E3F
007E3F
007E3F
007E3F
007E3F
007E3F
000FF8
000FF8
000FF8
ENDCHAR
STARTCHAR U+2113
ENCODING 8467
SWIDTH 2880 0
DWIDTH 24 0
BBX 18 21 3 0
BITMAP
03F000
03F000
03F000
1F8E00
1F8E00
1F8E00
1F8E00
1F8E00
1F8E00
1FF000
1FF000
1FF000
1F8000
1F8000
1F8000
FF8FC0
FF8FC0
FF8FC0
03FE00
03FE00
03FE00
ENDCHAR
STARTCHAR U+2116
ENCODING 8470
SWIDTH 2880 0
DWIDTH 24 0
BBX 21 21 3 0
BITMAP
E071C0
E071C0
E071C0
FC7E38
FC7E38
FC7E38
E3FE38
E3FE38
E3FE38
E071C0
E071C0
E071C0
E07000
E07000
E07000
E07FF8
E07FF8
E07FF8
E07000
E07000
E07000
ENDCHAR
STARTCHAR U+2122
ENCODING 8482
SWIDTH 2880 0
DWIDTH 24 0
BBX 24 12 0 9
BITMAP
FFF007
FFF007
FFF007
1C7E3F
1C7E3F
1C7E3F
1C71C7
1C71C7
1C71C7
1C7007
1C7007
1C7007
ENDCHAR
STARTCHAR U+2126
ENCODING 8486
SWIDTH 2880 0
DWIDTH 24 0
BBX 21 21 3 0
BITMAP
1FFFC0
1FFFC0
1FFFC0
FC01F8
FC01F8
FC01F8
FC01F8
FC01F8
FC01F8
FC01F8
FC01F8
FC01F8
FC01F8
FC01F8
FC01F8
1F8FC0
1F8FC0
1F8FC0
FF8FF8
FF8FF8
FF8FF8
ENDCHAR
STARTCHAR U+212E
ENCODING 8494
SWIDTH 2880 0
DWIDTH 24 0
BBX 21 18 3 0
BITMAP
1FFFC0
1FFFC0
1FFFC0
FC01F8
FC01F8
FC01F8
FFFFF8
FFFFF8
FFFFF8
FC0000
FC0000
FC0000
FC01F8
FC01F8
FC01F8
1FFFC0
1FFFC0
1FFFC0
ENDCHAR
STARTCHAR U+215B
ENCODING 8539
SWIDTH 2880 0
DWIDTH 24 0
BBX 18 33 3 -6
BITMAP
038000
038000
038000
FF8000
FF8000
FF8000
1F8000
1F8000
1F8000
1F8000
1F8000
1F8000
FFF000
FFF000
FFF000
000000
000000
000000
007E00
007E00
007E00
03F1C0
03F1C0
03F1C0
007E00
007E00
007E00
03F1C0
03F1C0
03F1C0
007E00
007E00
007E00
ENDCHAR
STARTCHAR U+215C
ENCODING 8540
SWIDTH 2880 0
DWIDTH 24 0
BBX 18 33 3 -6
BITMAP
FF8000
FF8000
FF8000
03F000
03F000
03F000
1F8000
1F8000
1F8000
03F000
03F000
03F000
FF8000
FF8000
FF8000
000000
000000
000000
007E00
007E00
007E00
03F1C0
03F1C0
03F1C0
007E00
007E00
007E00
03F1C0
03F1C0
03F1C0
007E00
007E00
007E00
ENDCHAR
STARTCHAR U+215D
ENCODING 8541
SWIDTH 2880 0
DWIDTH 24 0
BBX 18 33 3 -6
BITMAP
FFF000
FFF000
FFF000
FC0000
FC0000
FC0000
FF8000
FF8000
FF8000
03F000
03F000
03F000
FF8000
FF8000
FF8000
000000
000000
000000
007E00
007E00
007E00
03F1C0
03F1C0
03F1C0
007E00
007E00
007E00
03F1C0
03F1C0
03F1C0
007E00
007E00
007E00
ENDCHAR
STARTCHAR U+215E
ENCODING 8542
SWIDTH 2880 0
DWIDTH 24 0
BBX 18 33 3 -6
BITMAP
FFF000
FFF000
FFF000
E3F000
E3F000
E3F000
03F000
03F000
03F000
1F8000
1F8000
1F8000
1F8000
1F8000
1F8000
000000
000000
000000
007E00
007E00
007E00
03F1C0
03F1C0
03F1C0
007E00
007E00
007E00
03F1C0
03F1C0
03F1C0
007E00
007E00
007E00
ENDCHAR
ENDFONT
